<?xml version="1.0" standalone="no"?>
<!DOCTYPE svg PUBLIC "-//W3C//DTD SVG 1.1//EN" "http://www.w3.org/Graphics/SVG/1.1/DTD/svg11.dtd" >
<svg xmlns="http://www.w3.org/2000/svg" xmlns:xlink="http://www.w3.org/1999/xlink" version="1.1">
<metadata>
Created by FontForge 20161003 at Thu Mar  9 22:55:04 2017
 By www-data
Copyright (c) 2004 - 2007 Linotype GmbH, www.linotype.com. All rights reserved.
</metadata>
<defs>
<font id="AvenirNextMediumItalic" horiz-adv-x="581" >
  <font-face 
    font-family="AvenirNextMediumItalic"
    font-weight="500"
    font-style="italic"
    font-stretch="normal"
    units-per-em="1000"
    panose-1="2 11 6 3 2 2 2 9 2 4"
    ascent="800"
    descent="-200"
    x-height="474"
    cap-height="708"
    bbox="-258 -250 1048 951"
    underline-thickness="50"
    underline-position="-150"
    unicode-range="U+000D-FB02"
  />
<missing-glyph horiz-adv-x="512" 
d="M222 117v67h56v-67h-56zM225 234l-2 17q0 56 13 81q7 13 18 27.5t28 31.5q16 15 26 26.5t15 21t7 18t2 17.5q0 36 -22.5 60.5t-53.5 24.5t-53.5 -22t-28.5 -73l-50 8q7 72 44 104.5t91 32.5t89 -35.5t35 -95.5q0 -32 -12.5 -58.5t-50.5 -61.5q-37 -33 -43 -52
q-6 -20 -6 -72h-46zM462 50v617h-412v-617h412zM512 718v-718h-512v718h512z" />
    <glyph glyph-name=".notdef" horiz-adv-x="512" 
d="M222 117v67h56v-67h-56zM225 234l-2 17q0 56 13 81q7 13 18 27.5t28 31.5q16 15 26 26.5t15 21t7 18t2 17.5q0 36 -22.5 60.5t-53.5 24.5t-53.5 -22t-28.5 -73l-50 8q7 72 44 104.5t91 32.5t89 -35.5t35 -95.5q0 -32 -12.5 -58.5t-50.5 -61.5q-37 -33 -43 -52
q-6 -20 -6 -72h-46zM462 50v617h-412v-617h412zM512 718v-718h-512v718h512z" />
    <glyph glyph-name=".null" horiz-adv-x="500" 
 />
    <glyph glyph-name=".null" horiz-adv-x="500" 
 />
    <glyph glyph-name="nonmarkingreturn" unicode="&#xd;" horiz-adv-x="0" 
 />
    <glyph glyph-name="space" unicode=" " horiz-adv-x="250" 
 />
    <glyph glyph-name="exclam" unicode="!" horiz-adv-x="287" 
d="M173 207h-95l89 501h95zM170 61q0 -26 -19 -46t-45 -20t-45 16.5t-19 45.5t20 47.5t46 18.5t44 -16.5t18 -45.5z" />
    <glyph glyph-name="quotedbl" unicode="&#x22;" horiz-adv-x="425" 
d="M349 459h-80l44 249h80zM189 459h-81l45 249h80z" />
    <glyph glyph-name="numbersign" unicode="#" horiz-adv-x="573" 
d="M120 211h-96l13 72h105l45 143h-98l12 72h109l67 210h74l-67 -210h118l67 210h74l-67 -210h90l-12 -72h-101l-45 -143h93l-12 -72h-102l-68 -211h-74l68 211h-119l-67 -211h-74zM216 283h119l45 143h-119z" />
    <glyph glyph-name="dollar" unicode="$" horiz-adv-x="595" 
d="M485 580q-16 23 -43.5 40t-65.5 19l-43 -240q36 -14 67 -31t54 -39.5t36 -51.5t13 -68q0 -40 -14.5 -78t-44.5 -68t-75.5 -50t-107.5 -24l-13 -73h-46l13 73q-60 3 -115.5 29.5t-85.5 76.5l79 54q18 -32 54.5 -55t81.5 -25l45 255q-32 11 -62.5 26t-53.5 37t-37 51
t-14 67q0 44 16 82.5t46 67t74 46t100 19.5l13 72h46l-13 -72q57 -5 101 -26.5t70 -56.5zM329 639q-25 -2 -48 -10t-41 -23t-28.5 -37t-10.5 -52q0 -41 23 -64t65 -39zM407 198q0 44 -25.5 69t-64.5 42l-42 -240q58 3 95 38.5t37 90.5z" />
    <glyph glyph-name="percent" unicode="%" horiz-adv-x="868" 
d="M415 574q0 -44 -15 -81.5t-41.5 -66t-63 -44.5t-80.5 -16q-34 0 -63 11t-50 31t-33 47t-12 60q0 43 15 80t42 65t64 44t81 16q34 0 63 -10.5t49.5 -30t32 -46t11.5 -59.5zM326 560q0 32 -20.5 54.5t-55.5 22.5q-45 0 -73.5 -32t-28.5 -80q0 -32 19.5 -54t54.5 -22
q46 0 75 32t29 79zM813 196q0 -44 -15 -81.5t-41.5 -66t-63 -44.5t-80.5 -16q-34 0 -63 11t-50 31t-33 47t-12 60q0 43 15 80t42 65t64 44t81 16q34 0 63 -10.5t49.5 -30t32 -46t11.5 -59.5zM724 182q0 32 -20.5 54.5t-55.5 22.5q-45 0 -73.5 -32t-28.5 -80q0 -32 19.5 -54
t54.5 -22q46 0 75 32t29 79zM180 -40l-60 42l564 739l59 -42z" />
    <glyph glyph-name="ampersand" unicode="&#x26;" horiz-adv-x="722" 
d="M517 168l139 -168h-119l-75 97q-55 -59 -109.5 -84.5t-116.5 -25.5q-46 0 -85 11.5t-67 34.5t-43.5 57t-15.5 80q0 44 17.5 80t45 63.5t63 48.5t71.5 35q-23 30 -36.5 66.5t-13.5 74.5q0 42 14 76.5t39 59.5t59.5 38.5t74.5 13.5q37 0 68.5 -10.5t55 -30.5t36.5 -49
t13 -66q0 -34 -13.5 -63t-38 -53t-58.5 -44.5t-74 -37.5l114 -142l105 149h113zM441 565q0 38 -21.5 61.5t-59.5 23.5q-45 0 -72.5 -30t-27.5 -76q0 -32 14 -63t32 -51q28 11 52.5 25t43 30.5t29 36.5t10.5 43zM268 335q-29 -11 -55 -25.5t-46 -33.5t-31.5 -43.5
t-11.5 -56.5q0 -24 9.5 -44t25.5 -34t37.5 -21.5t46.5 -7.5q49 0 87.5 23.5t75.5 68.5z" />
    <glyph glyph-name="quotesingle" unicode="'" horiz-adv-x="265" 
d="M152 708h81l-44 -249h-81z" />
    <glyph glyph-name="parenleft" unicode="(" horiz-adv-x="315" 
d="M104 172q0 -81 17.5 -156.5t50.5 -136.5l-71 -35q-38 65 -59.5 150t-21.5 177q0 154 62.5 298t173.5 264l59 -43q-49 -55 -88 -117.5t-66.5 -129t-42 -135.5t-14.5 -136z" />
    <glyph glyph-name="parenright" unicode=")" horiz-adv-x="315" 
d="M209 405q0 81 -18 156.5t-50 136.5l71 35q38 -65 59.5 -150t21.5 -177q0 -154 -62.5 -298t-173.5 -264l-59 43q49 55 88 117.5t66.5 129t42 135.5t14.5 136z" />
    <glyph glyph-name="asterisk" unicode="*" horiz-adv-x="453" 
d="M431 620l27 -76l-127 -41l81 -109l-64 -48l-84 113l-84 -113l-64 48l81 109l-127 41l27 76l127 -41v129h80v-129z" />
    <glyph glyph-name="plus" unicode="+" horiz-adv-x="666" 
d="M374 344h222v-82h-222v-222h-82v222h-222v82h222v222h82v-222z" />
    <glyph glyph-name="comma" unicode="," horiz-adv-x="260" 
d="M36 -133h-79l113 249h93z" />
    <glyph glyph-name="hyphen" unicode="-" horiz-adv-x="320" 
d="M258 205h-232l14 79h232z" />
    <glyph glyph-name="period" unicode="." horiz-adv-x="260" 
d="M145 61q0 -26 -18.5 -46t-45.5 -20q-26 0 -44.5 16.5t-18.5 45.5t20 47.5t46 18.5t43.5 -16.5t17.5 -45.5z" />
    <glyph glyph-name="slash" unicode="/" horiz-adv-x="379" 
d="M9 -33l-66 25l440 749l64 -25z" />
    <glyph glyph-name="zero" unicode="0" horiz-adv-x="595" 
d="M363 726q53 0 90 -19.5t60.5 -52.5t34.5 -77.5t11 -93.5q0 -51 -7 -108t-22.5 -112.5t-39.5 -106.5t-58 -89.5t-79 -61.5t-102 -23q-53 0 -90.5 19t-61.5 51t-35 75.5t-11 93.5q0 52 7 109.5t22.5 113.5t40 107t59 90t79.5 62t102 23zM355 646q-45 0 -83 -36t-65 -94.5
t-42 -132t-15 -148.5q0 -35 5.5 -66t18 -54.5t33.5 -37.5t51 -14q45 0 82 36t63.5 94t41.5 131.5t15 148.5q0 35 -5 66.5t-17.5 55t-32.5 37.5t-50 14z" />
    <glyph glyph-name="one" unicode="1" horiz-adv-x="595" 
d="M324 0h-95l105 593l-155 -113l-45 71l225 157h90z" />
    <glyph glyph-name="two" unicode="2" horiz-adv-x="595" 
d="M469 0h-461l16 92l327 279q55 46 81.5 84.5t26.5 85.5q0 49 -32.5 76.5t-83.5 27.5q-57 0 -94.5 -32.5t-53.5 -85.5l-88 22q28 83 91 130t150 47q45 0 83 -12.5t66 -35.5t43.5 -56t15.5 -74t-10.5 -73t-30 -60t-48.5 -55t-65 -57l-259 -217h341z" />
    <glyph glyph-name="three" unicode="3" horiz-adv-x="595" 
d="M231 409h33q88 0 132 36t44 104q0 45 -30 71t-78 26q-91 0 -136 -83l-74 43q38 61 93 90.5t124 29.5q40 0 75.5 -11.5t62.5 -34t42.5 -55t15.5 -74.5q0 -72 -41 -118t-108 -63v-2q51 -12 83.5 -52.5t32.5 -96.5q0 -54 -18.5 -97.5t-52.5 -74.5t-81 -48t-104 -17
q-83 0 -141.5 40t-80.5 111l91 30q11 -48 48.5 -73.5t88.5 -25.5q71 0 111.5 39.5t40.5 105.5q0 33 -12.5 56t-33.5 38t-49.5 21.5t-60.5 6.5h-31z" />
    <glyph glyph-name="four" unicode="4" horiz-adv-x="595" 
d="M438 242h103l-15 -83h-101l-27 -159h-92l27 159h-327l16 92l375 457h124zM412 605h-3l-291 -363h229z" />
    <glyph glyph-name="five" unicode="5" horiz-adv-x="595" 
d="M526 624h-275l-39 -187q18 6 39.5 9t43.5 3q42 0 80 -13t67.5 -38.5t47 -62.5t17.5 -86q0 -60 -19.5 -109.5t-55 -84.5t-84.5 -54t-108 -19q-83 0 -140.5 39t-78.5 97l87 36q14 -41 48.5 -65.5t82.5 -24.5q41 0 72.5 13t53 36.5t32.5 54.5t11 67q0 33 -11.5 58.5
t-31 43.5t-46 27t-57.5 9q-38 0 -80.5 -11.5t-75.5 -30.5l75 377h361z" />
    <glyph glyph-name="six" unicode="6" horiz-adv-x="595" 
d="M519 241q0 -55 -19 -102t-53.5 -82t-84 -55t-110.5 -20q-48 0 -89 15t-71 42.5t-46.5 66t-16.5 84.5q0 53 24.5 105.5t76.5 115.5l241 297h115l-243 -288l1 -3q14 8 32.5 12.5t38.5 4.5q47 0 85 -15t64.5 -41t40.5 -61t14 -76zM423 233q0 28 -9.5 51.5t-26 40.5t-39 26.5
t-49.5 9.5q-39 0 -71 -13t-55 -36t-35.5 -54.5t-12.5 -67.5q0 -28 10 -51.5t27.5 -41t41 -27t51.5 -9.5q39 0 70 13t52.5 36t33.5 54.5t12 68.5z" />
    <glyph glyph-name="seven" unicode="7" horiz-adv-x="595" 
d="M570 621l-404 -621h-116l418 623h-343l15 85h445z" />
    <glyph glyph-name="eight" unicode="8" horiz-adv-x="595" 
d="M549 556q0 -38 -12 -68t-32 -53t-45.5 -39t-53.5 -25l1 -2q47 -14 78 -54t31 -95q0 -57 -21 -101t-56 -74.5t-82.5 -46.5t-99.5 -16q-39 0 -77 11t-68 34t-48.5 58.5t-18.5 85.5q0 42 14 76.5t38 61.5t55 44.5t66 24.5v3q-39 17 -63.5 52t-24.5 81q0 49 18 88.5t49 67
t72 42t87 14.5q39 0 74 -10.5t61.5 -31.5t42 -53t15.5 -75zM458 542q0 51 -30 77.5t-79 26.5q-29 0 -53 -10.5t-41 -28.5t-26.5 -41.5t-9.5 -50.5q0 -42 28 -71.5t76 -29.5q29 0 54 10.5t43 28.5t28 41t10 48zM423 218q0 51 -33 83.5t-87 32.5q-36 0 -66 -11.5t-52 -32.5
t-34.5 -49t-12.5 -61q0 -57 35.5 -87.5t87.5 -30.5q39 0 69 12t50.5 33t31.5 49.5t11 61.5z" />
    <glyph glyph-name="nine" unicode="9" horiz-adv-x="595" 
d="M581 518q0 -53 -24.5 -105.5t-76.5 -115.5l-241 -297h-115l243 288l-1 3q-7 -4 -15.5 -7t-17.5 -5q-20 -5 -38 -5q-47 0 -85 15t-64.5 41t-40.5 61t-14 76q0 55 19 102t53.5 82t84 55t110.5 20q48 0 89 -15t71 -42.5t46.5 -66t16.5 -84.5zM486 518q0 28 -10 51.5
t-27.5 41t-41.5 27t-52 9.5q-39 0 -70 -13t-53 -36t-34 -54.5t-12 -68.5q0 -28 9.5 -51.5t26 -40.5t39.5 -26.5t50 -9.5q39 0 71 13t55 36t36 54.5t13 67.5z" />
    <glyph glyph-name="colon" unicode=":" horiz-adv-x="300" 
d="M170 61q0 -26 -19 -46t-45 -20t-45 16.5t-19 45.5t20 47.5t46 18.5t44 -16.5t18 -45.5zM227 417q0 -26 -18.5 -46t-45.5 -20q-26 0 -44.5 16.5t-18.5 45.5t20 48t46 19t43.5 -17t17.5 -46z" />
    <glyph glyph-name="semicolon" unicode=";" horiz-adv-x="300" 
d="M53 -133h-82l112 249h97zM227 417q0 -26 -18.5 -46t-45.5 -20q-26 0 -44.5 16.5t-18.5 45.5t20 48t46 19t43.5 -17t17.5 -46z" />
    <glyph glyph-name="less" unicode="&#x3c;" horiz-adv-x="666" 
d="M589 479l-385 -176l383 -176v-85l-508 231v60l510 231v-85z" />
    <glyph glyph-name="equal" unicode="=" horiz-adv-x="666" 
d="M596 426v-81h-526v81h526zM596 261v-81h-526v81h526z" />
    <glyph glyph-name="greater" unicode="&#x3e;" horiz-adv-x="666" 
d="M79 564l508 -231v-60l-508 -231v85l383 176l-383 176v85z" />
    <glyph glyph-name="question" unicode="?" horiz-adv-x="500" 
d="M281 200h-92l8 49q8 53 32 86t64 64l43 34q29 22 52 48.5t23 67.5q0 42 -25.5 65.5t-70.5 23.5q-56 0 -89 -33t-43 -78l-89 16q9 39 29.5 72t50.5 57t67.5 37.5t80.5 13.5q38 0 72 -9.5t59.5 -29.5t40.5 -52.5t15 -77.5q0 -62 -33.5 -105t-91.5 -83q-23 -17 -40 -30.5
t-28.5 -28t-18.5 -32t-11 -42.5zM286 61q0 -26 -19 -46t-45 -20t-44.5 16.5t-18.5 45.5t19.5 47.5t45.5 18.5t44 -16.5t18 -45.5z" />
    <glyph glyph-name="at" unicode="@" horiz-adv-x="800" 
d="M788 449q0 -58 -16.5 -110.5t-46.5 -92t-72.5 -63t-94.5 -23.5q-43 0 -65 21t-16 50h-4q-8 -12 -20.5 -24.5t-29 -23t-36.5 -17t-42 -6.5q-63 0 -95.5 33.5t-32.5 89.5q0 41 15.5 87.5t45 86.5t72.5 66t98 26q38 0 65.5 -16.5t32.5 -41.5h2l17 43h75l-73 -187
q-3 -7 -6.5 -17.5t-7.5 -22t-6.5 -23t-2.5 -18.5q0 -20 8 -29t29 -9q28 0 52 18.5t41 49t27 68.5t10 77q0 51 -18 90.5t-50 67.5t-76.5 42.5t-97.5 14.5q-78 0 -142 -29t-109.5 -78.5t-71 -115.5t-25.5 -139q0 -56 19 -101t54.5 -76.5t85 -48.5t111.5 -17q80 0 144 26
t120 73l36 -53q-62 -57 -140.5 -86t-169.5 -29q-81 0 -145.5 23t-108.5 64t-67.5 97.5t-23.5 124.5q0 88 32.5 167.5t90 138.5t137 94t174.5 35q70 0 128.5 -18.5t100.5 -54t65.5 -87t23.5 -117.5zM503 411q0 28 -13 48t-49 20q-26 0 -50.5 -15t-44 -40.5t-31.5 -58
t-12 -68.5q0 -25 12.5 -46t47.5 -21q30 0 55.5 17t44 43t29.5 58.5t11 62.5z" />
    <glyph glyph-name="A" unicode="A" horiz-adv-x="681" 
d="M47 0h-115l459 708h89l144 -708h-103l-34 174h-332zM206 261h267l-60 336z" />
    <glyph glyph-name="B" unicode="B" horiz-adv-x="633" 
d="M157 708h226q37 0 73.5 -8t66 -26.5t48 -48t18.5 -72.5q0 -71 -43 -117.5t-113 -63.5v-2q58 -9 95 -48.5t37 -102.5q0 -54 -22.5 -95t-62.5 -68.5t-95.5 -41.5t-121.5 -14h-231zM200 408h137q25 0 51.5 6.5t49 21t37 38t14.5 58.5q0 25 -10 43t-27.5 29t-41.5 16.5
t-52 5.5h-119zM143 83h129q38 0 73 7.5t62 24t43 43.5t16 66q0 48 -36.5 75t-103.5 27h-140z" />
    <glyph glyph-name="C" unicode="C" horiz-adv-x="700" 
d="M652 111q-21 -27 -49 -50.5t-63 -41t-77.5 -27.5t-92.5 -10q-71 0 -129.5 22t-100 62t-64.5 96t-23 124q0 92 32.5 172t89.5 139.5t133.5 94t164.5 34.5q39 0 75.5 -8t67.5 -22.5t56 -34.5t40 -45l-81 -59q-8 15 -22 30t-34.5 27.5t-46.5 20t-58 7.5q-69 0 -127 -29.5
t-100 -77.5t-65 -110t-23 -127q0 -48 14.5 -90t43 -73.5t70.5 -49.5t96 -18q59 0 112 24t95 75z" />
    <glyph glyph-name="D" unicode="D" horiz-adv-x="757" 
d="M157 708h229q60 0 119 -16.5t106 -52t76 -92t29 -135.5q0 -93 -32.5 -169t-90.5 -130t-137 -83.5t-172 -29.5h-252zM144 86h145q80 0 140.5 26.5t101.5 70.5t61.5 100.5t20.5 116.5q0 46 -15 86.5t-45.5 71t-78 48.5t-112.5 18h-123z" />
    <glyph glyph-name="E" unicode="E" horiz-adv-x="582" 
d="M144 87h367l-15 -87h-464l125 708h436l-15 -86h-340l-37 -214h324l-15 -83h-324z" />
    <glyph glyph-name="F" unicode="F" horiz-adv-x="553" 
d="M130 0h-98l125 708h428l-15 -86h-330l-40 -221h309l-14 -83h-309z" />
    <glyph glyph-name="G" unicode="G" horiz-adv-x="755" 
d="M387 67q99 1 164 38l35 198h-160l16 84h254l-60 -343q-58 -31 -124.5 -46.5t-136.5 -15.5q-72 0 -131.5 22t-102 62t-65.5 96t-23 124q0 92 32.5 172t89.5 139.5t133.5 94t164.5 34.5q78 0 143.5 -28t100.5 -82l-81 -59q-20 33 -61 59t-105 26q-69 0 -127 -29.5
t-100 -77.5t-65 -110t-23 -127q0 -49 15.5 -91.5t45 -73.5t72.5 -48.5t99 -17.5z" />
    <glyph glyph-name="H" unicode="H" horiz-adv-x="719" 
d="M157 708h98l-53 -297h350l53 297h98l-125 -708h-98l57 325h-350l-57 -325h-98z" />
    <glyph glyph-name="I" unicode="I" horiz-adv-x="271" 
d="M130 0h-98l125 708h98z" />
    <glyph glyph-name="J" unicode="J" horiz-adv-x="491" 
d="M72 155q5 -36 29 -61.5t65 -25.5q34 0 56.5 12t37 33t23 49t13.5 59l86 487h98l-87 -492q-6 -38 -18.5 -79t-37.5 -75.5t-65 -57t-103 -22.5q-41 0 -73.5 11t-56 31t-38 46.5t-18.5 58.5z" />
    <glyph glyph-name="K" unicode="K" horiz-adv-x="621" 
d="M198 392h2l339 316h136l-377 -331l285 -377h-127l-261 366h-2l-64 -366h-97l125 708h97z" />
    <glyph glyph-name="L" unicode="L" horiz-adv-x="511" 
d="M144 87h317l-14 -87h-415l125 708h98z" />
    <glyph glyph-name="M" unicode="M" horiz-adv-x="903" 
d="M423 162h1l310 546h152l-124 -708h-97l105 591h-3l-341 -591h-62l-131 591h-2l-105 -591h-94l125 708h151z" />
    <glyph glyph-name="N" unicode="N" horiz-adv-x="768" 
d="M541 138h2l100 570h98l-125 -708h-122l-260 582h-2l-103 -582h-97l125 708h125z" />
    <glyph glyph-name="O" unicode="O" horiz-adv-x="831" 
d="M381 -18q-74 0 -134.5 21.5t-103.5 61.5t-66.5 96.5t-23.5 126.5q0 91 31.5 170.5t87 139t130.5 94t163 34.5q72 0 132 -21.5t103 -61.5t66.5 -96t23.5 -126q0 -91 -30.5 -171t-85.5 -139.5t-130 -94t-163 -34.5zM688 412q0 48 -15 89.5t-44 73t-71.5 49.5t-97.5 18
q-69 0 -125.5 -29.5t-96.5 -78t-61.5 -110.5t-21.5 -127q0 -47 15 -89t43.5 -73.5t71 -49.5t98.5 -18q70 0 126.5 29t96 77.5t61 110.5t21.5 128z" />
    <glyph glyph-name="P" unicode="P" horiz-adv-x="595" 
d="M157 708h202q110 0 169.5 -47t59.5 -131q0 -56 -20.5 -97.5t-58 -68.5t-89.5 -40t-115 -13h-121l-55 -311h-97zM198 393h112q82 0 131 30t49 96q0 30 -10.5 50.5t-29.5 33t-45.5 17.5t-58.5 5h-106z" />
    <glyph glyph-name="Q" unicode="Q" horiz-adv-x="827" 
d="M780 427q0 -69 -17 -124.5t-44 -98t-61 -72t-68 -47.5v-3h189l-15 -82h-383q-70 0 -130 19.5t-103.5 57t-68.5 93t-25 127.5q0 90 31 168t85.5 136t128.5 91.5t160 33.5q71 0 130 -21t101.5 -60t66 -94.5t23.5 -123.5zM679 414q0 48 -14.5 89.5t-43 72.5t-69.5 48.5
t-95 17.5q-69 0 -124.5 -28.5t-95.5 -75.5t-61.5 -106.5t-21.5 -122.5q0 -50 15.5 -91t45.5 -70.5t73 -46t97 -16.5q61 0 114.5 27t93.5 72t63 104.5t23 125.5z" />
    <glyph glyph-name="R" unicode="R" horiz-adv-x="612" 
d="M129 0h-97l125 708h201q52 0 95 -11.5t73.5 -34t47 -55t16.5 -75.5q0 -46 -15 -81t-41 -60.5t-62 -41.5t-79 -23l151 -326h-110l-141 316h-109zM198 397h109q38 0 71.5 6t58 20.5t39 38t14.5 59.5q0 56 -39.5 80t-107.5 24h-104z" />
    <glyph glyph-name="S" unicode="S" horiz-adv-x="569" 
d="M481 580q-20 29 -54 46.5t-77 17.5q-25 0 -51.5 -7t-49 -22.5t-37 -39.5t-14.5 -57q0 -23 8.5 -40t23.5 -30t36 -23.5t46 -19.5q39 -14 72.5 -31.5t59 -41t40 -54t14.5 -70.5q0 -49 -18.5 -90.5t-53 -71.5t-83.5 -47t-110 -17q-34 0 -67.5 7t-64.5 20.5t-56.5 34
t-42.5 48.5l82 55q20 -35 60.5 -58.5t92.5 -23.5q30 0 58.5 8.5t50.5 25t35.5 41t13.5 57.5q0 27 -11 47t-30 35t-44 26.5t-53 21.5q-31 12 -60 27t-51 36t-35 50t-13 69q0 49 19.5 89.5t54.5 68.5t83 43.5t104 15.5q62 0 115.5 -23t82.5 -65z" />
    <glyph glyph-name="T" unicode="T" horiz-adv-x="535" 
d="M260 0h-98l110 622h-224l15 86h544l-15 -86h-222z" />
    <glyph glyph-name="U" unicode="U" horiz-adv-x="712" 
d="M317 -18q-63 0 -109.5 17t-77.5 47t-46.5 69.5t-15.5 84.5q0 30 6 62l78 446h98l-78 -440q-5 -28 -5 -53q0 -30 8 -56.5t26.5 -47t47.5 -32.5t71 -12q52 0 88 17t60 45.5t37.5 64.5t20.5 74l77 440h98l-78 -446q-10 -54 -31.5 -104.5t-58 -89.5t-90 -62.5t-126.5 -23.5z
" />
    <glyph glyph-name="V" unicode="V" horiz-adv-x="628" 
d="M260 127h3l343 581h107l-431 -708h-93l-113 708h104z" />
    <glyph glyph-name="W" unicode="W" horiz-adv-x="982" 
d="M233 142h2l275 566h108l57 -566h2l267 566h104l-344 -708h-102l-61 572h-2l-283 -572h-103l-69 708h103z" />
    <glyph glyph-name="X" unicode="X" horiz-adv-x="622" 
d="M332 441l226 267h121l-302 -342l173 -366h-113l-132 297l-252 -297h-127l334 375l-156 333h111z" />
    <glyph glyph-name="Y" unicode="Y" horiz-adv-x="560" 
d="M268 0h-98l54 306l-178 402h111l130 -322l259 322h120l-344 -402z" />
    <glyph glyph-name="Z" unicode="Z" horiz-adv-x="580" 
d="M601 622l-490 -535h403l-15 -87h-532l15 86l493 536h-367l15 86h494z" />
    <glyph glyph-name="bracketleft" unicode="[" horiz-adv-x="315" 
d="M299 666h-93l-133 -756h93l-12 -66h-177l157 888h177z" />
    <glyph glyph-name="backslash" unicode="\" horiz-adv-x="380" 
d="M4 716l70 26l308 -751l-71 -24z" />
    <glyph glyph-name="bracketright" unicode="]" horiz-adv-x="315" 
d="M9 -90h93l134 756h-93l11 66h177l-157 -888h-177z" />
    <glyph glyph-name="asciicircum" unicode="^" horiz-adv-x="666" 
d="M300 708h66l226 -399h-91l-169 300l-167 -300h-91z" />
    <glyph glyph-name="underscore" unicode="_" horiz-adv-x="500" 
d="M-67 -75h500l-9 -50h-500z" />
    <glyph glyph-name="grave" unicode="`" horiz-adv-x="250" 
d="M19 708h110l100 -144h-73z" />
    <glyph glyph-name="a" unicode="a" horiz-adv-x="537" 
d="M370 296q2 14 3 22t1 15q0 42 -26 60.5t-74 18.5q-38 0 -76 -15t-66 -37l-38 62q38 30 89 47.5t104 17.5q34 0 65.5 -7.5t56 -24t39.5 -43.5t15 -65q0 -9 -1 -23.5t-3 -24.5l-35 -192q-5 -28 -8 -57.5t-3 -49.5h-85q0 15 1.5 32t4.5 34h-2q-34 -40 -74 -58t-94 -18
q-24 0 -50 6t-47.5 20.5t-35.5 38.5t-14 60q0 58 32 93.5t82.5 55t113.5 26t125 6.5zM345 228q-39 0 -81 -3.5t-76.5 -14t-56.5 -30.5t-22 -52q0 -20 7.5 -32.5t20 -20.5t28 -11t31.5 -3q31 0 58 10.5t47 28.5t33.5 42t18.5 51l7 35h-15z" />
    <glyph glyph-name="b" unicode="b" horiz-adv-x="633" 
d="M133 80l-14 -80h-89l133 756h93l-65 -358h2q26 38 71.5 63.5t100.5 25.5q47 0 85 -15t65 -42t42 -64.5t15 -83.5q0 -61 -20 -114.5t-56 -93.5t-85.5 -63t-107.5 -23q-52 0 -98.5 23.5t-69.5 68.5h-2zM477 273q0 58 -34 97.5t-98 39.5q-40 0 -74 -16.5t-59.5 -45
t-40 -66.5t-14.5 -80q0 -30 9.5 -55.5t27.5 -43.5t43 -28.5t56 -10.5q42 0 76 16.5t58 44.5t37 66t13 82z" />
    <glyph glyph-name="c" unicode="c" horiz-adv-x="496" 
d="M419 353q-12 24 -40.5 40.5t-63.5 16.5q-41 0 -75.5 -16.5t-59.5 -45t-39 -66t-14 -79.5q0 -29 8.5 -54t25.5 -43.5t42.5 -29.5t59.5 -11q45 0 76 16t54 41l56 -52q-38 -38 -84.5 -60.5t-107.5 -22.5q-51 0 -92.5 15t-70.5 42t-45 64.5t-16 83.5q0 59 20.5 112.5t58 94
t90.5 64.5t118 24q26 0 51.5 -5t48 -14.5t41 -24.5t30.5 -36z" />
    <glyph glyph-name="d" unicode="d" horiz-adv-x="628" 
d="M30 193q0 61 20 114.5t56 93.5t85.5 63t108.5 23q58 0 100.5 -24t64.5 -67h2l63 360h93l-134 -756h-90l13 76h-2q-26 -39 -72 -63.5t-101 -24.5q-47 0 -85 15t-65 42t-42 64.5t-15 83.5zM126 202q0 -58 34 -97.5t98 -39.5q39 0 73.5 16.5t60 45t40 66.5t14.5 80
q0 30 -9.5 55.5t-27.5 43.5t-43 28.5t-56 10.5q-42 0 -76 -16.5t-58 -44.5t-37 -66.5t-13 -81.5z" />
    <glyph glyph-name="e" unicode="e" horiz-adv-x="565" 
d="M122 209q-1 -5 -1 -8.5v-7.5q0 -28 10.5 -51.5t29 -41t44 -27t54.5 -9.5q51 0 87.5 20.5t61.5 51.5l55 -52q-42 -48 -96 -72.5t-117 -24.5q-47 0 -87.5 14t-70 41t-46 66t-16.5 89q0 59 21 112t58 92.5t88 62.5t110 23q91 0 144 -49.5t53 -138.5q0 -14 -2.5 -40.5
t-7.5 -49.5h-372zM415 277q1 7 1.5 15t0.5 15q0 46 -30 76.5t-87 30.5q-34 0 -62 -12t-49.5 -31t-36 -44t-20.5 -50h283z" />
    <glyph glyph-name="f" unicode="f" horiz-adv-x="309" 
d="M319 399h-111l-70 -399h-91l70 399h-95l14 75h93l18 100q7 37 20.5 72t37 62t57.5 43.5t81 16.5q33 0 57 -7l-20 -80q-10 3 -20.5 5t-23.5 2q-24 0 -41 -9.5t-28.5 -25.5t-18 -37t-10.5 -43l-18 -99h113z" />
    <glyph glyph-name="g" unicode="g" horiz-adv-x="630" 
d="M51 -83q26 -35 69.5 -55.5t93.5 -20.5q47 0 80 13.5t55.5 37t35.5 55.5t21 69l12 63h-2q-29 -39 -73 -61.5t-98 -22.5q-47 0 -85 15.5t-65 42.5t-41.5 65t-14.5 83q0 59 20 111t56 91t85 61.5t108 22.5q58 0 101 -24t62 -66h3l13 77h90l-79 -451q-9 -51 -26.5 -98.5
t-50 -84t-83 -58.5t-125.5 -22q-64 0 -125.5 23.5t-98.5 66.5zM134 208q0 -29 9 -53.5t26 -43.5t42 -29.5t57 -10.5q40 0 74 16.5t59 44t39 64.5t14 78q0 59 -36.5 98t-99.5 39q-41 0 -75 -15.5t-58 -42.5t-37.5 -64t-13.5 -81z" />
    <glyph glyph-name="h" unicode="h" 
d="M347 487q78 0 118 -41.5t40 -104.5q0 -25 -4 -48l-52 -293h-93l46 262q6 27 6 53q0 41 -20 67t-72 26q-57 0 -97.5 -42.5t-53.5 -114.5l-44 -251h-93l133 756h93l-62 -354h2q23 36 62.5 60.5t90.5 24.5z" />
    <glyph glyph-name="i" unicode="i" horiz-adv-x="259" 
d="M121 0h-92l83 474h93zM245 647q0 -25 -17 -43t-42 -18q-24 0 -41.5 15t-17.5 42t18.5 44.5t42.5 17.5t40.5 -16t16.5 -42z" />
    <glyph glyph-name="j" unicode="j" horiz-adv-x="259" 
d="M-99 -155q18 -5 37 -5q21 0 35 8t23 21.5t14 32t9 39.5l94 533h93l-95 -536q-6 -35 -16.5 -67.5t-30 -57t-50.5 -39t-77 -14.5q-13 0 -28.5 2t-26.5 4zM245 647q0 -25 -17 -43t-42 -18q-24 0 -41.5 15t-17.5 42t18.5 44.5t42.5 17.5t40.5 -16t16.5 -42z" />
    <glyph glyph-name="k" unicode="k" horiz-adv-x="504" 
d="M169 267h3l228 207h123l-256 -220l195 -254h-117l-177 246h-3l-43 -246h-93l133 756h93z" />
    <glyph glyph-name="l" unicode="l" horiz-adv-x="260" 
d="M122 0h-93l133 756h94z" />
    <glyph glyph-name="m" unicode="m" horiz-adv-x="884" 
d="M648 487q80 0 120.5 -41.5t40.5 -104.5q0 -12 -1.5 -23.5t-3.5 -24.5l-52 -293h-92l46 262q2 14 3.5 27t1.5 26q0 41 -20 67.5t-71 26.5q-33 0 -57.5 -13.5t-41.5 -35.5t-27.5 -49t-15.5 -55l-45 -256h-93l50 281q2 12 3.5 23t1.5 21q0 38 -19 61t-64 23q-26 0 -50 -11.5
t-43.5 -32t-33.5 -49.5t-20 -64l-44 -252h-93l65 371q4 19 8.5 49t6.5 54h88q-2 -14 -5 -38t-5 -39h2q25 38 63.5 64t91.5 26q49 0 87.5 -23.5t49.5 -73.5q29 46 71.5 71.5t96.5 25.5z" />
    <glyph glyph-name="n" unicode="n" 
d="M196 474q-2 -14 -4.5 -37.5t-5.5 -39.5h2q26 41 66.5 65.5t91.5 24.5q78 0 118.5 -41.5t40.5 -104.5q0 -25 -4 -48l-52 -293h-93l46 262q6 27 6 53q0 41 -20 67t-72 26q-56 0 -97 -42.5t-54 -113.5l-44 -252h-93l65 371q4 19 8.5 49t6.5 54h88z" />
    <glyph glyph-name="o" unicode="o" horiz-adv-x="600" 
d="M255 -13q-49 0 -90 15t-71 42.5t-47 65.5t-17 84q0 59 20.5 112t58 93.5t90 64t116.5 23.5q49 0 90 -15t71 -42t46.5 -64.5t16.5 -83.5q0 -60 -20.5 -113.5t-58 -94t-89.5 -64t-116 -23.5zM445 273q0 29 -9.5 54t-27 43.5t-43 29t-56.5 10.5q-41 0 -75 -17t-58.5 -45.5
t-38 -66t-13.5 -79.5q0 -60 36 -98.5t100 -38.5q41 0 75 16.5t58.5 45t38 66.5t13.5 80z" />
    <glyph glyph-name="p" unicode="p" horiz-adv-x="632" 
d="M191 398q26 38 72 63t101 25q47 0 85 -15t65 -42t42 -64.5t15 -83.5q0 -61 -20.5 -114.5t-56.5 -93.5t-85.5 -63t-107.5 -23t-100.5 24t-64.5 66h-2l-55 -317h-93l126 714h90l-13 -76h2zM475 272q0 58 -34 97.5t-98 39.5q-39 0 -73.5 -16.5t-60 -45t-40 -66.5t-14.5 -80
q0 -30 9.5 -55.5t27.5 -43.5t43.5 -28.5t56.5 -10.5q41 0 75 16.5t58 44.5t37 66t13 82z" />
    <glyph glyph-name="q" unicode="q" horiz-adv-x="626" 
d="M30 193q0 61 20 114.5t56 93.5t85.5 63t108.5 23q52 0 98 -24t69 -69h2l14 80h90l-126 -714h-93l58 316h-2q-26 -39 -72 -63.5t-101 -24.5q-47 0 -85 15t-65 42t-42 64.5t-15 83.5zM126 202q0 -58 34 -97.5t98 -39.5q39 0 73.5 16.5t60 45t40 66.5t14.5 80
q0 30 -9.5 55.5t-27.5 43.5t-43 28.5t-56 10.5q-42 0 -76 -16.5t-58 -44.5t-37 -66.5t-13 -81.5z" />
    <glyph glyph-name="r" unicode="r" horiz-adv-x="343" 
d="M92 371q4 19 8.5 49t6.5 54h88q-1 -7 -2 -17.5t-2.5 -22t-3 -22t-2.5 -18.5h2q25 42 62.5 67.5t85.5 25.5q22 0 37 -4l-16 -87q-20 5 -41 5q-34 0 -60 -12.5t-45 -33.5t-30.5 -48.5t-16.5 -57.5l-44 -249h-92l65 371v0z" />
    <glyph glyph-name="s" unicode="s" horiz-adv-x="444" 
d="M347 360q-14 23 -38 38t-62 15q-17 0 -34 -3.5t-31.5 -11t-23.5 -20.5t-9 -31q0 -30 22 -43t63 -24q68 -20 104.5 -51.5t36.5 -89.5q0 -39 -17 -68t-44.5 -48t-62.5 -28.5t-71 -9.5q-68 0 -117.5 25t-76.5 68l75 49q16 -29 47.5 -47t71.5 -18q42 0 73 17.5t31 52.5
q0 31 -24.5 47t-73.5 32q-28 9 -51 19t-40 25t-26.5 35t-9.5 49q0 35 16 62.5t43 46.5t62.5 29t73.5 10q55 0 99 -21t66 -59z" />
    <glyph glyph-name="t" unicode="t" horiz-adv-x="324" 
d="M315 398h-117l-45 -249q-3 -17 -3 -30q0 -30 15.5 -40.5t41.5 -10.5q14 0 28 3t23 8l-7 -74q-14 -6 -34.5 -9.5t-40.5 -3.5q-55 0 -87.5 24.5t-32.5 77.5q0 11 1 23t3 24l46 257h-90l14 76h89l23 136h92l-24 -136h119z" />
    <glyph glyph-name="u" unicode="u" 
d="M352 0q2 14 5 37.5t5 39.5h-2q-26 -41 -66.5 -65.5t-91.5 -24.5q-78 0 -118.5 41.5t-40.5 105.5q0 11 1.5 23t3.5 24l52 293h92l-46 -261q-2 -14 -3.5 -27.5t-1.5 -26.5q0 -41 20 -67t71 -26q56 0 97.5 42.5t53.5 113.5l45 252h92l-65 -371q-4 -19 -8.5 -49t-6.5 -54h-88
z" />
    <glyph glyph-name="v" unicode="v" horiz-adv-x="490" 
d="M227 0h-99l-96 474h96l66 -374h2l216 374h99z" />
    <glyph glyph-name="w" unicode="w" horiz-adv-x="759" 
d="M137 474l33 -362h2l185 362h93l47 -362h3l180 362h98l-250 -474h-96l-48 359h-2l-187 -359h-96l-59 474h97z" />
    <glyph glyph-name="x" unicode="x" horiz-adv-x="489" 
d="M315 0l-94 185l-170 -185h-117l244 251l-123 223h101l84 -167l152 167h113l-221 -230l137 -244h-106z" />
    <glyph glyph-name="y" unicode="y" horiz-adv-x="495" 
d="M207 101h2l210 373h100l-347 -586q-18 -30 -35 -53.5t-37 -40t-44 -25.5t-54 -9q-31 0 -59 7l13 82q22 -8 44 -8q32 0 53 20.5t44 58.5l47 80l-104 474h99z" />
    <glyph glyph-name="z" unicode="z" horiz-adv-x="461" 
d="M437 398l-328 -320h279l-13 -78h-396l13 76l327 322h-254l14 76h371z" />
    <glyph glyph-name="braceleft" unicode="{" horiz-adv-x="315" 
d="M12 325q30 0 55.5 21t33.5 69l34 188q6 34 20 58.5t33 40.5t41.5 23t45.5 7h68l-12 -69h-51q-17 0 -28 -6.5t-18.5 -17t-11.5 -23t-6 -25.5l-32 -183q-6 -33 -20.5 -55t-31.5 -35.5t-34.5 -20.5t-27.5 -8v-2q9 -1 21.5 -5.5t24 -14.5t20 -27t8.5 -43q0 -14 -3 -32
l-31 -180q-3 -15 -3 -30q0 -17 9 -29.5t32 -12.5h51l-12 -69h-68q-41 0 -70 23t-29 76q0 13 3 30l33 184q3 15 3 28q0 35 -17.5 50.5t-43.5 15.5z" />
    <glyph glyph-name="bar" unicode="|" horiz-adv-x="222" 
d="M152 750v-1000h-82v1000h82z" />
    <glyph glyph-name="braceright" unicode="}" horiz-adv-x="315" 
d="M305 251q-30 0 -55.5 -21t-33.5 -69l-34 -188q-6 -35 -20 -59t-33 -40t-41.5 -23t-45.5 -7h-68l12 69h51q16 0 27.5 6.5t19 17t11.5 23t6 25.5l32 183q6 33 20.5 55t31.5 35.5t34 20t28 8.5v2q-9 1 -21.5 5.5t-24 14.5t-20 27t-8.5 43q0 14 3 32l31 180q3 15 3 30
q0 17 -9 29.5t-32 12.5h-51l12 69h68q41 0 70 -23.5t29 -75.5q0 -14 -3 -30l-33 -184q-3 -15 -3 -28q0 -35 17.5 -50.5t43.5 -15.5z" />
    <glyph glyph-name="asciitilde" unicode="~" horiz-adv-x="666" 
d="M340 346q19 -12 33 -20t25 -12t20.5 -5.5t20.5 -1.5q50 0 87 68l59 -55q-18 -29 -36 -48t-36.5 -30t-36.5 -15t-35 -4q-29 0 -55 8t-61 30q-19 12 -32.5 19.5t-24.5 11.5t-20.5 5.5t-20.5 1.5q-50 0 -87 -68l-59 55q35 58 72.5 78t71.5 20q30 0 55.5 -8t59.5 -30z" />
    <glyph glyph-name="uni00A0" unicode="&#xa0;" horiz-adv-x="250" 
 />
    <glyph glyph-name="exclamdown" unicode="&#xa1;" horiz-adv-x="287" 
d="M90 280h95l-88 -501h-95zM94 426q0 27 18.5 46.5t45.5 19.5q26 0 44.5 -16.5t18.5 -45.5t-19.5 -47.5t-45.5 -18.5t-44 16.5t-18 45.5z" />
    <glyph glyph-name="cent" unicode="&#xa2;" horiz-adv-x="595" 
d="M246 -9q-81 13 -128.5 66.5t-47.5 134.5q0 56 18.5 107.5t53 91t83 65t108.5 30.5l11 63h51l-11 -64q45 -4 84 -23t61 -55l-72 -54q-11 21 -34 36.5t-52 19.5l-61 -344q41 2 69.5 18t51.5 39l55 -52q-37 -37 -83.5 -59.5t-106.5 -23.5l-11 -65h-51zM320 408
q-35 -5 -63.5 -23.5t-49 -46.5t-32 -63t-11.5 -72q0 -48 23 -86t73 -48z" />
    <glyph glyph-name="sterling" unicode="&#xa3;" horiz-adv-x="595" 
d="M428 326h-166l-43 -244h264l-15 -82h-459l15 82h100l42 244h-97l13 71h95l16 88q7 37 22.5 79.5t44 78.5t72.5 59.5t108 23.5q49 0 89 -15t66 -43l-58 -66q-16 20 -42 32.5t-59 12.5q-41 0 -67.5 -17.5t-43 -43t-25.5 -54.5t-13 -53l-14 -82h168z" />
    <glyph glyph-name="currency" unicode="&#xa4;" horiz-adv-x="595" 
d="M491 420q21 -29 32 -64t11 -77t-12.5 -79t-32.5 -66l84 -85l-51 -52l-87 85q-28 -20 -63 -31t-76 -11q-38 0 -74 12t-65 32l-88 -87l-52 52l86 88q-19 28 -31 64.5t-12 77.5q0 42 10.5 76t29.5 63l-83 84l52 51l84 -82q29 20 65.5 32.5t77.5 12.5q42 0 78 -12.5t64 -32.5
l83 82l52 -51zM296 437q-35 0 -63 -12.5t-48 -34t-30.5 -50t-10.5 -61.5t10.5 -61.5t30.5 -50.5t48 -34.5t63 -12.5t63.5 12.5t48.5 34.5t30.5 50.5t10.5 61.5t-10.5 61.5t-30.5 50t-48.5 34t-63.5 12.5z" />
    <glyph glyph-name="yen" unicode="&#xa5;" horiz-adv-x="595" 
d="M237 228l16 92h-170l11 65h150l-150 323h104l120 -294l217 294h109l-258 -323h142l-11 -65h-172l-17 -92h172l-11 -65h-171l-29 -163h-91l29 163h-171l10 65h171z" />
    <glyph glyph-name="brokenbar" unicode="&#xa6;" horiz-adv-x="222" 
d="M152 675v-350h-82v350h82zM152 175v-350h-82v350h82z" />
    <glyph glyph-name="section" unicode="&#xa7;" horiz-adv-x="583" 
d="M478 588q-19 29 -48 43t-63 14q-50 0 -82.5 -24.5t-32.5 -68.5q0 -18 6 -32t19 -25t33 -21t48 -22q34 -14 60.5 -29.5t45 -34t28 -42t9.5 -53.5q0 -61 -32.5 -97t-80.5 -54q21 -19 33.5 -43.5t12.5 -52.5q0 -46 -17.5 -81t-47.5 -58.5t-69 -35.5t-82 -12q-31 0 -62.5 7.5
t-59.5 21.5t-50 33.5t-34 44.5l79 50q17 -38 54 -57t72 -19q23 0 44.5 5t38 16t26 28.5t9.5 41.5q0 19 -6.5 34t-20.5 27.5t-36.5 24t-53.5 23.5q-66 26 -101.5 60t-35.5 93q0 55 34 95t89 56q-21 14 -35 39.5t-14 57.5q0 42 17 76t46.5 57.5t68.5 36t83 12.5q61 0 109 -21
t72 -59zM411 277q0 18 -6 32.5t-16.5 25.5t-23.5 19t-28 15l-72 34q-17 -3 -34 -10.5t-30 -19.5t-21 -28.5t-8 -36.5q0 -37 22 -55.5t57 -34.5l79 -34q33 8 57 32t24 61z" />
    <glyph glyph-name="dieresis" unicode="&#xa8;" horiz-adv-x="250" 
d="M143 647q0 -25 -16.5 -42.5t-41.5 -17.5t-42 15t-17 42t18.5 44t42.5 17t40 -15.5t16 -42.5zM341 647q0 -25 -16.5 -42.5t-42.5 -17.5q-24 0 -41 15t-17 42t18 44t43 17q24 0 40 -15.5t16 -42.5z" />
    <glyph glyph-name="copyright" unicode="&#xa9;" horiz-adv-x="800" 
d="M20 353q0 79 30 147.5t81.5 119.5t121 80.5t148.5 29.5q78 0 147 -29.5t120.5 -80.5t81.5 -119.5t30 -147.5q0 -78 -30 -146.5t-81.5 -119.5t-120.5 -80t-147 -29q-79 0 -148.5 29t-121 80t-81.5 119.5t-30 146.5zM80 353q0 -66 25.5 -124t69 -101.5t102 -68.5t124.5 -25
t124 25t101.5 68.5t68.5 101.5t25 124t-25 124.5t-68.5 102t-101.5 69t-124 25.5t-124.5 -25.5t-102 -69t-69 -102t-25.5 -124.5zM515 473q-17 23 -44.5 33.5t-53.5 10.5q-33 0 -60.5 -12t-47 -33t-30.5 -50t-11 -62q0 -71 39.5 -115t106.5 -44q35 0 61.5 13.5t43.5 36.5
l61 -43q-29 -36 -70.5 -56t-96.5 -20q-50 0 -92.5 16.5t-73 46.5t-47.5 72t-17 93q0 52 18 93.5t49.5 70.5t74 45t92.5 16q21 0 43 -4t43 -12t39 -20.5t31 -29.5z" />
    <glyph glyph-name="ordfeminine" unicode="&#xaa;" horiz-adv-x="380" 
d="M353 637q0 -8 -1 -16t-2 -15l-20 -110q-3 -17 -4 -35t-1 -30h-56q0 19 4 39h-2q-16 -21 -39 -33.5t-55 -12.5q-37 0 -66 19.5t-29 58.5q0 33 16 54t44 33t66 16.5t81 4.5q0 4 1 8.5t1 8.5q0 23 -14 32.5t-40 9.5q-20 0 -42 -8.5t-39 -22.5l-27 43q27 21 58.5 31t58.5 10
q49 0 78 -22.5t29 -62.5zM275 564q-21 0 -44 -2t-41.5 -7.5t-31 -16t-12.5 -27.5q0 -22 15.5 -29.5t32.5 -7.5q35 0 56.5 21t28.5 51l4 18h-8z" />
    <glyph glyph-name="guillemotleft" unicode="&#xab;" horiz-adv-x="507" 
d="M209 65l-66 -40l-110 219l184 216l55 -45l-148 -177zM409 65l-65 -40l-110 219l184 216l54 -45l-148 -177z" />
    <glyph glyph-name="logicalnot" unicode="&#xac;" horiz-adv-x="666" 
d="M596 139h-81v206h-445v81h526v-287z" />
    <glyph glyph-name="uni00AD" unicode="&#xad;" horiz-adv-x="320" 
d="M258 205h-232l14 79h232z" />
    <glyph glyph-name="registered" unicode="&#xae;" horiz-adv-x="600" 
d="M351 511q14 0 25.5 9t11.5 24q0 16 -13 23t-24 7h-47v-63h47zM395 368l-55 99h-36v-99h-61v256h110q18 0 35 -4t31 -13t22.5 -24.5t8.5 -38.5q0 -26 -14.5 -43t-36.5 -25l68 -108h-72zM112 493q0 47 18 88.5t49 72t72.5 48.5t88.5 18t88.5 -18t72.5 -48.5t49 -72
t18 -88.5t-18 -88t-49 -71.5t-72.5 -48t-88.5 -17.5t-88.5 17.5t-72.5 48t-49 71.5t-18 88zM148 493q0 -39 15 -74t41 -61.5t61 -41.5t75 -15t75 15t61 41.5t41 61.5t15 74q0 40 -15 75t-41 61t-61 41t-75 15t-75 -15t-61 -41t-41 -61t-15 -75z" />
    <glyph glyph-name="macron" unicode="&#xaf;" horiz-adv-x="250" 
d="M323 597h-294l11 66h295z" />
    <glyph glyph-name="degree" unicode="&#xb0;" horiz-adv-x="400" 
d="M395 565q0 -33 -12 -61t-33 -48.5t-49 -32.5t-61 -12t-61 12t-49 32.5t-33 48.5t-12 61t12 61t33 49t49 33t61 12t61 -12t49 -33t33 -49t12 -61zM331 565q0 19 -7 36t-19.5 29.5t-29 19.5t-35.5 7t-35.5 -7t-29 -19.5t-19.5 -29.5t-7 -36q0 -38 26.5 -64.5t64.5 -26.5
t64.5 26.5t26.5 64.5z" />
    <glyph glyph-name="plusminus" unicode="&#xb1;" horiz-adv-x="666" 
d="M70 419h223v150h81v-150h222v-81h-222v-147h-81v147h-223v81zM70 121h526v-81h-526v81z" />
    <glyph glyph-name="twosuperior" unicode="&#xb2;" horiz-adv-x="385" 
d="M344 353l-13 -67h-280l12 69l186 154q33 28 47.5 49.5t14.5 43.5q0 26 -16.5 39.5t-45.5 13.5t-47 -17.5t-28 -47.5l-67 19q19 53 58 80.5t88 27.5q60 0 94 -30t34 -81q0 -24 -6 -43t-18 -36t-30.5 -33.5t-42.5 -36.5l-130 -104h190z" />
    <glyph glyph-name="threesuperior" unicode="&#xb3;" horiz-adv-x="385" 
d="M197 538q94 0 94 71q0 24 -15.5 36.5t-38.5 12.5q-26 0 -43 -11t-31 -37l-56 34q23 40 58 58.5t78 18.5q56 0 88 -31.5t32 -78.5q0 -43 -25 -69t-58 -34q30 -9 48 -33t18 -54q0 -35 -12 -61t-32.5 -44t-48.5 -27t-60 -9q-54 0 -90 25.5t-51 69.5l71 22q8 -27 26.5 -39.5
t44.5 -12.5q38 0 58 19t20 50q0 35 -25.5 50t-60.5 15h-22l11 59h22v0z" />
    <glyph glyph-name="acute" unicode="&#xb4;" horiz-adv-x="250" 
d="M190 564h-74l125 144h111z" />
    <glyph glyph-name="mu" unicode="&#xb5;" horiz-adv-x="578" 
d="M363 0q2 18 5.5 40.5t6.5 37.5h-2q-13 -19 -32 -35.5t-42 -29t-48.5 -19.5t-51.5 -7q-25 0 -46 8t-31 22l-55 -257h-94l152 714h94l-55 -262q-4 -16 -5.5 -31t-1.5 -29q0 -38 18 -62t66 -24q57 0 101 42.5t59 113.5l53 252h94l-79 -372q-2 -9 -4.5 -22t-5 -27t-4.5 -27.5
t-3 -25.5h-89z" />
    <glyph glyph-name="paragraph" unicode="&#xb6;" horiz-adv-x="600" 
d="M447 -126h-78l136 771h-116l-136 -771h-78l80 453q-42 0 -76 11.5t-57.5 31.5t-36 48t-12.5 61q0 40 15 81t47 74t83 53.5t123 20.5h253z" />
    <glyph glyph-name="periodcentered" unicode="&#xb7;" horiz-adv-x="260" 
d="M197 306q0 -26 -18.5 -46t-45.5 -20q-26 0 -44.5 16.5t-18.5 45.5t20 47.5t46 18.5t43.5 -16.5t17.5 -45.5z" />
    <glyph glyph-name="cedilla" unicode="&#xb8;" horiz-adv-x="250" 
d="M54 -70q8 2 14 2.5t12 0.5q13 0 27.5 -3.5t26.5 -12t20 -22t8 -33.5q0 -27 -13 -46t-32.5 -30t-42.5 -16t-44 -5q-26 0 -55 6t-49 17l24 42q17 -8 36.5 -12.5t39.5 -4.5q10 0 21 2t21 6.5t16.5 13t6.5 21.5q0 21 -14.5 29t-33.5 8q-10 0 -21 -2t-21 -5l-17 20l79 94h50z
" />
    <glyph glyph-name="onesuperior" unicode="&#xb9;" horiz-adv-x="385" 
d="M242 282h-77l59 333l-79 -59l-36 51l142 101h66z" />
    <glyph glyph-name="ordmasculine" unicode="&#xba;" horiz-adv-x="380" 
d="M390 599q0 -38 -13 -70t-36 -55t-54 -36t-67 -13q-62 0 -98.5 35t-36.5 87q0 37 13 69t36 55.5t54 36.5t67 13q59 0 97 -33.5t38 -88.5zM321 592q0 31 -18.5 51.5t-52.5 20.5q-21 0 -38.5 -9t-30.5 -24t-20 -34.5t-7 -41.5q0 -31 18.5 -51.5t51.5 -20.5q21 0 39 9t31 24
t20 34.5t7 41.5z" />
    <glyph glyph-name="guillemotright" unicode="&#xbb;" horiz-adv-x="507" 
d="M279 421l65 39l110 -218l-184 -217l-54 46l148 177zM78 421l66 39l110 -218l-185 -217l-54 46l148 177z" />
    <glyph glyph-name="onequarter" unicode="&#xbc;" horiz-adv-x="870" 
d="M769 94h-59l-16 -94h-71l17 93h-192l10 61l222 272h85l-47 -268h63zM676 330l-139 -173h111l32 173h-4zM176 -32l-54 33l564 739l53 -33zM242 282h-77l59 333l-79 -59l-36 51l142 101h66z" />
    <glyph glyph-name="onehalf" unicode="&#xbd;" horiz-adv-x="870" 
d="M808 320q0 -24 -6 -43t-18 -36t-30.5 -33.5t-42.5 -36.5l-131 -104h191l-13 -67h-280l12 68l185 154q34 28 48.5 49.5t14.5 43.5q0 26 -16.5 40t-45.5 14t-47 -17.5t-28 -47.5l-67 18q18 53 57 81t89 28q60 0 94 -30t34 -81zM176 -32l-54 33l564 739l53 -33zM242 282h-77
l59 333l-79 -59l-36 51l142 101h66z" />
    <glyph glyph-name="threequarters" unicode="&#xbe;" horiz-adv-x="870" 
d="M769 94h-59l-16 -94h-71l17 93h-192l10 61l222 272h85l-47 -268h63zM676 330l-139 -173h111l32 173h-4zM176 -32l-54 33l564 739l53 -33zM363 612q0 -44 -25 -70t-59 -34q30 -8 48.5 -32.5t18.5 -54.5q0 -35 -12 -61t-32.5 -44t-48.5 -27t-60 -9q-54 0 -90 25.5t-51 69.5
l70 22q8 -27 26.5 -39.5t44.5 -12.5q38 0 59 19t21 50q0 35 -26 50t-61 15h-22l10 58h22q49 0 72 18.5t23 53.5q0 24 -15 36.5t-39 12.5q-26 0 -43 -11t-31 -37l-56 34q23 39 58 58t78 19q55 0 87.5 -31.5t32.5 -77.5z" />
    <glyph glyph-name="questiondown" unicode="&#xbf;" horiz-adv-x="500" 
d="M202 287h92l-8 -49q-4 -26 -12.5 -47t-21 -38.5t-29 -33t-36.5 -30.5l-42 -33q-30 -23 -51.5 -49t-21.5 -68q0 -43 25.5 -66.5t70.5 -23.5q54 0 88 33t44 78l89 -15q-9 -39 -29.5 -72t-50 -57t-67.5 -37.5t-82 -13.5q-38 0 -71.5 9.5t-59 29.5t-40.5 52t-15 77
q0 61 33.5 104t92.5 84q23 16 40 30t28.5 29t18.5 32.5t11 42.5zM198 427q0 26 18.5 46t45.5 20q26 0 44.5 -16.5t18.5 -46.5q0 -29 -20 -47.5t-46 -18.5t-43.5 17t-17.5 46z" />
    <glyph glyph-name="Agrave" unicode="&#xc0;" horiz-adv-x="681" 
d="M47 0h-115l459 708h89l144 -708h-103l-34 174h-332zM206 261h267l-60 336zM269 908h110l100 -144h-73z" />
    <glyph glyph-name="Aacute" unicode="&#xc1;" horiz-adv-x="681" 
d="M47 0h-115l459 708h89l144 -708h-103l-34 174h-332zM206 261h267l-60 336zM470 764h-74l125 144h111z" />
    <glyph glyph-name="Acircumflex" unicode="&#xc2;" horiz-adv-x="681" 
d="M47 0h-115l459 708h89l144 -708h-103l-34 174h-332zM206 261h267l-60 336zM609 764h-86l-59 99l-94 -99h-91l138 144h106z" />
    <glyph glyph-name="Atilde" unicode="&#xc3;" horiz-adv-x="681" 
d="M47 0h-115l459 708h89l144 -708h-103l-34 174h-332zM206 261h267l-60 336zM271 772q7 22 18 42.5t25.5 36.5t34 26t45.5 10q20 0 37.5 -6t34.5 -15q17 -8 33 -14.5t30 -6.5q21 0 34 15t21 32h55q-8 -22 -18.5 -42.5t-25.5 -36.5t-34.5 -26t-44.5 -10q-18 0 -35 6t-34 14
q-17 9 -33.5 15.5t-31.5 6.5q-22 0 -35 -15t-21 -32h-55z" />
    <glyph glyph-name="Adieresis" unicode="&#xc4;" horiz-adv-x="681" 
d="M47 0h-115l459 708h89l144 -708h-103l-34 174h-332zM206 261h267l-60 336zM616 847q0 -25 -16.5 -42.5t-42.5 -17.5q-24 0 -41 15t-17 42t18 44t43 17q24 0 40 -15.5t16 -42.5zM418 847q0 -25 -16.5 -42.5t-41.5 -17.5t-42 15t-17 42t18.5 44t42.5 17t40 -15.5t16 -42.5z
" />
    <glyph glyph-name="Aring" unicode="&#xc5;" horiz-adv-x="681" 
d="M47 0h-115l459 708h89l144 -708h-103l-34 174h-332zM206 261h267l-60 336zM445 753q-38 0 -62.5 24t-24.5 59q0 24 8 44.5t23 36.5t35.5 25t44.5 9q39 0 63 -23t24 -59q0 -49 -31 -82.5t-80 -33.5zM515 863q0 21 -13 36t-36 15q-29 0 -47.5 -21t-18.5 -52
q0 -21 12.5 -35.5t35.5 -14.5q29 0 48 21t19 51z" />
    <glyph glyph-name="AE" unicode="&#xc6;" horiz-adv-x="1006" 
d="M470 0l34 193h-273l-153 -193h-115l569 708h485l-15 -86h-327l-38 -214h312l-15 -83h-311l-43 -238h354l-15 -87h-449zM518 275l62 347h-12l-275 -347h225z" />
    <glyph glyph-name="Ccedilla" unicode="&#xc7;" horiz-adv-x="700" 
d="M652 111q-41 -51 -107 -88t-159 -40l-44 -53q8 2 14 2.5t12 0.5q13 0 27.5 -3.5t26.5 -12t20 -22t8 -33.5q0 -27 -13 -46t-32.5 -30t-42.5 -16t-44 -5q-26 0 -55 6t-49 17l24 42q17 -8 36.5 -12.5t39.5 -4.5q10 0 21 2t21 6.5t16.5 13t6.5 21.5q0 21 -14.5 29t-33.5 8
q-10 0 -21 -2t-21 -5l-17 20l65 78q-64 5 -116.5 28.5t-89.5 63t-57.5 93t-20.5 117.5q0 92 32.5 172t89.5 139.5t133.5 94t164.5 34.5q39 0 75.5 -8t67.5 -22.5t56 -34.5t40 -45l-81 -59q-8 15 -22 30t-34.5 27.5t-46.5 20t-58 7.5q-69 0 -127 -29.5t-100 -77.5t-65 -110
t-23 -127q0 -48 14.5 -90t43 -73.5t70.5 -49.5t96 -18q59 0 112 24t95 75z" />
    <glyph glyph-name="Egrave" unicode="&#xc8;" horiz-adv-x="582" 
d="M144 87h367l-15 -87h-464l125 708h436l-15 -86h-340l-37 -214h324l-15 -83h-324zM243 908h110l100 -144h-73z" />
    <glyph glyph-name="Eacute" unicode="&#xc9;" horiz-adv-x="582" 
d="M144 87h367l-15 -87h-464l125 708h436l-15 -86h-340l-37 -214h324l-15 -83h-324zM385 764h-74l125 144h111z" />
    <glyph glyph-name="Ecircumflex" unicode="&#xca;" horiz-adv-x="582" 
d="M144 87h367l-15 -87h-464l125 708h436l-15 -86h-340l-37 -214h324l-15 -83h-324zM546 764h-86l-59 99l-94 -99h-91l138 144h106z" />
    <glyph glyph-name="Edieresis" unicode="&#xcb;" horiz-adv-x="582" 
d="M144 87h367l-15 -87h-464l125 708h436l-15 -86h-340l-37 -214h324l-15 -83h-324zM552 847q0 -25 -16.5 -42.5t-42.5 -17.5q-24 0 -41 15t-17 42t18 44t43 17q24 0 40 -15.5t16 -42.5zM354 847q0 -25 -16.5 -42.5t-41.5 -17.5t-42 15t-17 42t18.5 44t42.5 17t40 -15.5
t16 -42.5z" />
    <glyph glyph-name="Igrave" unicode="&#xcc;" horiz-adv-x="271" 
d="M130 0h-98l125 708h98zM45 908h110l100 -144h-73z" />
    <glyph glyph-name="Iacute" unicode="&#xcd;" horiz-adv-x="271" 
d="M130 0h-98l125 708h98zM238 764h-74l125 144h111z" />
    <glyph glyph-name="Icircumflex" unicode="&#xce;" horiz-adv-x="271" 
d="M130 0h-98l125 708h98zM377 764h-86l-59 99l-94 -99h-91l138 144h106z" />
    <glyph glyph-name="Idieresis" unicode="&#xcf;" horiz-adv-x="271" 
d="M130 0h-98l125 708h98zM382 847q0 -25 -16.5 -42.5t-42.5 -17.5q-24 0 -41 15t-17 42t18 44t43 17q24 0 40 -15.5t16 -42.5zM184 847q0 -25 -16.5 -42.5t-41.5 -17.5t-42 15t-17 42t18.5 44t42.5 17t40 -15.5t16 -42.5z" />
    <glyph glyph-name="Eth" unicode="&#xd0;" horiz-adv-x="757" 
d="M157 708h229q60 0 119 -16.5t106 -52t76 -92t29 -135.5q0 -93 -32.5 -169t-90.5 -130t-137 -83.5t-172 -29.5h-252l59 336h-66l13 69h66zM144 86h145q80 0 140.5 26.5t101.5 70.5t61.5 100.5t20.5 116.5q0 46 -15 86.5t-45.5 71t-78 48.5t-112.5 18h-123l-39 -219h230
l-14 -69h-228z" />
    <glyph glyph-name="Ntilde" unicode="&#xd1;" horiz-adv-x="768" 
d="M541 138h2l100 570h98l-125 -708h-122l-260 582h-2l-103 -582h-97l125 708h125zM284 772q7 22 18 42.5t25.5 36.5t34 26t45.5 10q20 0 37.5 -6t34.5 -15q17 -8 33 -14.5t30 -6.5q21 0 34 15t21 32h55q-8 -22 -18.5 -42.5t-25.5 -36.5t-34.5 -26t-44.5 -10q-18 0 -35 6
t-34 14q-17 9 -33.5 15.5t-31.5 6.5q-22 0 -35 -15t-21 -32h-55z" />
    <glyph glyph-name="Ograve" unicode="&#xd2;" horiz-adv-x="831" 
d="M381 -18q-74 0 -134.5 21.5t-103.5 61.5t-66.5 96.5t-23.5 126.5q0 91 31.5 170.5t87 139t130.5 94t163 34.5q72 0 132 -21.5t103 -61.5t66.5 -96t23.5 -126q0 -91 -30.5 -171t-85.5 -139.5t-130 -94t-163 -34.5zM688 412q0 48 -15 89.5t-44 73t-71.5 49.5t-97.5 18
q-69 0 -125.5 -29.5t-96.5 -78t-61.5 -110.5t-21.5 -127q0 -47 15 -89t43.5 -73.5t71 -49.5t98.5 -18q70 0 126.5 29t96 77.5t61 110.5t21.5 128zM327 908h110l100 -144h-73z" />
    <glyph glyph-name="Oacute" unicode="&#xd3;" horiz-adv-x="831" 
d="M381 -18q-74 0 -134.5 21.5t-103.5 61.5t-66.5 96.5t-23.5 126.5q0 91 31.5 170.5t87 139t130.5 94t163 34.5q72 0 132 -21.5t103 -61.5t66.5 -96t23.5 -126q0 -91 -30.5 -171t-85.5 -139.5t-130 -94t-163 -34.5zM688 412q0 48 -15 89.5t-44 73t-71.5 49.5t-97.5 18
q-69 0 -125.5 -29.5t-96.5 -78t-61.5 -110.5t-21.5 -127q0 -47 15 -89t43.5 -73.5t71 -49.5t98.5 -18q70 0 126.5 29t96 77.5t61 110.5t21.5 128zM493 764h-74l125 144h111z" />
    <glyph glyph-name="Ocircumflex" unicode="&#xd4;" horiz-adv-x="831" 
d="M381 -18q-74 0 -134.5 21.5t-103.5 61.5t-66.5 96.5t-23.5 126.5q0 91 31.5 170.5t87 139t130.5 94t163 34.5q72 0 132 -21.5t103 -61.5t66.5 -96t23.5 -126q0 -91 -30.5 -171t-85.5 -139.5t-130 -94t-163 -34.5zM688 412q0 48 -15 89.5t-44 73t-71.5 49.5t-97.5 18
q-69 0 -125.5 -29.5t-96.5 -78t-61.5 -110.5t-21.5 -127q0 -47 15 -89t43.5 -73.5t71 -49.5t98.5 -18q70 0 126.5 29t96 77.5t61 110.5t21.5 128zM663 764h-86l-59 99l-94 -99h-91l138 144h106z" />
    <glyph glyph-name="Otilde" unicode="&#xd5;" horiz-adv-x="831" 
d="M381 -18q-74 0 -134.5 21.5t-103.5 61.5t-66.5 96.5t-23.5 126.5q0 91 31.5 170.5t87 139t130.5 94t163 34.5q72 0 132 -21.5t103 -61.5t66.5 -96t23.5 -126q0 -91 -30.5 -171t-85.5 -139.5t-130 -94t-163 -34.5zM688 412q0 48 -15 89.5t-44 73t-71.5 49.5t-97.5 18
q-69 0 -125.5 -29.5t-96.5 -78t-61.5 -110.5t-21.5 -127q0 -47 15 -89t43.5 -73.5t71 -49.5t98.5 -18q70 0 126.5 29t96 77.5t61 110.5t21.5 128zM315 772q7 22 18 42.5t25.5 36.5t34 26t45.5 10q20 0 37.5 -6t34.5 -15q17 -8 33 -14.5t30 -6.5q21 0 34 15t21 32h55
q-8 -22 -18.5 -42.5t-25.5 -36.5t-34.5 -26t-44.5 -10q-18 0 -35 6t-34 14q-17 9 -33.5 15.5t-31.5 6.5q-22 0 -35 -15t-21 -32h-55z" />
    <glyph glyph-name="Odieresis" unicode="&#xd6;" horiz-adv-x="831" 
d="M381 -18q-74 0 -134.5 21.5t-103.5 61.5t-66.5 96.5t-23.5 126.5q0 91 31.5 170.5t87 139t130.5 94t163 34.5q72 0 132 -21.5t103 -61.5t66.5 -96t23.5 -126q0 -91 -30.5 -171t-85.5 -139.5t-130 -94t-163 -34.5zM688 412q0 48 -15 89.5t-44 73t-71.5 49.5t-97.5 18
q-69 0 -125.5 -29.5t-96.5 -78t-61.5 -110.5t-21.5 -127q0 -47 15 -89t43.5 -73.5t71 -49.5t98.5 -18q70 0 126.5 29t96 77.5t61 110.5t21.5 128zM661 847q0 -25 -16.5 -42.5t-42.5 -17.5q-24 0 -41 15t-17 42t18 44t43 17q24 0 40 -15.5t16 -42.5zM463 847
q0 -25 -16.5 -42.5t-41.5 -17.5t-42 15t-17 42t18.5 44t42.5 17t40 -15.5t16 -42.5z" />
    <glyph glyph-name="multiply" unicode="&#xd7;" horiz-adv-x="666" 
d="M333 360l170 171l57 -56l-170 -171l172 -173l-59 -58l-171 170l-170 -170l-58 58l172 170l-171 174l57 56z" />
    <glyph glyph-name="Oslash" unicode="&#xd8;" horiz-adv-x="831" 
d="M772 737l36 -39l-84 -80q32 -38 49 -87.5t17 -109.5q0 -91 -30.5 -171t-85.5 -139.5t-130 -94t-163 -34.5q-74 0 -134.5 21.5t-104.5 62.5l-94 -89l-39 38l97 92q-26 37 -39.5 82t-13.5 99q0 91 31.5 170.5t87 139t130.5 94t163 34.5q66 0 122 -18t99 -52zM214 134
q29 -31 71 -49t98 -18q70 0 126.5 29t96 77.5t61 110.5t21.5 128q0 78 -38 136zM615 588q-28 26 -67 40t-88 14q-69 0 -125.5 -29.5t-96.5 -78t-61.5 -110.5t-21.5 -127q0 -32 7 -62t21 -56z" />
    <glyph glyph-name="Ugrave" unicode="&#xd9;" horiz-adv-x="712" 
d="M317 -18q-63 0 -109.5 17t-77.5 47t-46.5 69.5t-15.5 84.5q0 30 6 62l78 446h98l-78 -440q-5 -28 -5 -53q0 -30 8 -56.5t26.5 -47t47.5 -32.5t71 -12q52 0 88 17t60 45.5t37.5 64.5t20.5 74l77 440h98l-78 -446q-10 -54 -31.5 -104.5t-58 -89.5t-90 -62.5t-126.5 -23.5z
M265 908h110l100 -144h-73z" />
    <glyph glyph-name="Uacute" unicode="&#xda;" horiz-adv-x="712" 
d="M317 -18q-63 0 -109.5 17t-77.5 47t-46.5 69.5t-15.5 84.5q0 30 6 62l78 446h98l-78 -440q-5 -28 -5 -53q0 -30 8 -56.5t26.5 -47t47.5 -32.5t71 -12q52 0 88 17t60 45.5t37.5 64.5t20.5 74l77 440h98l-78 -446q-10 -54 -31.5 -104.5t-58 -89.5t-90 -62.5t-126.5 -23.5z
M443 764h-74l125 144h111z" />
    <glyph glyph-name="Ucircumflex" unicode="&#xdb;" horiz-adv-x="712" 
d="M317 -18q-63 0 -109.5 17t-77.5 47t-46.5 69.5t-15.5 84.5q0 30 6 62l78 446h98l-78 -440q-5 -28 -5 -53q0 -30 8 -56.5t26.5 -47t47.5 -32.5t71 -12q52 0 88 17t60 45.5t37.5 64.5t20.5 74l77 440h98l-78 -446q-10 -54 -31.5 -104.5t-58 -89.5t-90 -62.5t-126.5 -23.5z
M601 764h-86l-59 99l-94 -99h-91l138 144h106z" />
    <glyph glyph-name="Udieresis" unicode="&#xdc;" horiz-adv-x="712" 
d="M317 -18q-63 0 -109.5 17t-77.5 47t-46.5 69.5t-15.5 84.5q0 30 6 62l78 446h98l-78 -440q-5 -28 -5 -53q0 -30 8 -56.5t26.5 -47t47.5 -32.5t71 -12q52 0 88 17t60 45.5t37.5 64.5t20.5 74l77 440h98l-78 -446q-10 -54 -31.5 -104.5t-58 -89.5t-90 -62.5t-126.5 -23.5z
M604 847q0 -25 -16.5 -42.5t-42.5 -17.5q-24 0 -41 15t-17 42t18 44t43 17q24 0 40 -15.5t16 -42.5zM406 847q0 -25 -16.5 -42.5t-41.5 -17.5t-42 15t-17 42t18.5 44t42.5 17t40 -15.5t16 -42.5z" />
    <glyph glyph-name="Yacute" unicode="&#xdd;" horiz-adv-x="560" 
d="M268 0h-98l54 306l-178 402h111l130 -322l259 322h120l-344 -402zM387 764h-74l125 144h111z" />
    <glyph glyph-name="Thorn" unicode="&#xde;" horiz-adv-x="595" 
d="M130 0h-97l125 708h97l-26 -146h105q110 0 169.5 -47t59.5 -131q0 -55 -20.5 -96t-58 -68.5t-89.5 -41t-115 -13.5h-121zM173 247h112q85 0 132.5 31.5t47.5 94.5q0 59 -39 82.5t-105 23.5h-106z" />
    <glyph glyph-name="germandbls" unicode="&#xdf;" horiz-adv-x="610" 
d="M117 0h-92l93 526q8 45 24.5 88.5t45.5 77.5t72 55t105 21q42 0 77.5 -12t61 -34.5t40 -53.5t14.5 -70q0 -68 -40 -111.5t-100 -58.5v-2q31 -7 56 -23.5t42.5 -39.5t27 -52t9.5 -62q0 -59 -20.5 -107t-58 -82t-89 -53t-112.5 -19q-17 0 -38.5 2t-38.5 6l14 78
q11 -3 29 -5t31 -2q37 0 70.5 10.5t59.5 32.5t41.5 56t15.5 81q0 30 -11.5 55t-31.5 43t-47.5 27.5t-59.5 9.5h-11l15 81h11q27 0 52.5 7.5t45.5 23t32 39t12 55.5q0 44 -27.5 71t-75.5 27q-40 0 -67 -15.5t-44 -39.5t-26.5 -53t-13.5 -56z" />
    <glyph glyph-name="agrave" unicode="&#xe0;" horiz-adv-x="537" 
d="M370 296q2 14 3 22t1 15q0 42 -26 60.5t-74 18.5q-38 0 -76 -15t-66 -37l-38 62q38 30 89 47.5t104 17.5q34 0 65.5 -7.5t56 -24t39.5 -43.5t15 -65q0 -9 -1 -23.5t-3 -24.5l-35 -192q-5 -28 -8 -57.5t-3 -49.5h-85q0 15 1.5 32t4.5 34h-2q-34 -40 -74 -58t-94 -18
q-24 0 -50 6t-47.5 20.5t-35.5 38.5t-14 60q0 58 32 93.5t82.5 55t113.5 26t125 6.5zM345 228q-39 0 -81 -3.5t-76.5 -14t-56.5 -30.5t-22 -52q0 -20 7.5 -32.5t20 -20.5t28 -11t31.5 -3q31 0 58 10.5t47 28.5t33.5 42t18.5 51l7 35h-15zM143 708h110l100 -144h-73z" />
    <glyph glyph-name="aacute" unicode="&#xe1;" horiz-adv-x="537" 
d="M370 296q2 14 3 22t1 15q0 42 -26 60.5t-74 18.5q-38 0 -76 -15t-66 -37l-38 62q38 30 89 47.5t104 17.5q34 0 65.5 -7.5t56 -24t39.5 -43.5t15 -65q0 -9 -1 -23.5t-3 -24.5l-35 -192q-5 -28 -8 -57.5t-3 -49.5h-85q0 15 1.5 32t4.5 34h-2q-34 -40 -74 -58t-94 -18
q-24 0 -50 6t-47.5 20.5t-35.5 38.5t-14 60q0 58 32 93.5t82.5 55t113.5 26t125 6.5zM345 228q-39 0 -81 -3.5t-76.5 -14t-56.5 -30.5t-22 -52q0 -20 7.5 -32.5t20 -20.5t28 -11t31.5 -3q31 0 58 10.5t47 28.5t33.5 42t18.5 51l7 35h-15zM324 564h-74l125 144h111z" />
    <glyph glyph-name="acircumflex" unicode="&#xe2;" horiz-adv-x="537" 
d="M370 296q2 14 3 22t1 15q0 42 -26 60.5t-74 18.5q-38 0 -76 -15t-66 -37l-38 62q38 30 89 47.5t104 17.5q34 0 65.5 -7.5t56 -24t39.5 -43.5t15 -65q0 -9 -1 -23.5t-3 -24.5l-35 -192q-5 -28 -8 -57.5t-3 -49.5h-85q0 15 1.5 32t4.5 34h-2q-34 -40 -74 -58t-94 -18
q-24 0 -50 6t-47.5 20.5t-35.5 38.5t-14 60q0 58 32 93.5t82.5 55t113.5 26t125 6.5zM345 228q-39 0 -81 -3.5t-76.5 -14t-56.5 -30.5t-22 -52q0 -20 7.5 -32.5t20 -20.5t28 -11t31.5 -3q31 0 58 10.5t47 28.5t33.5 42t18.5 51l7 35h-15zM477 564h-86l-59 99l-94 -99h-91
l138 144h106z" />
    <glyph glyph-name="atilde" unicode="&#xe3;" horiz-adv-x="537" 
d="M370 296q2 14 3 22t1 15q0 42 -26 60.5t-74 18.5q-38 0 -76 -15t-66 -37l-38 62q38 30 89 47.5t104 17.5q34 0 65.5 -7.5t56 -24t39.5 -43.5t15 -65q0 -9 -1 -23.5t-3 -24.5l-35 -192q-5 -28 -8 -57.5t-3 -49.5h-85q0 15 1.5 32t4.5 34h-2q-34 -40 -74 -58t-94 -18
q-24 0 -50 6t-47.5 20.5t-35.5 38.5t-14 60q0 58 32 93.5t82.5 55t113.5 26t125 6.5zM345 228q-39 0 -81 -3.5t-76.5 -14t-56.5 -30.5t-22 -52q0 -20 7.5 -32.5t20 -20.5t28 -11t31.5 -3q31 0 58 10.5t47 28.5t33.5 42t18.5 51l7 35h-15zM132 572q7 22 18 42.5t25.5 36.5
t34 26t45.5 10q20 0 37.5 -6t34.5 -15q17 -8 33 -14.5t30 -6.5q21 0 34 15t21 32h55q-8 -22 -18.5 -42.5t-25.5 -36.5t-34.5 -26t-44.5 -10q-18 0 -35 6t-34 14q-17 9 -33.5 15.5t-31.5 6.5q-22 0 -35 -15t-21 -32h-55z" />
    <glyph glyph-name="adieresis" unicode="&#xe4;" horiz-adv-x="537" 
d="M370 296q2 14 3 22t1 15q0 42 -26 60.5t-74 18.5q-38 0 -76 -15t-66 -37l-38 62q38 30 89 47.5t104 17.5q34 0 65.5 -7.5t56 -24t39.5 -43.5t15 -65q0 -9 -1 -23.5t-3 -24.5l-35 -192q-5 -28 -8 -57.5t-3 -49.5h-85q0 15 1.5 32t4.5 34h-2q-34 -40 -74 -58t-94 -18
q-24 0 -50 6t-47.5 20.5t-35.5 38.5t-14 60q0 58 32 93.5t82.5 55t113.5 26t125 6.5zM345 228q-39 0 -81 -3.5t-76.5 -14t-56.5 -30.5t-22 -52q0 -20 7.5 -32.5t20 -20.5t28 -11t31.5 -3q31 0 58 10.5t47 28.5t33.5 42t18.5 51l7 35h-15zM278 647q0 -25 -16.5 -42.5
t-41.5 -17.5t-42 15t-17 42t18.5 44t42.5 17t40 -15.5t16 -42.5zM476 647q0 -25 -16.5 -42.5t-42.5 -17.5q-24 0 -41 15t-17 42t18 44t43 17q24 0 40 -15.5t16 -42.5z" />
    <glyph glyph-name="aring" unicode="&#xe5;" horiz-adv-x="537" 
d="M370 296q2 14 3 22t1 15q0 42 -26 60.5t-74 18.5q-38 0 -76 -15t-66 -37l-38 62q38 30 89 47.5t104 17.5q34 0 65.5 -7.5t56 -24t39.5 -43.5t15 -65q0 -9 -1 -23.5t-3 -24.5l-35 -192q-5 -28 -8 -57.5t-3 -49.5h-85q0 15 1.5 32t4.5 34h-2q-34 -40 -74 -58t-94 -18
q-24 0 -50 6t-47.5 20.5t-35.5 38.5t-14 60q0 58 32 93.5t82.5 55t113.5 26t125 6.5zM345 228q-39 0 -81 -3.5t-76.5 -14t-56.5 -30.5t-22 -52q0 -20 7.5 -32.5t20 -20.5t28 -11t31.5 -3q31 0 58 10.5t47 28.5t33.5 42t18.5 51l7 35h-15zM308 553q-38 0 -62.5 24t-24.5 59
q0 24 8 44.5t23 36.5t35.5 25t44.5 9q39 0 63 -23t24 -59q0 -49 -31 -82.5t-80 -33.5zM378 663q0 21 -13 36t-36 15q-29 0 -47.5 -21t-18.5 -52q0 -21 12.5 -35.5t35.5 -14.5q29 0 48 21t19 51z" />
    <glyph glyph-name="ae" unicode="&#xe6;" horiz-adv-x="885" 
d="M446 400q27 36 75 61.5t105 25.5q91 0 144.5 -49.5t53.5 -138.5q0 -14 -2.5 -40.5t-8.5 -49.5h-366q-1 -5 -1.5 -8.5t-0.5 -7.5q0 -57 37.5 -93t96.5 -36q51 0 87 20.5t62 51.5l55 -52q-86 -97 -214 -97q-63 0 -112.5 29t-69.5 79q-25 -43 -74.5 -74t-130.5 -31
q-27 0 -56.5 6t-53.5 20.5t-39.5 38.5t-15.5 61q0 55 31.5 87t82 48.5t113.5 21t127 4.5q3 14 5.5 31t2.5 24q0 45 -27 62.5t-72 17.5q-38 0 -76.5 -15t-66.5 -37l-38 62q38 30 89.5 47.5t103.5 17.5q60 0 100 -21.5t54 -65.5zM336 209q-47 0 -88.5 -3t-72 -12t-48 -25
t-17.5 -41q0 -20 7.5 -32.5t19.5 -20.5t28 -11t33 -3q67 0 108 36t51 94l3 18h-24zM735 277q1 7 1.5 15t0.5 15q0 46 -30.5 76.5t-87.5 30.5q-33 0 -60 -12t-48 -31t-34.5 -44t-19.5 -50h278z" />
    <glyph glyph-name="ccedilla" unicode="&#xe7;" horiz-adv-x="496" 
d="M419 353q-12 24 -40.5 40.5t-63.5 16.5q-41 0 -75.5 -16.5t-59.5 -45t-39 -66t-14 -79.5q0 -29 8.5 -54t25.5 -43.5t42.5 -29.5t59.5 -11q45 0 76 16t54 41l56 -52q-37 -37 -82 -59t-103 -24l-48 -57q8 2 14 2.5t12 0.5q13 0 27.5 -3.5t26.5 -12t20 -22t8 -33.5
q0 -27 -13 -46t-32.5 -30t-42.5 -16t-44 -5q-26 0 -55 6t-49 17l24 42q17 -8 36.5 -12.5t39.5 -4.5q10 0 21 2t21 6.5t16.5 13t6.5 21.5q0 21 -14.5 29t-33.5 8q-10 0 -21 -2t-21 -5l-17 20l70 84q-85 11 -134 65t-49 137q0 59 20.5 112.5t58 94t90.5 64.5t118 24
q26 0 51.5 -5t48 -14.5t41 -24.5t30.5 -36z" />
    <glyph glyph-name="egrave" unicode="&#xe8;" horiz-adv-x="565" 
d="M122 209q-1 -5 -1 -8.5v-7.5q0 -28 10.5 -51.5t29 -41t44 -27t54.5 -9.5q51 0 87.5 20.5t61.5 51.5l55 -52q-42 -48 -96 -72.5t-117 -24.5q-47 0 -87.5 14t-70 41t-46 66t-16.5 89q0 59 21 112t58 92.5t88 62.5t110 23q91 0 144 -49.5t53 -138.5q0 -14 -2.5 -40.5
t-7.5 -49.5h-372zM415 277q1 7 1.5 15t0.5 15q0 46 -30 76.5t-87 30.5q-34 0 -62 -12t-49.5 -31t-36 -44t-20.5 -50h283zM166 708h110l100 -144h-73z" />
    <glyph glyph-name="eacute" unicode="&#xe9;" horiz-adv-x="565" 
d="M122 209q-1 -5 -1 -8.5v-7.5q0 -28 10.5 -51.5t29 -41t44 -27t54.5 -9.5q51 0 87.5 20.5t61.5 51.5l55 -52q-42 -48 -96 -72.5t-117 -24.5q-47 0 -87.5 14t-70 41t-46 66t-16.5 89q0 59 21 112t58 92.5t88 62.5t110 23q91 0 144 -49.5t53 -138.5q0 -14 -2.5 -40.5
t-7.5 -49.5h-372zM415 277q1 7 1.5 15t0.5 15q0 46 -30 76.5t-87 30.5q-34 0 -62 -12t-49.5 -31t-36 -44t-20.5 -50h283zM330 564h-74l125 144h111z" />
    <glyph glyph-name="ecircumflex" unicode="&#xea;" horiz-adv-x="565" 
d="M122 209q-1 -5 -1 -8.5v-7.5q0 -28 10.5 -51.5t29 -41t44 -27t54.5 -9.5q51 0 87.5 20.5t61.5 51.5l55 -52q-42 -48 -96 -72.5t-117 -24.5q-47 0 -87.5 14t-70 41t-46 66t-16.5 89q0 59 21 112t58 92.5t88 62.5t110 23q91 0 144 -49.5t53 -138.5q0 -14 -2.5 -40.5
t-7.5 -49.5h-372zM415 277q1 7 1.5 15t0.5 15q0 46 -30 76.5t-87 30.5q-34 0 -62 -12t-49.5 -31t-36 -44t-20.5 -50h283zM499 564h-86l-59 99l-94 -99h-91l138 144h106z" />
    <glyph glyph-name="edieresis" unicode="&#xeb;" horiz-adv-x="565" 
d="M122 209q-1 -5 -1 -8.5v-7.5q0 -28 10.5 -51.5t29 -41t44 -27t54.5 -9.5q51 0 87.5 20.5t61.5 51.5l55 -52q-42 -48 -96 -72.5t-117 -24.5q-47 0 -87.5 14t-70 41t-46 66t-16.5 89q0 59 21 112t58 92.5t88 62.5t110 23q91 0 144 -49.5t53 -138.5q0 -14 -2.5 -40.5
t-7.5 -49.5h-372zM415 277q1 7 1.5 15t0.5 15q0 46 -30 76.5t-87 30.5q-34 0 -62 -12t-49.5 -31t-36 -44t-20.5 -50h283zM302 647q0 -25 -16.5 -42.5t-41.5 -17.5t-42 15t-17 42t18.5 44t42.5 17t40 -15.5t16 -42.5zM500 647q0 -25 -16.5 -42.5t-42.5 -17.5q-24 0 -41 15
t-17 42t18 44t43 17q24 0 40 -15.5t16 -42.5z" />
    <glyph glyph-name="igrave" unicode="&#xec;" horiz-adv-x="259" 
d="M121 0h-92l83 474h93zM1 708h110l100 -144h-73z" />
    <glyph glyph-name="iacute" unicode="&#xed;" horiz-adv-x="259" 
d="M121 0h-92l83 474h93zM189 563h-74l125 144h111z" />
    <glyph glyph-name="icircumflex" unicode="&#xee;" horiz-adv-x="259" 
d="M121 0h-92l83 474h93zM337 564h-86l-59 99l-94 -99h-91l138 144h106z" />
    <glyph glyph-name="idieresis" unicode="&#xef;" horiz-adv-x="259" 
d="M121 0h-92l83 474h93zM148 647q0 -25 -16.5 -42.5t-41.5 -17.5t-42 15t-17 42t18.5 44t42.5 17t40 -15.5t16 -42.5zM346 647q0 -25 -16.5 -42.5t-42.5 -17.5q-24 0 -41 15t-17 42t18 44t43 17q24 0 40 -15.5t16 -42.5z" />
    <glyph glyph-name="eth" unicode="&#xf0;" horiz-adv-x="600" 
d="M315 487q83 0 129 -46l3 2q-17 47 -44.5 94t-65.5 84l-119 -54l-40 47l120 53q-17 19 -37.5 37t-39.5 33l79 45q23 -20 44.5 -40.5t35.5 -37.5l117 53l43 -45l-119 -54q57 -66 91.5 -152.5t34.5 -187.5q0 -60 -16 -119t-50.5 -106.5t-89 -76.5t-132.5 -29q-49 0 -90 15
t-71 42.5t-46.5 65.5t-16.5 84q0 57 20 110t56.5 93.5t88.5 65t115 24.5zM449 273q0 29 -9.5 54t-27 43.5t-42.5 29t-57 10.5q-41 0 -74.5 -17t-58 -45.5t-38 -66t-13.5 -79.5q0 -60 35.5 -98.5t99.5 -38.5q41 0 75 16.5t58.5 45t38 66.5t13.5 80z" />
    <glyph glyph-name="ntilde" unicode="&#xf1;" 
d="M196 474q-2 -14 -4.5 -37.5t-5.5 -39.5h2q26 41 66.5 65.5t91.5 24.5q78 0 118.5 -41.5t40.5 -104.5q0 -25 -4 -48l-52 -293h-93l46 262q6 27 6 53q0 41 -20 67t-72 26q-56 0 -97 -42.5t-54 -113.5l-44 -252h-93l65 371q4 19 8.5 49t6.5 54h88zM160 572q7 22 18 42.5
t25.5 36.5t34 26t45.5 10q20 0 37.5 -6t34.5 -15q17 -8 33 -14.5t30 -6.5q21 0 34 15t21 32h55q-8 -22 -18.5 -42.5t-25.5 -36.5t-34.5 -26t-44.5 -10q-18 0 -35 6t-34 14q-17 9 -33.5 15.5t-31.5 6.5q-22 0 -35 -15t-21 -32h-55z" />
    <glyph glyph-name="ograve" unicode="&#xf2;" horiz-adv-x="600" 
d="M255 -13q-49 0 -90 15t-71 42.5t-47 65.5t-17 84q0 59 20.5 112t58 93.5t90 64t116.5 23.5q49 0 90 -15t71 -42t46.5 -64.5t16.5 -83.5q0 -60 -20.5 -113.5t-58 -94t-89.5 -64t-116 -23.5zM445 273q0 29 -9.5 54t-27 43.5t-43 29t-56.5 10.5q-41 0 -75 -17t-58.5 -45.5
t-38 -66t-13.5 -79.5q0 -60 36 -98.5t100 -38.5q41 0 75 16.5t58.5 45t38 66.5t13.5 80zM176 708h110l100 -144h-73z" />
    <glyph glyph-name="oacute" unicode="&#xf3;" horiz-adv-x="600" 
d="M255 -13q-49 0 -90 15t-71 42.5t-47 65.5t-17 84q0 59 20.5 112t58 93.5t90 64t116.5 23.5q49 0 90 -15t71 -42t46.5 -64.5t16.5 -83.5q0 -60 -20.5 -113.5t-58 -94t-89.5 -64t-116 -23.5zM445 273q0 29 -9.5 54t-27 43.5t-43 29t-56.5 10.5q-41 0 -75 -17t-58.5 -45.5
t-38 -66t-13.5 -79.5q0 -60 36 -98.5t100 -38.5q41 0 75 16.5t58.5 45t38 66.5t13.5 80zM349 564h-74l125 144h111z" />
    <glyph glyph-name="ocircumflex" unicode="&#xf4;" horiz-adv-x="600" 
d="M255 -13q-49 0 -90 15t-71 42.5t-47 65.5t-17 84q0 59 20.5 112t58 93.5t90 64t116.5 23.5q49 0 90 -15t71 -42t46.5 -64.5t16.5 -83.5q0 -60 -20.5 -113.5t-58 -94t-89.5 -64t-116 -23.5zM445 273q0 29 -9.5 54t-27 43.5t-43 29t-56.5 10.5q-41 0 -75 -17t-58.5 -45.5
t-38 -66t-13.5 -79.5q0 -60 36 -98.5t100 -38.5q41 0 75 16.5t58.5 45t38 66.5t13.5 80zM515 564h-86l-59 99l-94 -99h-91l138 144h106z" />
    <glyph glyph-name="otilde" unicode="&#xf5;" horiz-adv-x="600" 
d="M255 -13q-49 0 -90 15t-71 42.5t-47 65.5t-17 84q0 59 20.5 112t58 93.5t90 64t116.5 23.5q49 0 90 -15t71 -42t46.5 -64.5t16.5 -83.5q0 -60 -20.5 -113.5t-58 -94t-89.5 -64t-116 -23.5zM445 273q0 29 -9.5 54t-27 43.5t-43 29t-56.5 10.5q-41 0 -75 -17t-58.5 -45.5
t-38 -66t-13.5 -79.5q0 -60 36 -98.5t100 -38.5q41 0 75 16.5t58.5 45t38 66.5t13.5 80zM165 572q7 22 18 42.5t25.5 36.5t34 26t45.5 10q20 0 37.5 -6t34.5 -15q17 -8 33 -14.5t30 -6.5q21 0 34 15t21 32h55q-8 -22 -18.5 -42.5t-25.5 -36.5t-34.5 -26t-44.5 -10
q-18 0 -35 6t-34 14q-17 9 -33.5 15.5t-31.5 6.5q-22 0 -35 -15t-21 -32h-55z" />
    <glyph glyph-name="odieresis" unicode="&#xf6;" horiz-adv-x="600" 
d="M255 -13q-49 0 -90 15t-71 42.5t-47 65.5t-17 84q0 59 20.5 112t58 93.5t90 64t116.5 23.5q49 0 90 -15t71 -42t46.5 -64.5t16.5 -83.5q0 -60 -20.5 -113.5t-58 -94t-89.5 -64t-116 -23.5zM445 273q0 29 -9.5 54t-27 43.5t-43 29t-56.5 10.5q-41 0 -75 -17t-58.5 -45.5
t-38 -66t-13.5 -79.5q0 -60 36 -98.5t100 -38.5q41 0 75 16.5t58.5 45t38 66.5t13.5 80zM312 647q0 -25 -16.5 -42.5t-41.5 -17.5t-42 15t-17 42t18.5 44t42.5 17t40 -15.5t16 -42.5zM510 647q0 -25 -16.5 -42.5t-42.5 -17.5q-24 0 -41 15t-17 42t18 44t43 17q24 0 40 -15.5
t16 -42.5z" />
    <glyph glyph-name="divide" unicode="&#xf7;" horiz-adv-x="666" 
d="M596 262h-526v82h526v-82zM398 132q0 -26 -18.5 -45.5t-46.5 -19.5t-46.5 19.5t-18.5 45.5t18.5 45.5t46.5 19.5t46.5 -19.5t18.5 -45.5zM398 469q0 -26 -18.5 -45.5t-46.5 -19.5t-46.5 19.5t-18.5 45.5t18.5 45.5t46.5 19.5t46.5 -19.5t18.5 -45.5z" />
    <glyph glyph-name="oslash" unicode="&#xf8;" horiz-adv-x="600" 
d="M497 408q42 -53 42 -126q0 -60 -20.5 -113.5t-58 -94t-89.5 -64t-116 -23.5q-45 0 -83 12.5t-67 35.5l-60 -58l-39 38l62 59q-18 24 -28 54.5t-10 65.5q0 59 20.5 112t58 93.5t90 64t116.5 23.5q84 0 143 -42l57 54l36 -39zM169 95q36 -30 91 -30q41 0 75 16.5t58.5 45
t38 66.5t13.5 80q0 39 -17 70zM394 384q-17 12 -38 19t-47 7q-41 0 -75 -17t-58.5 -45.5t-38 -66t-13.5 -79.5q0 -37 13 -63z" />
    <glyph glyph-name="ugrave" unicode="&#xf9;" 
d="M352 0q2 14 5 37.5t5 39.5h-2q-26 -41 -66.5 -65.5t-91.5 -24.5q-78 0 -118.5 41.5t-40.5 105.5q0 11 1.5 23t3.5 24l52 293h92l-46 -261q-2 -14 -3.5 -27.5t-1.5 -26.5q0 -41 20 -67t71 -26q56 0 97.5 42.5t53.5 113.5l45 252h92l-65 -371q-4 -19 -8.5 -49t-6.5 -54h-88
zM162 708h110l100 -144h-73z" />
    <glyph glyph-name="uacute" unicode="&#xfa;" 
d="M352 0q2 14 5 37.5t5 39.5h-2q-26 -41 -66.5 -65.5t-91.5 -24.5q-78 0 -118.5 41.5t-40.5 105.5q0 11 1.5 23t3.5 24l52 293h92l-46 -261q-2 -14 -3.5 -27.5t-1.5 -26.5q0 -41 20 -67t71 -26q56 0 97.5 42.5t53.5 113.5l45 252h92l-65 -371q-4 -19 -8.5 -49t-6.5 -54h-88
zM344 564h-74l125 144h111z" />
    <glyph glyph-name="ucircumflex" unicode="&#xfb;" 
d="M352 0q2 14 5 37.5t5 39.5h-2q-26 -41 -66.5 -65.5t-91.5 -24.5q-78 0 -118.5 41.5t-40.5 105.5q0 11 1.5 23t3.5 24l52 293h92l-46 -261q-2 -14 -3.5 -27.5t-1.5 -26.5q0 -41 20 -67t71 -26q56 0 97.5 42.5t53.5 113.5l45 252h92l-65 -371q-4 -19 -8.5 -49t-6.5 -54h-88
zM490 564h-86l-59 99l-94 -99h-91l138 144h106z" />
    <glyph glyph-name="udieresis" unicode="&#xfc;" 
d="M352 0q2 14 5 37.5t5 39.5h-2q-26 -41 -66.5 -65.5t-91.5 -24.5q-78 0 -118.5 41.5t-40.5 105.5q0 11 1.5 23t3.5 24l52 293h92l-46 -261q-2 -14 -3.5 -27.5t-1.5 -26.5q0 -41 20 -67t71 -26q56 0 97.5 42.5t53.5 113.5l45 252h92l-65 -371q-4 -19 -8.5 -49t-6.5 -54h-88
zM297 647q0 -25 -16.5 -42.5t-41.5 -17.5t-42 15t-17 42t18.5 44t42.5 17t40 -15.5t16 -42.5zM495 647q0 -25 -16.5 -42.5t-42.5 -17.5q-24 0 -41 15t-17 42t18 44t43 17q24 0 40 -15.5t16 -42.5z" />
    <glyph glyph-name="yacute" unicode="&#xfd;" horiz-adv-x="495" 
d="M207 101h2l210 373h100l-347 -586q-18 -30 -35 -53.5t-37 -40t-44 -25.5t-54 -9q-31 0 -59 7l13 82q22 -8 44 -8q32 0 53 20.5t44 58.5l47 80l-104 474h99zM308 564h-74l125 144h111z" />
    <glyph glyph-name="thorn" unicode="&#xfe;" horiz-adv-x="633" 
d="M192 398q25 38 71 63t101 25q47 0 85 -15t65 -42t42 -64.5t15 -83.5q0 -61 -20.5 -114.5t-56.5 -93.5t-85.5 -63t-107.5 -23t-100.5 24t-64.5 66h-2l-55 -317h-93l175 996h93l-64 -358h2zM475 272q0 58 -34 97.5t-98 39.5q-39 0 -73.5 -16.5t-60 -45t-40 -66.5t-14.5 -80
q0 -30 9.5 -55.5t27.5 -43.5t43.5 -28.5t56.5 -10.5q41 0 75 16.5t58 44.5t37 66t13 82z" />
    <glyph glyph-name="ydieresis" unicode="&#xff;" horiz-adv-x="495" 
d="M207 101h2l210 373h100l-347 -586q-18 -30 -35 -53.5t-37 -40t-44 -25.5t-54 -9q-31 0 -59 7l13 82q22 -8 44 -8q32 0 53 20.5t44 58.5l47 80l-104 474h99zM263 647q0 -25 -16.5 -42.5t-41.5 -17.5t-42 15t-17 42t18.5 44t42.5 17t40 -15.5t16 -42.5zM461 647
q0 -25 -16.5 -42.5t-42.5 -17.5q-24 0 -41 15t-17 42t18 44t43 17q24 0 40 -15.5t16 -42.5z" />
    <glyph glyph-name="Amacron" unicode="&#x100;" horiz-adv-x="681" 
d="M47 0h-115l459 708h89l144 -708h-103l-34 174h-332zM206 261h267l-60 336zM594 797h-294l11 66h295z" />
    <glyph glyph-name="amacron" unicode="&#x101;" horiz-adv-x="537" 
d="M370 296q2 14 3 22t1 15q0 42 -26 60.5t-74 18.5q-38 0 -76 -15t-66 -37l-38 62q38 30 89 47.5t104 17.5q34 0 65.5 -7.5t56 -24t39.5 -43.5t15 -65q0 -9 -1 -23.5t-3 -24.5l-35 -192q-5 -28 -8 -57.5t-3 -49.5h-85q0 15 1.5 32t4.5 34h-2q-34 -40 -74 -58t-94 -18
q-24 0 -50 6t-47.5 20.5t-35.5 38.5t-14 60q0 58 32 93.5t82.5 55t113.5 26t125 6.5zM345 228q-39 0 -81 -3.5t-76.5 -14t-56.5 -30.5t-22 -52q0 -20 7.5 -32.5t20 -20.5t28 -11t31.5 -3q31 0 58 10.5t47 28.5t33.5 42t18.5 51l7 35h-15zM457 597h-294l11 66h295z" />
    <glyph glyph-name="Abreve" unicode="&#x102;" horiz-adv-x="681" 
d="M47 0h-115l459 708h89l144 -708h-103l-34 174h-332zM206 261h267l-60 336zM618 908q-14 -66 -61.5 -102t-113.5 -36t-104 33.5t-38 104.5h56q0 -20 7 -34t19 -22.5t28.5 -12t35.5 -3.5q42 0 73.5 15.5t42.5 56.5h55z" />
    <glyph glyph-name="abreve" unicode="&#x103;" horiz-adv-x="537" 
d="M370 296q2 14 3 22t1 15q0 42 -26 60.5t-74 18.5q-38 0 -76 -15t-66 -37l-38 62q38 30 89 47.5t104 17.5q34 0 65.5 -7.5t56 -24t39.5 -43.5t15 -65q0 -9 -1 -23.5t-3 -24.5l-35 -192q-5 -28 -8 -57.5t-3 -49.5h-85q0 15 1.5 32t4.5 34h-2q-34 -40 -74 -58t-94 -18
q-24 0 -50 6t-47.5 20.5t-35.5 38.5t-14 60q0 58 32 93.5t82.5 55t113.5 26t125 6.5zM345 228q-39 0 -81 -3.5t-76.5 -14t-56.5 -30.5t-22 -52q0 -20 7.5 -32.5t20 -20.5t28 -11t31.5 -3q31 0 58 10.5t47 28.5t33.5 42t18.5 51l7 35h-15zM478 708q-14 -66 -61.5 -102
t-113.5 -36t-104 33.5t-38 104.5h56q0 -20 7 -34t19 -22.5t28.5 -12t35.5 -3.5q42 0 73.5 15.5t42.5 56.5h55z" />
    <glyph glyph-name="Aogonek" unicode="&#x104;" horiz-adv-x="681" 
d="M585 -191q-23 -17 -48 -27t-51 -10q-35 0 -59 18.5t-24 56.5q0 24 11 46t28.5 42t38 36.5t39.5 30.5l-33 172h-332l-108 -174h-115l459 708h89l144 -708h-52q-19 -16 -37 -32.5t-31.5 -33.5t-21.5 -34t-8 -33q0 -20 12 -27.5t29 -7.5q30 0 56 21zM206 261h267l-60 336z
" />
    <glyph glyph-name="aogonek" unicode="&#x105;" horiz-adv-x="537" 
d="M392 -191q-23 -17 -48 -27t-51 -10q-35 0 -59 18.5t-24 56.5q0 24 11.5 46.5t28.5 42t38 36.5t40 30q0 32 6 64h-2q-34 -40 -74 -58t-94 -18q-24 0 -50 6t-47.5 20.5t-35.5 38.5t-14 60q0 58 32 93.5t82.5 55t113.5 26t125 6.5q2 14 3 22t1 15q0 42 -26 60.5t-74 18.5
q-38 0 -76 -15t-66 -37l-38 62q38 30 89 47.5t104 17.5q34 0 65.5 -7.5t56 -24t39.5 -43.5t15 -65q0 -9 -1 -23.5t-3 -24.5l-35 -192q-5 -28 -8 -57.5t-3 -49.5h-34q-19 -16 -37 -32.5t-31.5 -33.5t-21.5 -34t-8 -33q0 -20 12 -27.5t29 -7.5q30 0 56 21zM345 228
q-39 0 -81 -3.5t-76.5 -14t-56.5 -30.5t-22 -52q0 -20 7.5 -32.5t20 -20.5t28 -11t31.5 -3q31 0 58 10.5t47 28.5t33.5 42t18.5 51l7 35h-15z" />
    <glyph glyph-name="Cacute" unicode="&#x106;" horiz-adv-x="700" 
d="M652 111q-21 -27 -49 -50.5t-63 -41t-77.5 -27.5t-92.5 -10q-71 0 -129.5 22t-100 62t-64.5 96t-23 124q0 92 32.5 172t89.5 139.5t133.5 94t164.5 34.5q39 0 75.5 -8t67.5 -22.5t56 -34.5t40 -45l-81 -59q-8 15 -22 30t-34.5 27.5t-46.5 20t-58 7.5q-69 0 -127 -29.5
t-100 -77.5t-65 -110t-23 -127q0 -48 14.5 -90t43 -73.5t70.5 -49.5t96 -18q59 0 112 24t95 75zM487 764h-74l125 144h111z" />
    <glyph glyph-name="cacute" unicode="&#x107;" horiz-adv-x="496" 
d="M419 353q-12 24 -40.5 40.5t-63.5 16.5q-41 0 -75.5 -16.5t-59.5 -45t-39 -66t-14 -79.5q0 -29 8.5 -54t25.5 -43.5t42.5 -29.5t59.5 -11q45 0 76 16t54 41l56 -52q-38 -38 -84.5 -60.5t-107.5 -22.5q-51 0 -92.5 15t-70.5 42t-45 64.5t-16 83.5q0 59 20.5 112.5t58 94
t90.5 64.5t118 24q26 0 51.5 -5t48 -14.5t41 -24.5t30.5 -36zM339 564h-74l125 144h111z" />
    <glyph glyph-name="Ccircumflex" unicode="&#x108;" horiz-adv-x="700" 
d="M652 111q-21 -27 -49 -50.5t-63 -41t-77.5 -27.5t-92.5 -10q-71 0 -129.5 22t-100 62t-64.5 96t-23 124q0 92 32.5 172t89.5 139.5t133.5 94t164.5 34.5q39 0 75.5 -8t67.5 -22.5t56 -34.5t40 -45l-81 -59q-8 15 -22 30t-34.5 27.5t-46.5 20t-58 7.5q-69 0 -127 -29.5
t-100 -77.5t-65 -110t-23 -127q0 -48 14.5 -90t43 -73.5t70.5 -49.5t96 -18q59 0 112 24t95 75zM663 764h-86l-59 99l-94 -99h-91l138 144h106z" />
    <glyph glyph-name="ccircumflex" unicode="&#x109;" horiz-adv-x="496" 
d="M419 353q-12 24 -40.5 40.5t-63.5 16.5q-41 0 -75.5 -16.5t-59.5 -45t-39 -66t-14 -79.5q0 -29 8.5 -54t25.5 -43.5t42.5 -29.5t59.5 -11q45 0 76 16t54 41l56 -52q-38 -38 -84.5 -60.5t-107.5 -22.5q-51 0 -92.5 15t-70.5 42t-45 64.5t-16 83.5q0 59 20.5 112.5t58 94
t90.5 64.5t118 24q26 0 51.5 -5t48 -14.5t41 -24.5t30.5 -36zM513 564h-86l-59 99l-94 -99h-91l138 144h106z" />
    <glyph glyph-name="Cdotaccent" unicode="&#x10a;" horiz-adv-x="700" 
d="M652 111q-21 -27 -49 -50.5t-63 -41t-77.5 -27.5t-92.5 -10q-71 0 -129.5 22t-100 62t-64.5 96t-23 124q0 92 32.5 172t89.5 139.5t133.5 94t164.5 34.5q39 0 75.5 -8t67.5 -22.5t56 -34.5t40 -45l-81 -59q-8 15 -22 30t-34.5 27.5t-46.5 20t-58 7.5q-69 0 -127 -29.5
t-100 -77.5t-65 -110t-23 -127q0 -48 14.5 -90t43 -73.5t70.5 -49.5t96 -18q59 0 112 24t95 75zM561 847q0 -25 -17 -43t-42 -18q-24 0 -41.5 15t-17.5 42t18.5 44.5t42.5 17.5t40.5 -16t16.5 -42z" />
    <glyph glyph-name="cdotaccent" unicode="&#x10b;" horiz-adv-x="496" 
d="M419 353q-12 24 -40.5 40.5t-63.5 16.5q-41 0 -75.5 -16.5t-59.5 -45t-39 -66t-14 -79.5q0 -29 8.5 -54t25.5 -43.5t42.5 -29.5t59.5 -11q45 0 76 16t54 41l56 -52q-38 -38 -84.5 -60.5t-107.5 -22.5q-51 0 -92.5 15t-70.5 42t-45 64.5t-16 83.5q0 59 20.5 112.5t58 94
t90.5 64.5t118 24q26 0 51.5 -5t48 -14.5t41 -24.5t30.5 -36zM412 647q0 -25 -17 -43t-42 -18q-24 0 -41.5 15t-17.5 42t18.5 44.5t42.5 17.5t40.5 -16t16.5 -42z" />
    <glyph glyph-name="Ccaron" unicode="&#x10c;" horiz-adv-x="700" 
d="M652 111q-21 -27 -49 -50.5t-63 -41t-77.5 -27.5t-92.5 -10q-71 0 -129.5 22t-100 62t-64.5 96t-23 124q0 92 32.5 172t89.5 139.5t133.5 94t164.5 34.5q39 0 75.5 -8t67.5 -22.5t56 -34.5t40 -45l-81 -59q-8 15 -22 30t-34.5 27.5t-46.5 20t-58 7.5q-69 0 -127 -29.5
t-100 -77.5t-65 -110t-23 -127q0 -48 14.5 -90t43 -73.5t70.5 -49.5t96 -18q59 0 112 24t95 75zM543 764h-106l-86 144h87l58 -99l94 99h90z" />
    <glyph glyph-name="ccaron" unicode="&#x10d;" horiz-adv-x="496" 
d="M419 353q-12 24 -40.5 40.5t-63.5 16.5q-41 0 -75.5 -16.5t-59.5 -45t-39 -66t-14 -79.5q0 -29 8.5 -54t25.5 -43.5t42.5 -29.5t59.5 -11q45 0 76 16t54 41l56 -52q-38 -38 -84.5 -60.5t-107.5 -22.5q-51 0 -92.5 15t-70.5 42t-45 64.5t-16 83.5q0 59 20.5 112.5t58 94
t90.5 64.5t118 24q26 0 51.5 -5t48 -14.5t41 -24.5t30.5 -36zM391 564h-106l-86 144h87l58 -99l94 99h90z" />
    <glyph glyph-name="Dcaron" unicode="&#x10e;" horiz-adv-x="757" 
d="M157 708h229q60 0 119 -16.5t106 -52t76 -92t29 -135.5q0 -93 -32.5 -169t-90.5 -130t-137 -83.5t-172 -29.5h-252zM144 86h145q80 0 140.5 26.5t101.5 70.5t61.5 100.5t20.5 116.5q0 46 -15 86.5t-45.5 71t-78 48.5t-112.5 18h-123zM466 764h-106l-86 144h87l58 -99
l94 99h90z" />
    <glyph glyph-name="dcaron" unicode="&#x10f;" horiz-adv-x="628" 
d="M30 193q0 61 20 114.5t56 93.5t85.5 63t108.5 23q58 0 100.5 -24t64.5 -67h2l63 360h93l-134 -756h-90l13 76h-2q-26 -39 -72 -63.5t-101 -24.5q-47 0 -85 15t-65 42t-42 64.5t-15 83.5zM126 202q0 -58 34 -97.5t98 -39.5q39 0 73.5 16.5t60 45t40 66.5t14.5 80
q0 30 -9.5 55.5t-27.5 43.5t-43 28.5t-56 10.5q-42 0 -76 -16.5t-58 -44.5t-37 -66.5t-13 -81.5zM703 518h-77l104 190h93z" />
    <glyph glyph-name="Dcroat" unicode="&#x110;" horiz-adv-x="757" 
d="M157 708h229q60 0 119 -16.5t106 -52t76 -92t29 -135.5q0 -93 -32.5 -169t-90.5 -130t-137 -83.5t-172 -29.5h-252l59 336h-66l13 69h66zM144 86h145q80 0 140.5 26.5t101.5 70.5t61.5 100.5t20.5 116.5q0 46 -15 86.5t-45.5 71t-78 48.5t-112.5 18h-123l-39 -219h230
l-14 -69h-228z" />
    <glyph glyph-name="dcroat" unicode="&#x111;" horiz-adv-x="628" 
d="M508 633l22 123h93l-22 -123h57l-11 -63h-57l-101 -570h-90l13 76h-2q-26 -39 -72 -63.5t-101 -24.5q-47 0 -85 15t-65 42t-42 64.5t-15 83.5q0 61 20 114.5t56 93.5t85.5 63t108.5 23q58 0 100.5 -24t64.5 -67h2l30 174h-163l11 63h163zM126 202q0 -58 34 -97.5
t98 -39.5q39 0 73.5 16.5t60 45t40 66.5t14.5 80q0 30 -9.5 55.5t-27.5 43.5t-43 28.5t-56 10.5q-42 0 -76 -16.5t-58 -44.5t-37 -66.5t-13 -81.5z" />
    <glyph glyph-name="Emacron" unicode="&#x112;" horiz-adv-x="582" 
d="M144 87h367l-15 -87h-464l125 708h436l-15 -86h-340l-37 -214h324l-15 -83h-324zM533 797h-294l11 66h295z" />
    <glyph glyph-name="emacron" unicode="&#x113;" horiz-adv-x="565" 
d="M122 209q-1 -5 -1 -8.5v-7.5q0 -28 10.5 -51.5t29 -41t44 -27t54.5 -9.5q51 0 87.5 20.5t61.5 51.5l55 -52q-42 -48 -96 -72.5t-117 -24.5q-47 0 -87.5 14t-70 41t-46 66t-16.5 89q0 59 21 112t58 92.5t88 62.5t110 23q91 0 144 -49.5t53 -138.5q0 -14 -2.5 -40.5
t-7.5 -49.5h-372zM415 277q1 7 1.5 15t0.5 15q0 46 -30 76.5t-87 30.5q-34 0 -62 -12t-49.5 -31t-36 -44t-20.5 -50h283zM485 597h-294l11 66h295z" />
    <glyph glyph-name="Ebreve" unicode="&#x114;" horiz-adv-x="582" 
d="M144 87h367l-15 -87h-464l125 708h436l-15 -86h-340l-37 -214h324l-15 -83h-324zM562 908q-14 -66 -61.5 -102t-113.5 -36t-104 33.5t-38 104.5h56q0 -20 7 -34t19 -22.5t28.5 -12t35.5 -3.5q42 0 73.5 15.5t42.5 56.5h55z" />
    <glyph glyph-name="ebreve" unicode="&#x115;" horiz-adv-x="565" 
d="M122 209q-1 -5 -1 -8.5v-7.5q0 -28 10.5 -51.5t29 -41t44 -27t54.5 -9.5q51 0 87.5 20.5t61.5 51.5l55 -52q-42 -48 -96 -72.5t-117 -24.5q-47 0 -87.5 14t-70 41t-46 66t-16.5 89q0 59 21 112t58 92.5t88 62.5t110 23q91 0 144 -49.5t53 -138.5q0 -14 -2.5 -40.5
t-7.5 -49.5h-372zM415 277q1 7 1.5 15t0.5 15q0 46 -30 76.5t-87 30.5q-34 0 -62 -12t-49.5 -31t-36 -44t-20.5 -50h283zM509 708q-14 -66 -61.5 -102t-113.5 -36t-104 33.5t-38 104.5h56q0 -20 7 -34t19 -22.5t28.5 -12t35.5 -3.5q42 0 73.5 15.5t42.5 56.5h55z" />
    <glyph glyph-name="Edotaccent" unicode="&#x116;" horiz-adv-x="582" 
d="M144 87h367l-15 -87h-464l125 708h436l-15 -86h-340l-37 -214h324l-15 -83h-324zM452 847q0 -25 -17 -43t-42 -18q-24 0 -41.5 15t-17.5 42t18.5 44.5t42.5 17.5t40.5 -16t16.5 -42z" />
    <glyph glyph-name="edotaccent" unicode="&#x117;" horiz-adv-x="565" 
d="M122 209q-1 -5 -1 -8.5v-7.5q0 -28 10.5 -51.5t29 -41t44 -27t54.5 -9.5q51 0 87.5 20.5t61.5 51.5l55 -52q-42 -48 -96 -72.5t-117 -24.5q-47 0 -87.5 14t-70 41t-46 66t-16.5 89q0 59 21 112t58 92.5t88 62.5t110 23q91 0 144 -49.5t53 -138.5q0 -14 -2.5 -40.5
t-7.5 -49.5h-372zM415 277q1 7 1.5 15t0.5 15q0 46 -30 76.5t-87 30.5q-34 0 -62 -12t-49.5 -31t-36 -44t-20.5 -50h283zM403 647q0 -25 -17 -43t-42 -18q-24 0 -41.5 15t-17.5 42t18.5 44.5t42.5 17.5t40.5 -16t16.5 -42z" />
    <glyph glyph-name="Eogonek" unicode="&#x118;" horiz-adv-x="582" 
d="M490 -191q-23 -17 -48 -27t-51 -10q-35 0 -59 18.5t-24 56.5q0 23 11 45t27.5 41.5t36.5 36t39 30.5h-390l125 708h436l-15 -86h-340l-37 -214h324l-15 -83h-324l-42 -238h367l-15 -87h-19q-19 -16 -37 -32.5t-31.5 -33.5t-21.5 -34t-8 -33q0 -20 12 -27.5t29 -7.5
q30 0 56 21z" />
    <glyph glyph-name="eogonek" unicode="&#x119;" horiz-adv-x="565" 
d="M314 -191q-23 -17 -48 -27t-51 -10q-35 0 -59 18.5t-24 56.5q0 21 8.5 40.5t22.5 37.5t31.5 33.5t35.5 29.5q-44 3 -80.5 18.5t-63 42t-41.5 64t-15 84.5q0 59 21 112t58 92.5t88 62.5t110 23q91 0 144 -49.5t53 -138.5q0 -14 -2.5 -40.5t-7.5 -49.5h-372q-1 -5 -1 -8.5
v-7.5q0 -28 10.5 -51.5t29 -41t44 -27t54.5 -9.5q51 0 87.5 20.5t61.5 51.5l55 -52q-35 -41 -79 -64t-95 -30q-35 -30 -60.5 -61.5t-25.5 -61.5q0 -20 12 -27.5t29 -7.5q30 0 56 21zM415 277q1 7 1.5 15t0.5 15q0 46 -30 76.5t-87 30.5q-34 0 -62 -12t-49.5 -31t-36 -44
t-20.5 -50h283z" />
    <glyph glyph-name="Ecaron" unicode="&#x11a;" horiz-adv-x="582" 
d="M144 87h367l-15 -87h-464l125 708h436l-15 -86h-340l-37 -214h324l-15 -83h-324zM437 764h-106l-86 144h87l58 -99l94 99h90z" />
    <glyph glyph-name="ecaron" unicode="&#x11b;" horiz-adv-x="565" 
d="M122 209q-1 -5 -1 -8.5v-7.5q0 -28 10.5 -51.5t29 -41t44 -27t54.5 -9.5q51 0 87.5 20.5t61.5 51.5l55 -52q-42 -48 -96 -72.5t-117 -24.5q-47 0 -87.5 14t-70 41t-46 66t-16.5 89q0 59 21 112t58 92.5t88 62.5t110 23q91 0 144 -49.5t53 -138.5q0 -14 -2.5 -40.5
t-7.5 -49.5h-372zM415 277q1 7 1.5 15t0.5 15q0 46 -30 76.5t-87 30.5q-34 0 -62 -12t-49.5 -31t-36 -44t-20.5 -50h283zM378 564h-106l-86 144h87l58 -99l94 99h90z" />
    <glyph glyph-name="Gcircumflex" unicode="&#x11c;" horiz-adv-x="755" 
d="M387 67q99 1 164 38l35 198h-160l16 84h254l-60 -343q-58 -31 -124.5 -46.5t-136.5 -15.5q-72 0 -131.5 22t-102 62t-65.5 96t-23 124q0 92 32.5 172t89.5 139.5t133.5 94t164.5 34.5q78 0 143.5 -28t100.5 -82l-81 -59q-20 33 -61 59t-105 26q-69 0 -127 -29.5
t-100 -77.5t-65 -110t-23 -127q0 -49 15.5 -91.5t45 -73.5t72.5 -48.5t99 -17.5zM654 764h-86l-59 99l-94 -99h-91l138 144h106z" />
    <glyph glyph-name="gcircumflex" unicode="&#x11d;" horiz-adv-x="630" 
d="M51 -83q26 -35 69.5 -55.5t93.5 -20.5q47 0 80 13.5t55.5 37t35.5 55.5t21 69l12 63h-2q-29 -39 -73 -61.5t-98 -22.5q-47 0 -85 15.5t-65 42.5t-41.5 65t-14.5 83q0 59 20 111t56 91t85 61.5t108 22.5q58 0 101 -24t62 -66h3l13 77h90l-79 -451q-9 -51 -26.5 -98.5
t-50 -84t-83 -58.5t-125.5 -22q-64 0 -125.5 23.5t-98.5 66.5zM134 208q0 -29 9 -53.5t26 -43.5t42 -29.5t57 -10.5q40 0 74 16.5t59 44t39 64.5t14 78q0 59 -36.5 98t-99.5 39q-41 0 -75 -15.5t-58 -42.5t-37.5 -64t-13.5 -81zM527 564h-86l-59 99l-94 -99h-91l138 144h106
z" />
    <glyph glyph-name="Gbreve" unicode="&#x11e;" horiz-adv-x="755" 
d="M387 67q99 1 164 38l35 198h-160l16 84h254l-60 -343q-58 -31 -124.5 -46.5t-136.5 -15.5q-72 0 -131.5 22t-102 62t-65.5 96t-23 124q0 92 32.5 172t89.5 139.5t133.5 94t164.5 34.5q78 0 143.5 -28t100.5 -82l-81 -59q-20 33 -61 59t-105 26q-69 0 -127 -29.5
t-100 -77.5t-65 -110t-23 -127q0 -49 15.5 -91.5t45 -73.5t72.5 -48.5t99 -17.5zM660 908q-14 -66 -61.5 -102t-113.5 -36t-104 33.5t-38 104.5h56q0 -20 7 -34t19 -22.5t28.5 -12t35.5 -3.5q42 0 73.5 15.5t42.5 56.5h55z" />
    <glyph glyph-name="gbreve" unicode="&#x11f;" horiz-adv-x="630" 
d="M51 -83q26 -35 69.5 -55.5t93.5 -20.5q47 0 80 13.5t55.5 37t35.5 55.5t21 69l12 63h-2q-29 -39 -73 -61.5t-98 -22.5q-47 0 -85 15.5t-65 42.5t-41.5 65t-14.5 83q0 59 20 111t56 91t85 61.5t108 22.5q58 0 101 -24t62 -66h3l13 77h90l-79 -451q-9 -51 -26.5 -98.5
t-50 -84t-83 -58.5t-125.5 -22q-64 0 -125.5 23.5t-98.5 66.5zM134 208q0 -29 9 -53.5t26 -43.5t42 -29.5t57 -10.5q40 0 74 16.5t59 44t39 64.5t14 78q0 59 -36.5 98t-99.5 39q-41 0 -75 -15.5t-58 -42.5t-37.5 -64t-13.5 -81zM535 708q-14 -66 -61.5 -102t-113.5 -36
t-104 33.5t-38 104.5h56q0 -20 7 -34t19 -22.5t28.5 -12t35.5 -3.5q42 0 73.5 15.5t42.5 56.5h55z" />
    <glyph glyph-name="Gdotaccent" unicode="&#x120;" horiz-adv-x="755" 
d="M387 67q99 1 164 38l35 198h-160l16 84h254l-60 -343q-58 -31 -124.5 -46.5t-136.5 -15.5q-72 0 -131.5 22t-102 62t-65.5 96t-23 124q0 92 32.5 172t89.5 139.5t133.5 94t164.5 34.5q78 0 143.5 -28t100.5 -82l-81 -59q-20 33 -61 59t-105 26q-69 0 -127 -29.5
t-100 -77.5t-65 -110t-23 -127q0 -49 15.5 -91.5t45 -73.5t72.5 -48.5t99 -17.5zM560 847q0 -25 -17 -43t-42 -18q-24 0 -41.5 15t-17.5 42t18.5 44.5t42.5 17.5t40.5 -16t16.5 -42z" />
    <glyph glyph-name="gdotaccent" unicode="&#x121;" horiz-adv-x="630" 
d="M51 -83q26 -35 69.5 -55.5t93.5 -20.5q47 0 80 13.5t55.5 37t35.5 55.5t21 69l12 63h-2q-29 -39 -73 -61.5t-98 -22.5q-47 0 -85 15.5t-65 42.5t-41.5 65t-14.5 83q0 59 20 111t56 91t85 61.5t108 22.5q58 0 101 -24t62 -66h3l13 77h90l-79 -451q-9 -51 -26.5 -98.5
t-50 -84t-83 -58.5t-125.5 -22q-64 0 -125.5 23.5t-98.5 66.5zM134 208q0 -29 9 -53.5t26 -43.5t42 -29.5t57 -10.5q40 0 74 16.5t59 44t39 64.5t14 78q0 59 -36.5 98t-99.5 39q-41 0 -75 -15.5t-58 -42.5t-37.5 -64t-13.5 -81zM428 647q0 -25 -17 -43t-42 -18
q-24 0 -41.5 15t-17.5 42t18.5 44.5t42.5 17.5t40.5 -16t16.5 -42z" />
    <glyph glyph-name="Gcommaaccent" unicode="&#x122;" horiz-adv-x="755" 
d="M387 67q99 1 164 38l35 198h-160l16 84h254l-60 -343q-58 -31 -124.5 -46.5t-136.5 -15.5q-72 0 -131.5 22t-102 62t-65.5 96t-23 124q0 92 32.5 172t89.5 139.5t133.5 94t164.5 34.5q78 0 143.5 -28t100.5 -82l-81 -59q-20 33 -61 59t-105 26q-69 0 -127 -29.5
t-100 -77.5t-65 -110t-23 -127q0 -49 15.5 -91.5t45 -73.5t72.5 -48.5t99 -17.5zM294 -235h-77l104 190h93z" />
    <glyph glyph-name="gcommaaccent" unicode="&#x123;" horiz-adv-x="630" 
d="M51 -83q26 -35 69.5 -55.5t93.5 -20.5q47 0 80 13.5t55.5 37t35.5 55.5t21 69l12 63h-2q-29 -39 -73 -61.5t-98 -22.5q-47 0 -85 15.5t-65 42.5t-41.5 65t-14.5 83q0 59 20 111t56 91t85 61.5t108 22.5q58 0 101 -24t62 -66h3l13 77h90l-79 -451q-9 -51 -26.5 -98.5
t-50 -84t-83 -58.5t-125.5 -22q-64 0 -125.5 23.5t-98.5 66.5zM134 208q0 -29 9 -53.5t26 -43.5t42 -29.5t57 -10.5q40 0 74 16.5t59 44t39 64.5t14 78q0 59 -36.5 98t-99.5 39q-41 0 -75 -15.5t-58 -42.5t-37.5 -64t-13.5 -81zM414 759h77l-104 -195h-93z" />
    <glyph glyph-name="Hcircumflex" unicode="&#x124;" horiz-adv-x="719" 
d="M157 708h98l-53 -297h350l53 297h98l-125 -708h-98l57 325h-350l-57 -325h-98zM602 764h-86l-59 99l-94 -99h-91l138 144h106z" />
    <glyph glyph-name="hcircumflex" unicode="&#x125;" 
d="M347 487q78 0 118 -41.5t40 -104.5q0 -25 -4 -48l-52 -293h-93l46 262q6 27 6 53q0 41 -20 67t-72 26q-57 0 -97.5 -42.5t-53.5 -114.5l-44 -251h-93l133 756h93l-62 -354h2q23 36 62.5 60.5t90.5 24.5zM551 796h-86l-59 99l-94 -99h-91l138 144h106z" />
    <glyph glyph-name="Hbar" unicode="&#x126;" horiz-adv-x="719" 
d="M157 708h98l-26 -145h350l26 145h98l-125 -708h-98l57 325h-350l-57 -325h-98zM552 411l16 89h-350l-16 -89h350z" />
    <glyph glyph-name="hbar" unicode="&#x127;" 
d="M139 633l22 123h93l-22 -123h158l-11 -63h-158l-29 -168h2q23 36 62.5 60.5t90.5 24.5q78 0 118 -41.5t40 -104.5q0 -25 -4 -48l-52 -293h-93l46 262q6 27 6 53q0 41 -20 67t-72 26q-57 0 -97.5 -42.5t-53.5 -114.5l-44 -251h-93l100 570h-61l11 63h61z" />
    <glyph glyph-name="Itilde" unicode="&#x128;" horiz-adv-x="271" 
d="M130 0h-98l125 708h98zM39 772q7 22 18 42.5t25.5 36.5t34 26t45.5 10q20 0 37.5 -6t34.5 -15q17 -8 33 -14.5t30 -6.5q21 0 34 15t21 32h55q-8 -22 -18.5 -42.5t-25.5 -36.5t-34.5 -26t-44.5 -10q-18 0 -35 6t-34 14q-17 9 -33.5 15.5t-31.5 6.5q-22 0 -35 -15t-21 -32
h-55z" />
    <glyph glyph-name="itilde" unicode="&#x129;" horiz-adv-x="259" 
d="M121 0h-92l83 474h93zM-6 572q7 22 18 42.5t25.5 36.5t34 26t45.5 10q20 0 37.5 -6t34.5 -15q17 -8 33 -14.5t30 -6.5q21 0 34 15t21 32h55q-8 -22 -18.5 -42.5t-25.5 -36.5t-34.5 -26t-44.5 -10q-18 0 -35 6t-34 14q-17 9 -33.5 15.5t-31.5 6.5q-22 0 -35 -15t-21 -32
h-55z" />
    <glyph glyph-name="Imacron" unicode="&#x12a;" horiz-adv-x="271" 
d="M130 0h-98l125 708h98zM366 797h-294l11 66h295z" />
    <glyph glyph-name="imacron" unicode="&#x12b;" horiz-adv-x="259" 
d="M121 0h-92l83 474h93zM322 597h-294l11 66h295z" />
    <glyph glyph-name="Iogonek" unicode="&#x12e;" horiz-adv-x="271" 
d="M139 -191q-23 -17 -48 -27t-51 -10q-35 0 -59 18.5t-24 56.5q0 23 11 45t27.5 41.5t36.5 36t39 30.5h-39l125 708h98l-125 -708h-4q-19 -16 -37 -32.5t-31.5 -33.5t-21.5 -34t-8 -33q0 -20 12 -27.5t29 -7.5q30 0 56 21z" />
    <glyph glyph-name="iogonek" unicode="&#x12f;" horiz-adv-x="259" 
d="M129 -191q-23 -17 -48 -27t-51 -10q-35 0 -59 18.5t-24 56.5q0 23 11 45t27.5 41.5t36.5 36t39 30.5h-32l83 474h93l-84 -474h-5q-19 -16 -37 -32.5t-31.5 -33.5t-21.5 -34t-8 -33q0 -20 12 -27.5t29 -7.5q30 0 56 21zM245 647q0 -25 -17 -43t-42 -18q-24 0 -41.5 15
t-17.5 42t18.5 44.5t42.5 17.5t40.5 -16t16.5 -42z" />
    <glyph glyph-name="Idotaccent" unicode="&#x130;" horiz-adv-x="271" 
d="M130 0h-98l125 708h98zM284 847q0 -25 -17 -43t-42 -18q-24 0 -41.5 15t-17.5 42t18.5 44.5t42.5 17.5t40.5 -16t16.5 -42z" />
    <glyph glyph-name="dotlessi" unicode="&#x131;" horiz-adv-x="259" 
d="M121 0h-92l83 474h93z" />
    <glyph glyph-name="IJ" unicode="&#x132;" horiz-adv-x="759" 
d="M130 0h-98l125 708h98zM340 155q5 -36 29 -61.5t65 -25.5q34 0 56.5 12t37 33t23 49t13.5 59l86 487h98l-87 -492q-6 -38 -18.5 -79t-37.5 -75.5t-65 -57t-103 -22.5q-41 0 -73.5 11t-56 31t-38 46.5t-18.5 58.5z" />
    <glyph glyph-name="ij" unicode="&#x133;" horiz-adv-x="516" 
d="M121 0h-92l83 474h93zM245 647q0 -25 -17 -43t-42 -18q-24 0 -41.5 15t-17.5 42t18.5 44.5t42.5 17.5t40.5 -16t16.5 -42zM158 -155q18 -5 37 -5q21 0 35 8t23 21.5t14 32t9 39.5l94 533h93l-95 -536q-6 -35 -16.5 -67.5t-30 -57t-50.5 -39t-77 -14.5q-13 0 -28.5 2
t-26.5 4zM502 647q0 -25 -17 -43t-42 -18q-24 0 -41.5 15t-17.5 42t18.5 44.5t42.5 17.5t40.5 -16t16.5 -42z" />
    <glyph glyph-name="Jcircumflex" unicode="&#x134;" horiz-adv-x="491" 
d="M72 155q5 -36 29 -61.5t65 -25.5q34 0 56.5 12t37 33t23 49t13.5 59l86 487h98l-87 -492q-6 -38 -18.5 -79t-37.5 -75.5t-65 -57t-103 -22.5q-41 0 -73.5 11t-56 31t-38 46.5t-18.5 58.5zM599 764h-86l-59 99l-94 -99h-91l138 144h106z" />
    <glyph glyph-name="jcircumflex" unicode="&#x135;" horiz-adv-x="259" 
d="M-99 -155q18 -5 37 -5q21 0 35 8t23 21.5t14 32t9 39.5l94 533h93l-95 -536q-6 -35 -16.5 -67.5t-30 -57t-50.5 -39t-77 -14.5q-13 0 -28.5 2t-26.5 4zM336 564h-86l-59 99l-94 -99h-91l138 144h106z" />
    <glyph glyph-name="Kcommaaccent" unicode="&#x136;" horiz-adv-x="621" 
d="M198 392h2l339 316h136l-377 -331l285 -377h-127l-261 366h-2l-64 -366h-97l125 708h97zM205 -235h-77l104 190h93z" />
    <glyph glyph-name="kcommaaccent" unicode="&#x137;" horiz-adv-x="504" 
d="M169 267h3l228 207h123l-256 -220l195 -254h-117l-177 246h-3l-43 -246h-93l133 756h93zM156 -235h-77l104 190h93z" />
    <glyph glyph-name="Lacute" unicode="&#x139;" horiz-adv-x="511" 
d="M144 87h317l-14 -87h-415l125 708h98zM251 764h-74l125 144h111z" />
    <glyph glyph-name="lacute" unicode="&#x13a;" horiz-adv-x="260" 
d="M122 0h-93l133 756h94zM238 792h-74l125 144h111z" />
    <glyph glyph-name="Lcommaaccent" unicode="&#x13b;" horiz-adv-x="511" 
d="M144 87h317l-14 -87h-415l125 708h98zM168 -235h-77l104 190h93z" />
    <glyph glyph-name="lcommaaccent" unicode="&#x13c;" horiz-adv-x="260" 
d="M122 0h-93l133 756h94zM10 -235h-77l104 190h93z" />
    <glyph glyph-name="Lcaron" unicode="&#x13d;" horiz-adv-x="511" 
d="M144 87h317l-14 -87h-415l125 708h98zM364 518h-77l104 190h93z" />
    <glyph glyph-name="lcaron" unicode="&#x13e;" horiz-adv-x="260" 
d="M122 0h-93l133 756h94zM328 518h-77l104 190h93z" />
    <glyph glyph-name="Ldot" unicode="&#x13f;" horiz-adv-x="511" 
d="M144 87h317l-14 -87h-415l125 708h98zM446 337q0 -25 -17 -43t-42 -18q-24 0 -41.5 15t-17.5 42t18.5 44.5t42.5 17.5t40.5 -16t16.5 -42z" />
    <glyph glyph-name="ldot" unicode="&#x140;" horiz-adv-x="350" 
d="M122 0h-93l133 756h94zM366 337q0 -25 -17 -43t-42 -18q-24 0 -41.5 15t-17.5 42t18.5 44.5t42.5 17.5t40.5 -16t16.5 -42z" />
    <glyph glyph-name="Lslash" unicode="&#x141;" horiz-adv-x="511" 
d="M198 384l244 184l-16 -89l-244 -184l-37 -208h317l-15 -87h-415l40 222l-89 -66l16 90l88 65l70 397h98z" />
    <glyph glyph-name="lslash" unicode="&#x142;" horiz-adv-x="260" 
d="M206 479l89 77l-16 -90l-89 -75l-69 -391h-92l56 315l-89 -76l16 90l89 76l61 351h93z" />
    <glyph glyph-name="Nacute" unicode="&#x143;" horiz-adv-x="768" 
d="M541 138h2l100 570h98l-125 -708h-122l-260 582h-2l-103 -582h-97l125 708h125zM459 764h-74l125 144h111z" />
    <glyph glyph-name="nacute" unicode="&#x144;" 
d="M196 474q-2 -14 -4.5 -37.5t-5.5 -39.5h2q26 41 66.5 65.5t91.5 24.5q78 0 118.5 -41.5t40.5 -104.5q0 -25 -4 -48l-52 -293h-93l46 262q6 27 6 53q0 41 -20 67t-72 26q-56 0 -97 -42.5t-54 -113.5l-44 -252h-93l65 371q4 19 8.5 49t6.5 54h88zM336 564h-74l125 144h111z
" />
    <glyph glyph-name="Ncommaaccent" unicode="&#x145;" horiz-adv-x="768" 
d="M541 138h2l100 570h98l-125 -708h-122l-260 582h-2l-103 -582h-97l125 708h125zM242 -235h-77l104 190h93z" />
    <glyph glyph-name="ncommaaccent" unicode="&#x146;" 
d="M196 474q-2 -14 -4.5 -37.5t-5.5 -39.5h2q26 41 66.5 65.5t91.5 24.5q78 0 118.5 -41.5t40.5 -104.5q0 -25 -4 -48l-52 -293h-93l46 262q6 27 6 53q0 41 -20 67t-72 26q-56 0 -97 -42.5t-54 -113.5l-44 -252h-93l65 371q4 19 8.5 49t6.5 54h88zM165 -235h-77l104 190h93z
" />
    <glyph glyph-name="Ncaron" unicode="&#x147;" horiz-adv-x="768" 
d="M541 138h2l100 570h98l-125 -708h-122l-260 582h-2l-103 -582h-97l125 708h125zM507 764h-106l-86 144h87l58 -99l94 99h90z" />
    <glyph glyph-name="ncaron" unicode="&#x148;" 
d="M196 474q-2 -14 -4.5 -37.5t-5.5 -39.5h2q26 41 66.5 65.5t91.5 24.5q78 0 118.5 -41.5t40.5 -104.5q0 -25 -4 -48l-52 -293h-93l46 262q6 27 6 53q0 41 -20 67t-72 26q-56 0 -97 -42.5t-54 -113.5l-44 -252h-93l65 371q4 19 8.5 49t6.5 54h88zM383 564h-106l-86 144h87
l58 -99l94 99h90z" />
    <glyph glyph-name="napostrophe" unicode="&#x149;" horiz-adv-x="601" 
d="M216 474q-2 -14 -4.5 -37.5t-5.5 -39.5h2q26 41 66.5 65.5t91.5 24.5q78 0 118.5 -41.5t40.5 -104.5q0 -25 -4 -48l-52 -293h-93l46 262q6 27 6 53q0 41 -20 67t-72 26q-56 0 -97 -42.5t-54 -113.5l-44 -252h-93l65 371q4 19 8.5 49t6.5 54h88zM117 518h-77l104 190h93z
" />
    <glyph glyph-name="Omacron" unicode="&#x14c;" horiz-adv-x="831" 
d="M381 -18q-74 0 -134.5 21.5t-103.5 61.5t-66.5 96.5t-23.5 126.5q0 91 31.5 170.5t87 139t130.5 94t163 34.5q72 0 132 -21.5t103 -61.5t66.5 -96t23.5 -126q0 -91 -30.5 -171t-85.5 -139.5t-130 -94t-163 -34.5zM688 412q0 48 -15 89.5t-44 73t-71.5 49.5t-97.5 18
q-69 0 -125.5 -29.5t-96.5 -78t-61.5 -110.5t-21.5 -127q0 -47 15 -89t43.5 -73.5t71 -49.5t98.5 -18q70 0 126.5 29t96 77.5t61 110.5t21.5 128zM643 797h-294l11 66h295z" />
    <glyph glyph-name="omacron" unicode="&#x14d;" horiz-adv-x="600" 
d="M255 -13q-49 0 -90 15t-71 42.5t-47 65.5t-17 84q0 59 20.5 112t58 93.5t90 64t116.5 23.5q49 0 90 -15t71 -42t46.5 -64.5t16.5 -83.5q0 -60 -20.5 -113.5t-58 -94t-89.5 -64t-116 -23.5zM445 273q0 29 -9.5 54t-27 43.5t-43 29t-56.5 10.5q-41 0 -75 -17t-58.5 -45.5
t-38 -66t-13.5 -79.5q0 -60 36 -98.5t100 -38.5q41 0 75 16.5t58.5 45t38 66.5t13.5 80zM489 597h-294l11 66h295z" />
    <glyph glyph-name="Obreve" unicode="&#x14e;" horiz-adv-x="831" 
d="M381 -18q-74 0 -134.5 21.5t-103.5 61.5t-66.5 96.5t-23.5 126.5q0 91 31.5 170.5t87 139t130.5 94t163 34.5q72 0 132 -21.5t103 -61.5t66.5 -96t23.5 -126q0 -91 -30.5 -171t-85.5 -139.5t-130 -94t-163 -34.5zM688 412q0 48 -15 89.5t-44 73t-71.5 49.5t-97.5 18
q-69 0 -125.5 -29.5t-96.5 -78t-61.5 -110.5t-21.5 -127q0 -47 15 -89t43.5 -73.5t71 -49.5t98.5 -18q70 0 126.5 29t96 77.5t61 110.5t21.5 128zM662 908q-14 -66 -61.5 -102t-113.5 -36t-104 33.5t-38 104.5h56q0 -20 7 -34t19 -22.5t28.5 -12t35.5 -3.5q42 0 73.5 15.5
t42.5 56.5h55z" />
    <glyph glyph-name="obreve" unicode="&#x14f;" horiz-adv-x="600" 
d="M255 -13q-49 0 -90 15t-71 42.5t-47 65.5t-17 84q0 59 20.5 112t58 93.5t90 64t116.5 23.5q49 0 90 -15t71 -42t46.5 -64.5t16.5 -83.5q0 -60 -20.5 -113.5t-58 -94t-89.5 -64t-116 -23.5zM445 273q0 29 -9.5 54t-27 43.5t-43 29t-56.5 10.5q-41 0 -75 -17t-58.5 -45.5
t-38 -66t-13.5 -79.5q0 -60 36 -98.5t100 -38.5q41 0 75 16.5t58.5 45t38 66.5t13.5 80zM509 708q-14 -66 -61.5 -102t-113.5 -36t-104 33.5t-38 104.5h56q0 -20 7 -34t19 -22.5t28.5 -12t35.5 -3.5q42 0 73.5 15.5t42.5 56.5h55z" />
    <glyph glyph-name="Ohungarumlaut" unicode="&#x150;" horiz-adv-x="831" 
d="M381 -18q-74 0 -134.5 21.5t-103.5 61.5t-66.5 96.5t-23.5 126.5q0 91 31.5 170.5t87 139t130.5 94t163 34.5q72 0 132 -21.5t103 -61.5t66.5 -96t23.5 -126q0 -91 -30.5 -171t-85.5 -139.5t-130 -94t-163 -34.5zM688 412q0 48 -15 89.5t-44 73t-71.5 49.5t-97.5 18
q-69 0 -125.5 -29.5t-96.5 -78t-61.5 -110.5t-21.5 -127q0 -47 15 -89t43.5 -73.5t71 -49.5t98.5 -18q70 0 126.5 29t96 77.5t61 110.5t21.5 128zM612 764h-76l126 144h113zM432 764h-76l125 144h113z" />
    <glyph glyph-name="ohungarumlaut" unicode="&#x151;" horiz-adv-x="600" 
d="M255 -13q-49 0 -90 15t-71 42.5t-47 65.5t-17 84q0 59 20.5 112t58 93.5t90 64t116.5 23.5q49 0 90 -15t71 -42t46.5 -64.5t16.5 -83.5q0 -60 -20.5 -113.5t-58 -94t-89.5 -64t-116 -23.5zM445 273q0 29 -9.5 54t-27 43.5t-43 29t-56.5 10.5q-41 0 -75 -17t-58.5 -45.5
t-38 -66t-13.5 -79.5q0 -60 36 -98.5t100 -38.5q41 0 75 16.5t58.5 45t38 66.5t13.5 80zM458 564h-76l126 144h113zM278 564h-76l125 144h113z" />
    <glyph glyph-name="OE" unicode="&#x152;" horiz-adv-x="988" 
d="M984 623h-327l-38 -215h312l-15 -82h-311l-43 -239h355l-15 -87h-519q-60 0 -119 16.5t-106 52t-76 91.5t-29 136q0 93 32.5 169t90.5 130t137 83.5t172 29.5h514zM480 624q-80 0 -140.5 -26.5t-101.5 -70.5t-62 -100.5t-21 -116.5q0 -46 14.5 -87t45.5 -71.5t78.5 -48.5
t112.5 -18h61l95 539h-82z" />
    <glyph glyph-name="oe" unicode="&#x153;" horiz-adv-x="971" 
d="M910 299q0 -14 -2.5 -40t-8.5 -49h-371q-2 -5 -2 -9v-8q0 -28 10.5 -52t29 -41t44 -27t54.5 -10q51 0 87.5 21t62.5 52l55 -51q-86 -98 -214 -98q-71 0 -118.5 29t-71.5 77q-32 -47 -84.5 -76.5t-127.5 -29.5q-49 0 -90 15t-70.5 42t-46 65t-16.5 84q0 60 21 113t59 93.5
t90.5 64t115.5 23.5q69 0 117 -28.5t71 -79.5q33 50 88.5 79t119.5 29q91 0 144.5 -49.5t53.5 -138.5zM823 306q0 47 -30 78t-87 31q-34 0 -62.5 -12t-50 -31.5t-36 -44.5t-20.5 -51h284q1 8 1.5 15.5t0.5 15.5v-1zM445 273q0 29 -9.5 54.5t-27 44t-42.5 29t-57 10.5
q-40 0 -74 -17t-58.5 -45.5t-38.5 -66.5t-14 -80q0 -30 9 -55t26.5 -43.5t42.5 -29t57 -10.5q40 0 74.5 17t59 45.5t38.5 66.5t14 80z" />
    <glyph glyph-name="Racute" unicode="&#x154;" horiz-adv-x="612" 
d="M129 0h-97l125 708h201q52 0 95 -11.5t73.5 -34t47 -55t16.5 -75.5q0 -46 -15 -81t-41 -60.5t-62 -41.5t-79 -23l151 -326h-110l-141 316h-109zM198 397h109q38 0 71.5 6t58 20.5t39 38t14.5 59.5q0 56 -39.5 80t-107.5 24h-104zM368 764h-74l125 144h111z" />
    <glyph glyph-name="racute" unicode="&#x155;" horiz-adv-x="343" 
d="M92 371q4 19 8.5 49t6.5 54h88q-1 -7 -2 -17.5t-2.5 -22t-3 -22t-2.5 -18.5h2q25 42 62.5 67.5t85.5 25.5q22 0 37 -4l-16 -87q-20 5 -41 5q-34 0 -60 -12.5t-45 -33.5t-30.5 -48.5t-16.5 -57.5l-44 -249h-92zM224 564h-74l125 144h111z" />
    <glyph glyph-name="Rcommaaccent" unicode="&#x156;" horiz-adv-x="612" 
d="M129 0h-97l125 708h201q52 0 95 -11.5t73.5 -34t47 -55t16.5 -75.5q0 -46 -15 -81t-41 -60.5t-62 -41.5t-79 -23l151 -326h-110l-141 316h-109zM198 397h109q38 0 71.5 6t58 20.5t39 38t14.5 59.5q0 56 -39.5 80t-107.5 24h-104zM186 -235h-77l104 190h93z" />
    <glyph glyph-name="rcommaaccent" unicode="&#x157;" horiz-adv-x="343" 
d="M92 371q4 19 8.5 49t6.5 54h88q-1 -7 -2 -17.5t-2.5 -22t-3 -22t-2.5 -18.5h2q25 42 62.5 67.5t85.5 25.5q22 0 37 -4l-16 -87q-20 5 -41 5q-34 0 -60 -12.5t-45 -33.5t-30.5 -48.5t-16.5 -57.5l-44 -249h-92zM5 -236h-77l104 190h93z" />
    <glyph glyph-name="Rcaron" unicode="&#x158;" horiz-adv-x="612" 
d="M129 0h-97l125 708h201q52 0 95 -11.5t73.5 -34t47 -55t16.5 -75.5q0 -46 -15 -81t-41 -60.5t-62 -41.5t-79 -23l151 -326h-110l-141 316h-109zM198 397h109q38 0 71.5 6t58 20.5t39 38t14.5 59.5q0 56 -39.5 80t-107.5 24h-104zM417 764h-106l-86 144h87l58 -99l94 99
h90z" />
    <glyph glyph-name="rcaron" unicode="&#x159;" horiz-adv-x="343" 
d="M92 371q4 19 8.5 49t6.5 54h88q-1 -7 -2 -17.5t-2.5 -22t-3 -22t-2.5 -18.5h2q25 42 62.5 67.5t85.5 25.5q22 0 37 -4l-16 -87q-20 5 -41 5q-34 0 -60 -12.5t-45 -33.5t-30.5 -48.5t-16.5 -57.5l-44 -249h-92zM301 564h-106l-86 144h87l58 -99l94 99h90z" />
    <glyph glyph-name="Sacute" unicode="&#x15a;" horiz-adv-x="569" 
d="M481 580q-20 29 -54 46.5t-77 17.5q-25 0 -51.5 -7t-49 -22.5t-37 -39.5t-14.5 -57q0 -23 8.5 -40t23.5 -30t36 -23.5t46 -19.5q39 -14 72.5 -31.5t59 -41t40 -54t14.5 -70.5q0 -49 -18.5 -90.5t-53 -71.5t-83.5 -47t-110 -17q-34 0 -67.5 7t-64.5 20.5t-56.5 34
t-42.5 48.5l82 55q20 -35 60.5 -58.5t92.5 -23.5q30 0 58.5 8.5t50.5 25t35.5 41t13.5 57.5q0 27 -11 47t-30 35t-44 26.5t-53 21.5q-31 12 -60 27t-51 36t-35 50t-13 69q0 49 19.5 89.5t54.5 68.5t83 43.5t104 15.5q62 0 115.5 -23t82.5 -65zM363 764h-74l125 144h111z" />
    <glyph glyph-name="sacute" unicode="&#x15b;" horiz-adv-x="444" 
d="M347 360q-14 23 -38 38t-62 15q-17 0 -34 -3.5t-31.5 -11t-23.5 -20.5t-9 -31q0 -30 22 -43t63 -24q68 -20 104.5 -51.5t36.5 -89.5q0 -39 -17 -68t-44.5 -48t-62.5 -28.5t-71 -9.5q-68 0 -117.5 25t-76.5 68l75 49q16 -29 47.5 -47t71.5 -18q42 0 73 17.5t31 52.5
q0 31 -24.5 47t-73.5 32q-28 9 -51 19t-40 25t-26.5 35t-9.5 49q0 35 16 62.5t43 46.5t62.5 29t73.5 10q55 0 99 -21t66 -59zM275 564h-74l125 144h111z" />
    <glyph glyph-name="Scircumflex" unicode="&#x15c;" horiz-adv-x="569" 
d="M481 580q-20 29 -54 46.5t-77 17.5q-25 0 -51.5 -7t-49 -22.5t-37 -39.5t-14.5 -57q0 -23 8.5 -40t23.5 -30t36 -23.5t46 -19.5q39 -14 72.5 -31.5t59 -41t40 -54t14.5 -70.5q0 -49 -18.5 -90.5t-53 -71.5t-83.5 -47t-110 -17q-34 0 -67.5 7t-64.5 20.5t-56.5 34
t-42.5 48.5l82 55q20 -35 60.5 -58.5t92.5 -23.5q30 0 58.5 8.5t50.5 25t35.5 41t13.5 57.5q0 27 -11 47t-30 35t-44 26.5t-53 21.5q-31 12 -60 27t-51 36t-35 50t-13 69q0 49 19.5 89.5t54.5 68.5t83 43.5t104 15.5q62 0 115.5 -23t82.5 -65zM542 764h-86l-59 99l-94 -99
h-91l138 144h106z" />
    <glyph glyph-name="scircumflex" unicode="&#x15d;" horiz-adv-x="444" 
d="M347 360q-14 23 -38 38t-62 15q-17 0 -34 -3.5t-31.5 -11t-23.5 -20.5t-9 -31q0 -30 22 -43t63 -24q68 -20 104.5 -51.5t36.5 -89.5q0 -39 -17 -68t-44.5 -48t-62.5 -28.5t-71 -9.5q-68 0 -117.5 25t-76.5 68l75 49q16 -29 47.5 -47t71.5 -18q42 0 73 17.5t31 52.5
q0 31 -24.5 47t-73.5 32q-28 9 -51 19t-40 25t-26.5 35t-9.5 49q0 35 16 62.5t43 46.5t62.5 29t73.5 10q55 0 99 -21t66 -59zM443 564h-86l-59 99l-94 -99h-91l138 144h106z" />
    <glyph glyph-name="Scedilla" unicode="&#x15e;" horiz-adv-x="569" 
d="M481 580q-20 29 -54 46.5t-77 17.5q-25 0 -51.5 -7t-49 -22.5t-37 -39.5t-14.5 -57q0 -23 8.5 -40t23.5 -30t36 -23.5t46 -19.5q39 -14 72.5 -31.5t59 -41t40 -54t14.5 -70.5q0 -46 -16.5 -85.5t-47.5 -69.5t-75 -48t-99 -22l-44 -53q8 2 14 2.5t12 0.5q13 0 27.5 -3.5
t26.5 -12t20 -22t8 -33.5q0 -27 -13 -46t-32.5 -30t-42.5 -16t-44 -5q-26 0 -55 6t-49 17l24 42q17 -8 36.5 -12.5t39.5 -4.5q10 0 21 2t21 6.5t16.5 13t6.5 21.5q0 21 -14.5 29t-33.5 8q-10 0 -21 -2t-21 -5l-17 20l64 77q-63 4 -119.5 31t-88.5 78l82 55
q20 -35 60.5 -58.5t92.5 -23.5q30 0 58.5 8.5t50.5 25t35.5 41t13.5 57.5q0 27 -11 47t-30 35t-44 26.5t-53 21.5q-31 12 -60 27t-51 36t-35 50t-13 69q0 49 19.5 89.5t54.5 68.5t83 43.5t104 15.5q62 0 115.5 -23t82.5 -65z" />
    <glyph glyph-name="scedilla" unicode="&#x15f;" horiz-adv-x="444" 
d="M347 360q-14 23 -38 38t-62 15q-17 0 -34 -3.5t-31.5 -11t-23.5 -20.5t-9 -31q0 -30 22 -43t63 -24q68 -20 104.5 -51.5t36.5 -89.5q0 -36 -14 -63t-37.5 -45.5t-54 -29.5t-63.5 -14l-47 -57q8 2 14 2.5t12 0.5q13 0 27.5 -3.5t26.5 -12t20 -22t8 -33.5q0 -27 -13 -46
t-32.5 -30t-42.5 -16t-44 -5q-26 0 -55 6t-49 17l24 42q17 -8 36.5 -12.5t39.5 -4.5q10 0 21 2t21 6.5t16.5 13t6.5 21.5q0 21 -14.5 29t-33.5 8q-10 0 -21 -2t-21 -5l-17 20l67 80q-59 5 -102.5 29t-67.5 63l75 49q16 -29 47.5 -47t71.5 -18q42 0 73 17.5t31 52.5
q0 31 -24.5 47t-73.5 32q-28 9 -51 19t-40 25t-26.5 35t-9.5 49q0 35 16 62.5t43 46.5t62.5 29t73.5 10q55 0 99 -21t66 -59z" />
    <glyph glyph-name="Scaron" unicode="&#x160;" horiz-adv-x="569" 
d="M481 580q-20 29 -54 46.5t-77 17.5q-25 0 -51.5 -7t-49 -22.5t-37 -39.5t-14.5 -57q0 -23 8.5 -40t23.5 -30t36 -23.5t46 -19.5q39 -14 72.5 -31.5t59 -41t40 -54t14.5 -70.5q0 -49 -18.5 -90.5t-53 -71.5t-83.5 -47t-110 -17q-34 0 -67.5 7t-64.5 20.5t-56.5 34
t-42.5 48.5l82 55q20 -35 60.5 -58.5t92.5 -23.5q30 0 58.5 8.5t50.5 25t35.5 41t13.5 57.5q0 27 -11 47t-30 35t-44 26.5t-53 21.5q-31 12 -60 27t-51 36t-35 50t-13 69q0 49 19.5 89.5t54.5 68.5t83 43.5t104 15.5q62 0 115.5 -23t82.5 -65zM412 764h-106l-86 144h87
l58 -99l94 99h90z" />
    <glyph glyph-name="scaron" unicode="&#x161;" horiz-adv-x="444" 
d="M347 360q-14 23 -38 38t-62 15q-17 0 -34 -3.5t-31.5 -11t-23.5 -20.5t-9 -31q0 -30 22 -43t63 -24q68 -20 104.5 -51.5t36.5 -89.5q0 -39 -17 -68t-44.5 -48t-62.5 -28.5t-71 -9.5q-68 0 -117.5 25t-76.5 68l75 49q16 -29 47.5 -47t71.5 -18q42 0 73 17.5t31 52.5
q0 31 -24.5 47t-73.5 32q-28 9 -51 19t-40 25t-26.5 35t-9.5 49q0 35 16 62.5t43 46.5t62.5 29t73.5 10q55 0 99 -21t66 -59zM319 564h-106l-86 144h87l58 -99l94 99h90z" />
    <glyph glyph-name="Tcommaaccent" unicode="&#x162;" horiz-adv-x="535" 
d="M260 0h-98l110 622h-224l15 86h544l-15 -86h-222zM142 -235h-77l104 190h93z" />
    <glyph glyph-name="tcommaaccent" unicode="&#x163;" horiz-adv-x="324" 
d="M315 398h-117l-45 -249q-3 -17 -3 -30q0 -30 15.5 -40.5t41.5 -10.5q14 0 28 3t23 8l-7 -74q-14 -6 -34.5 -9.5t-40.5 -3.5q-55 0 -87.5 24.5t-32.5 77.5q0 11 1 23t3 24l46 257h-90l14 76h89l23 136h92l-24 -136h119zM68 -235h-77l104 190h93z" />
    <glyph glyph-name="Tcaron" unicode="&#x164;" horiz-adv-x="535" 
d="M260 0h-98l110 622h-224l15 86h544l-15 -86h-222zM396 764h-106l-86 144h87l58 -99l94 99h90z" />
    <glyph glyph-name="tcaron" unicode="&#x165;" horiz-adv-x="324" 
d="M315 398h-117l-45 -249q-3 -17 -3 -30q0 -30 15.5 -40.5t41.5 -10.5q14 0 28 3t23 8l-7 -74q-14 -6 -34.5 -9.5t-40.5 -3.5q-55 0 -87.5 24.5t-32.5 77.5q0 11 1 23t3 24l46 257h-90l14 76h89l23 136h92l-24 -136h119zM329 541h-77l104 190h93z" />
    <glyph glyph-name="Tbar" unicode="&#x166;" horiz-adv-x="545" 
d="M259 525l18 97h-224l15 86h544l-15 -86h-222l-18 -97h163l-11 -63h-163l-81 -462h-98l81 462h-164l11 63h164z" />
    <glyph glyph-name="tbar" unicode="&#x167;" horiz-adv-x="324" 
d="M89 304l17 94h-90l14 76h89l23 136h92l-24 -136h119l-14 -76h-117l-17 -94h103l-11 -63h-104l-16 -92q-3 -17 -3 -30q0 -30 15.5 -40.5t41.5 -10.5q14 0 28 3t23 8l-7 -74q-14 -6 -34.5 -9.5t-40.5 -3.5q-55 0 -87.5 24.5t-32.5 77.5q0 11 1 23t3 24l18 100h-72l11 63h72
z" />
    <glyph glyph-name="Utilde" unicode="&#x168;" horiz-adv-x="712" 
d="M317 -18q-63 0 -109.5 17t-77.5 47t-46.5 69.5t-15.5 84.5q0 30 6 62l78 446h98l-78 -440q-5 -28 -5 -53q0 -30 8 -56.5t26.5 -47t47.5 -32.5t71 -12q52 0 88 17t60 45.5t37.5 64.5t20.5 74l77 440h98l-78 -446q-10 -54 -31.5 -104.5t-58 -89.5t-90 -62.5t-126.5 -23.5z
M260 772q7 22 18 42.5t25.5 36.5t34 26t45.5 10q20 0 37.5 -6t34.5 -15q17 -8 33 -14.5t30 -6.5q21 0 34 15t21 32h55q-8 -22 -18.5 -42.5t-25.5 -36.5t-34.5 -26t-44.5 -10q-18 0 -35 6t-34 14q-17 9 -33.5 15.5t-31.5 6.5q-22 0 -35 -15t-21 -32h-55z" />
    <glyph glyph-name="utilde" unicode="&#x169;" 
d="M352 0q2 14 5 37.5t5 39.5h-2q-26 -41 -66.5 -65.5t-91.5 -24.5q-78 0 -118.5 41.5t-40.5 105.5q0 11 1.5 23t3.5 24l52 293h92l-46 -261q-2 -14 -3.5 -27.5t-1.5 -26.5q0 -41 20 -67t71 -26q56 0 97.5 42.5t53.5 113.5l45 252h92l-65 -371q-4 -19 -8.5 -49t-6.5 -54h-88
zM149 572q7 22 18 42.5t25.5 36.5t34 26t45.5 10q20 0 37.5 -6t34.5 -15q17 -8 33 -14.5t30 -6.5q21 0 34 15t21 32h55q-8 -22 -18.5 -42.5t-25.5 -36.5t-34.5 -26t-44.5 -10q-18 0 -35 6t-34 14q-17 9 -33.5 15.5t-31.5 6.5q-22 0 -35 -15t-21 -32h-55z" />
    <glyph glyph-name="Umacron" unicode="&#x16a;" horiz-adv-x="712" 
d="M317 -18q-63 0 -109.5 17t-77.5 47t-46.5 69.5t-15.5 84.5q0 30 6 62l78 446h98l-78 -440q-5 -28 -5 -53q0 -30 8 -56.5t26.5 -47t47.5 -32.5t71 -12q52 0 88 17t60 45.5t37.5 64.5t20.5 74l77 440h98l-78 -446q-10 -54 -31.5 -104.5t-58 -89.5t-90 -62.5t-126.5 -23.5z
M584 797h-294l11 66h295z" />
    <glyph glyph-name="umacron" unicode="&#x16b;" 
d="M352 0q2 14 5 37.5t5 39.5h-2q-26 -41 -66.5 -65.5t-91.5 -24.5q-78 0 -118.5 41.5t-40.5 105.5q0 11 1.5 23t3.5 24l52 293h92l-46 -261q-2 -14 -3.5 -27.5t-1.5 -26.5q0 -41 20 -67t71 -26q56 0 97.5 42.5t53.5 113.5l45 252h92l-65 -371q-4 -19 -8.5 -49t-6.5 -54h-88
zM475 597h-294l11 66h295z" />
    <glyph glyph-name="Ubreve" unicode="&#x16c;" horiz-adv-x="712" 
d="M317 -18q-63 0 -109.5 17t-77.5 47t-46.5 69.5t-15.5 84.5q0 30 6 62l78 446h98l-78 -440q-5 -28 -5 -53q0 -30 8 -56.5t26.5 -47t47.5 -32.5t71 -12q52 0 88 17t60 45.5t37.5 64.5t20.5 74l77 440h98l-78 -446q-10 -54 -31.5 -104.5t-58 -89.5t-90 -62.5t-126.5 -23.5z
M608 908q-14 -66 -61.5 -102t-113.5 -36t-104 33.5t-38 104.5h56q0 -20 7 -34t19 -22.5t28.5 -12t35.5 -3.5q42 0 73.5 15.5t42.5 56.5h55z" />
    <glyph glyph-name="ubreve" unicode="&#x16d;" 
d="M352 0q2 14 5 37.5t5 39.5h-2q-26 -41 -66.5 -65.5t-91.5 -24.5q-78 0 -118.5 41.5t-40.5 105.5q0 11 1.5 23t3.5 24l52 293h92l-46 -261q-2 -14 -3.5 -27.5t-1.5 -26.5q0 -41 20 -67t71 -26q56 0 97.5 42.5t53.5 113.5l45 252h92l-65 -371q-4 -19 -8.5 -49t-6.5 -54h-88
zM496 708q-14 -66 -61.5 -102t-113.5 -36t-104 33.5t-38 104.5h56q0 -20 7 -34t19 -22.5t28.5 -12t35.5 -3.5q42 0 73.5 15.5t42.5 56.5h55z" />
    <glyph glyph-name="Uring" unicode="&#x16e;" horiz-adv-x="712" 
d="M317 -18q-63 0 -109.5 17t-77.5 47t-46.5 69.5t-15.5 84.5q0 30 6 62l78 446h98l-78 -440q-5 -28 -5 -53q0 -30 8 -56.5t26.5 -47t47.5 -32.5t71 -12q52 0 88 17t60 45.5t37.5 64.5t20.5 74l77 440h98l-78 -446q-10 -54 -31.5 -104.5t-58 -89.5t-90 -62.5t-126.5 -23.5z
M435 753q-38 0 -62.5 24t-24.5 59q0 24 8 44.5t23 36.5t35.5 25t44.5 9q39 0 63 -23t24 -59q0 -49 -31 -82.5t-80 -33.5zM505 863q0 21 -13 36t-36 15q-29 0 -47.5 -21t-18.5 -52q0 -21 12.5 -35.5t35.5 -14.5q29 0 48 21t19 51z" />
    <glyph glyph-name="uring" unicode="&#x16f;" 
d="M352 0q2 14 5 37.5t5 39.5h-2q-26 -41 -66.5 -65.5t-91.5 -24.5q-78 0 -118.5 41.5t-40.5 105.5q0 11 1.5 23t3.5 24l52 293h92l-46 -261q-2 -14 -3.5 -27.5t-1.5 -26.5q0 -41 20 -67t71 -26q56 0 97.5 42.5t53.5 113.5l45 252h92l-65 -371q-4 -19 -8.5 -49t-6.5 -54h-88
zM322 553q-38 0 -62.5 24t-24.5 59q0 24 8 44.5t23 36.5t35.5 25t44.5 9q39 0 63 -23t24 -59q0 -49 -31 -82.5t-80 -33.5zM392 663q0 21 -13 36t-36 15q-29 0 -47.5 -21t-18.5 -52q0 -21 12.5 -35.5t35.5 -14.5q29 0 48 21t19 51z" />
    <glyph glyph-name="Uhungarumlaut" unicode="&#x170;" horiz-adv-x="712" 
d="M317 -18q-63 0 -109.5 17t-77.5 47t-46.5 69.5t-15.5 84.5q0 30 6 62l78 446h98l-78 -440q-5 -28 -5 -53q0 -30 8 -56.5t26.5 -47t47.5 -32.5t71 -12q52 0 88 17t60 45.5t37.5 64.5t20.5 74l77 440h98l-78 -446q-10 -54 -31.5 -104.5t-58 -89.5t-90 -62.5t-126.5 -23.5z
M552 764h-76l126 144h113zM372 764h-76l125 144h113z" />
    <glyph glyph-name="uhungarumlaut" unicode="&#x171;" 
d="M352 0q2 14 5 37.5t5 39.5h-2q-26 -41 -66.5 -65.5t-91.5 -24.5q-78 0 -118.5 41.5t-40.5 105.5q0 11 1.5 23t3.5 24l52 293h92l-46 -261q-2 -14 -3.5 -27.5t-1.5 -26.5q0 -41 20 -67t71 -26q56 0 97.5 42.5t53.5 113.5l45 252h92l-65 -371q-4 -19 -8.5 -49t-6.5 -54h-88
zM446 564h-76l126 144h113zM266 564h-76l125 144h113z" />
    <glyph glyph-name="Uogonek" unicode="&#x172;" horiz-adv-x="712" 
d="M392 -191q-23 -17 -48 -27t-51 -10q-35 0 -59 18.5t-24 56.5q0 20 8 38.5t20.5 35.5t28.5 32.5t33 28.5q-59 2 -102.5 20t-72 47.5t-43 68t-14.5 82.5q0 30 6 62l78 446h98l-78 -440q-5 -28 -5 -53q0 -30 8 -56.5t26.5 -47t47.5 -32.5t71 -12q52 0 88 17t60 45.5
t37.5 64.5t20.5 74l77 440h98l-78 -446q-9 -50 -28 -96.5t-50.5 -84.5t-76.5 -63.5t-107 -32.5q-32 -29 -56 -59t-24 -59q0 -20 12 -27.5t29 -7.5q30 0 56 21z" />
    <glyph glyph-name="uogonek" unicode="&#x173;" 
d="M417 -191q-23 -17 -48 -27t-51 -10q-35 0 -59 18.5t-24 56.5q0 24 11 46t28.5 41.5t38 36.5t39.5 31q2 14 5 36.5t5 38.5h-2q-26 -41 -66.5 -65.5t-91.5 -24.5q-78 0 -118.5 41.5t-40.5 105.5q0 11 1.5 23t3.5 24l52 293h92l-46 -261q-2 -14 -3.5 -27.5t-1.5 -26.5
q0 -41 20 -67t71 -26q56 0 97.5 42.5t53.5 113.5l45 252h92l-65 -371q-4 -19 -8.5 -49t-6.5 -54h-36q-19 -16 -37 -32.5t-31.5 -33.5t-21.5 -34t-8 -33q0 -20 12 -27.5t29 -7.5q30 0 56 21z" />
    <glyph glyph-name="Wcircumflex" unicode="&#x174;" horiz-adv-x="982" 
d="M233 142h2l275 566h108l57 -566h2l267 566h104l-344 -708h-102l-61 572h-2l-283 -572h-103l-69 708h103zM737 764h-86l-59 99l-94 -99h-91l138 144h106z" />
    <glyph glyph-name="wcircumflex" unicode="&#x175;" horiz-adv-x="759" 
d="M137 474l33 -362h2l185 362h93l47 -362h3l180 362h98l-250 -474h-96l-48 359h-2l-187 -359h-96l-59 474h97zM584 564h-86l-59 99l-94 -99h-91l138 144h106z" />
    <glyph glyph-name="Ycircumflex" unicode="&#x176;" horiz-adv-x="560" 
d="M268 0h-98l54 306l-178 402h111l130 -322l259 322h120l-344 -402zM523 764h-86l-59 99l-94 -99h-91l138 144h106z" />
    <glyph glyph-name="ycircumflex" unicode="&#x177;" horiz-adv-x="495" 
d="M207 101h2l210 373h100l-347 -586q-18 -30 -35 -53.5t-37 -40t-44 -25.5t-54 -9q-31 0 -59 7l13 82q22 -8 44 -8q32 0 53 20.5t44 58.5l47 80l-104 474h99zM458 564h-86l-59 99l-94 -99h-91l138 144h106z" />
    <glyph glyph-name="Ydieresis" unicode="&#x178;" horiz-adv-x="560" 
d="M268 0h-98l54 306l-178 402h111l130 -322l259 322h120l-344 -402zM524 847q0 -25 -16.5 -42.5t-42.5 -17.5q-24 0 -41 15t-17 42t18 44t43 17q24 0 40 -15.5t16 -42.5zM326 847q0 -25 -16.5 -42.5t-41.5 -17.5t-42 15t-17 42t18.5 44t42.5 17t40 -15.5t16 -42.5z" />
    <glyph glyph-name="Zacute" unicode="&#x179;" horiz-adv-x="580" 
d="M601 622l-490 -535h403l-15 -87h-532l15 86l493 536h-367l15 86h494zM377 764h-74l125 144h111z" />
    <glyph glyph-name="zacute" unicode="&#x17a;" horiz-adv-x="461" 
d="M437 398l-328 -320h279l-13 -78h-396l13 76l327 322h-254l14 76h371zM277 564h-74l125 144h111z" />
    <glyph glyph-name="Zdotaccent" unicode="&#x17b;" horiz-adv-x="580" 
d="M601 622l-490 -535h403l-15 -87h-532l15 86l493 536h-367l15 86h494zM449 847q0 -25 -17 -43t-42 -18q-24 0 -41.5 15t-17.5 42t18.5 44.5t42.5 17.5t40.5 -16t16.5 -42z" />
    <glyph glyph-name="zdotaccent" unicode="&#x17c;" horiz-adv-x="461" 
d="M437 398l-328 -320h279l-13 -78h-396l13 76l327 322h-254l14 76h371zM347 647q0 -25 -17 -43t-42 -18q-24 0 -41.5 15t-17.5 42t18.5 44.5t42.5 17.5t40.5 -16t16.5 -42z" />
    <glyph glyph-name="Zcaron" unicode="&#x17d;" horiz-adv-x="580" 
d="M601 622l-490 -535h403l-15 -87h-532l15 86l493 536h-367l15 86h494zM426 764h-106l-86 144h87l58 -99l94 99h90z" />
    <glyph glyph-name="zcaron" unicode="&#x17e;" horiz-adv-x="461" 
d="M437 398l-328 -320h279l-13 -78h-396l13 76l327 322h-254l14 76h371zM326 564h-106l-86 144h87l58 -99l94 99h90z" />
    <glyph glyph-name="florin" unicode="&#x192;" horiz-adv-x="595" 
d="M458 351h-128l-119 -321q-14 -37 -32 -68t-42 -53.5t-55 -35t-71 -12.5q-24 0 -46.5 6t-40.5 18l50 69q21 -13 48 -13q21 0 37 8.5t27.5 23t20.5 33.5t17 40l111 305h-111l13 72h125l47 127q12 34 29 65t40.5 54t54.5 37t72 14q29 0 53.5 -8t46.5 -22l-52 -70
q-11 8 -25 12.5t-28 4.5q-24 0 -41 -11t-29 -27t-20.5 -35.5t-14.5 -35.5l-39 -105h115z" />
    <glyph glyph-name="Scommaaccent" unicode="&#x218;" horiz-adv-x="569" 
d="M481 580q-20 29 -54 46.5t-77 17.5q-25 0 -51.5 -7t-49 -22.5t-37 -39.5t-14.5 -57q0 -23 8.5 -40t23.5 -30t36 -23.5t46 -19.5q39 -14 72.5 -31.5t59 -41t40 -54t14.5 -70.5q0 -49 -18.5 -90.5t-53 -71.5t-83.5 -47t-110 -17q-34 0 -67.5 7t-64.5 20.5t-56.5 34
t-42.5 48.5l82 55q20 -35 60.5 -58.5t92.5 -23.5q30 0 58.5 8.5t50.5 25t35.5 41t13.5 57.5q0 27 -11 47t-30 35t-44 26.5t-53 21.5q-31 12 -60 27t-51 36t-35 50t-13 69q0 49 19.5 89.5t54.5 68.5t83 43.5t104 15.5q62 0 115.5 -23t82.5 -65zM154 -235h-77l104 190h93z" />
    <glyph glyph-name="scommaaccent" unicode="&#x219;" horiz-adv-x="444" 
d="M347 360q-14 23 -38 38t-62 15q-17 0 -34 -3.5t-31.5 -11t-23.5 -20.5t-9 -31q0 -30 22 -43t63 -24q68 -20 104.5 -51.5t36.5 -89.5q0 -39 -17 -68t-44.5 -48t-62.5 -28.5t-71 -9.5q-68 0 -117.5 25t-76.5 68l75 49q16 -29 47.5 -47t71.5 -18q42 0 73 17.5t31 52.5
q0 31 -24.5 47t-73.5 32q-28 9 -51 19t-40 25t-26.5 35t-9.5 49q0 35 16 62.5t43 46.5t62.5 29t73.5 10q55 0 99 -21t66 -59zM95 -235h-77l104 190h93z" />
    <glyph glyph-name="uni021A" unicode="&#x21a;" horiz-adv-x="535" 
d="M260 0h-98l110 622h-224l15 86h544l-15 -86h-222zM142 -235h-77l104 190h93z" />
    <glyph glyph-name="uni021B" unicode="&#x21b;" horiz-adv-x="324" 
d="M315 398h-117l-45 -249q-3 -17 -3 -30q0 -30 15.5 -40.5t41.5 -10.5q14 0 28 3t23 8l-7 -74q-14 -6 -34.5 -9.5t-40.5 -3.5q-55 0 -87.5 24.5t-32.5 77.5q0 11 1 23t3 24l46 257h-90l14 76h89l23 136h92l-24 -136h119zM68 -235h-77l104 190h93z" />
    <glyph glyph-name="circumflex" unicode="&#x2c6;" horiz-adv-x="250" 
d="M335 564h-86l-59 99l-94 -99h-91l138 144h106z" />
    <glyph glyph-name="caron" unicode="&#x2c7;" horiz-adv-x="250" 
d="M223 564h-106l-86 144h87l58 -99l94 99h90z" />
    <glyph glyph-name="uni02C9" unicode="&#x2c9;" horiz-adv-x="250" 
d="M323 797h-294l11 66h295z" />
    <glyph glyph-name="breve" unicode="&#x2d8;" horiz-adv-x="250" 
d="M354 708q-14 -66 -61.5 -102t-113.5 -36t-104 33.5t-38 104.5h56q0 -20 7 -34t19 -22.5t28.5 -12t35.5 -3.5q42 0 73.5 15.5t42.5 56.5h55z" />
    <glyph glyph-name="dotaccent" unicode="&#x2d9;" horiz-adv-x="250" 
d="M245 647q0 -25 -17 -43t-42 -18q-24 0 -41.5 15t-17.5 42t18.5 44.5t42.5 17.5t40.5 -16t16.5 -42z" />
    <glyph glyph-name="ring" unicode="&#x2da;" horiz-adv-x="250" 
d="M175 553q-38 0 -62.5 24t-24.5 59q0 24 8 44.5t23 36.5t35.5 25t44.5 9q39 0 63 -23t24 -59q0 -49 -31 -82.5t-80 -33.5zM245 663q0 21 -13 36t-36 15q-29 0 -47.5 -21t-18.5 -52q0 -21 12.5 -35.5t35.5 -14.5q29 0 48 21t19 51z" />
    <glyph glyph-name="ogonek" unicode="&#x2db;" horiz-adv-x="250" 
d="M119 -191q-23 -17 -48 -27t-51 -10q-35 0 -59 18.5t-24 56.5q0 24 11.5 46.5t29 42t38.5 36.5t40 31h54q-20 -16 -38 -33t-32.5 -34.5t-23 -35t-8.5 -33.5q0 -20 12 -27.5t29 -7.5q30 0 56 21z" />
    <glyph glyph-name="tilde" unicode="&#x2dc;" horiz-adv-x="250" 
d="M-1 572q7 22 18 42.5t25.5 36.5t34 26t45.5 10q20 0 37.5 -6t34.5 -15q17 -8 33 -14.5t30 -6.5q21 0 34 15t21 32h55q-8 -22 -18.5 -42.5t-25.5 -36.5t-34.5 -26t-44.5 -10q-18 0 -35 6t-34 14q-17 9 -33.5 15.5t-31.5 6.5q-22 0 -35 -15t-21 -32h-55z" />
    <glyph glyph-name="hungarumlaut" unicode="&#x2dd;" horiz-adv-x="250" 
d="M300 564h-76l126 144h113zM120 564h-76l125 144h113z" />
    <glyph glyph-name="uni0394" unicode="&#x394;" horiz-adv-x="678" 
d="M-39 0l427 712h95l134 -712h-656zM413 613l-312 -530h406z" />
    <glyph glyph-name="uni03A9" unicode="&#x3a9;" horiz-adv-x="752" 
d="M379 0l39 185q43 8 79.5 28t64.5 49.5t46.5 66t27.5 77.5q6 27 6 53q0 39 -13 72t-37 56.5t-58.5 37t-77.5 13.5q-50 0 -96 -18t-83.5 -49t-64 -74t-36.5 -92q-3 -16 -5 -30.5t-2 -28.5q0 -62 32 -104.5t97 -56.5l-39 -185h-263l16 77h190l13 62q-70 22 -105 76t-35 126
q0 31 8 69q14 68 52 125t91 98.5t117 64.5t130 23q58 0 106.5 -17.5t83.5 -49t54.5 -76t19.5 -98.5q0 -34 -7 -68q-10 -48 -31 -91.5t-52.5 -79.5t-73 -62.5t-91.5 -39.5l-13 -62h190l-16 -77h-264z" />
    <glyph glyph-name="uni03BC" unicode="&#x3bc;" horiz-adv-x="578" 
d="M363 0q2 18 5.5 40.5t6.5 37.5h-2q-13 -19 -32 -35.5t-42 -29t-48.5 -19.5t-51.5 -7q-25 0 -46 8t-31 22l-55 -257h-94l152 714h94l-55 -262q-4 -16 -5.5 -31t-1.5 -29q0 -38 18 -62t66 -24q57 0 101 42.5t59 113.5l53 252h94l-79 -372q-2 -9 -4.5 -22t-5 -27t-4.5 -27.5
t-3 -25.5h-89z" />
    <glyph glyph-name="pi" unicode="&#x3c0;" horiz-adv-x="578" 
d="M497 12q-20 -9 -39 -14t-39 -5q-44 0 -59 18t-15 47q0 25 8 60l58 275h-191l-83 -393h-86l83 393h-70l17 81h511l-17 -81h-78l-57 -270q-2 -7 -3 -14t-1 -14q0 -12 6.5 -20t23.5 -8q22 0 45 10l-14 -65v0z" />
    <glyph glyph-name="endash" unicode="&#x2013;" horiz-adv-x="400" 
d="M363 207h-340l14 75h340z" />
    <glyph glyph-name="emdash" unicode="&#x2014;" horiz-adv-x="600" 
d="M563 207h-540l14 75h540z" />
    <glyph glyph-name="quoteleft" unicode="&#x2018;" horiz-adv-x="245" 
d="M196 708h78l-113 -249h-92z" />
    <glyph glyph-name="quoteright" unicode="&#x2019;" horiz-adv-x="245" 
d="M147 459h-78l113 249h92z" />
    <glyph glyph-name="quotesinglbase" unicode="&#x201a;" horiz-adv-x="245" 
d="M42 -133h-77l112 249h93z" />
    <glyph glyph-name="quotedblleft" unicode="&#x201c;" horiz-adv-x="424" 
d="M341 459h-93l127 249h78zM161 459h-92l127 249h77z" />
    <glyph glyph-name="quotedblright" unicode="&#x201d;" horiz-adv-x="424" 
d="M326 459h-78l113 249h92zM147 459h-78l113 249h92z" />
    <glyph glyph-name="quotedblbase" unicode="&#x201e;" horiz-adv-x="424" 
d="M222 -133h-78l112 249h93zM42 -133h-77l112 249h93z" />
    <glyph glyph-name="dagger" unicode="&#x2020;" horiz-adv-x="574" 
d="M366 505h202l-14 -78h-202l-97 -553h-89l97 553h-201l14 78h201l36 203h89z" />
    <glyph glyph-name="daggerdbl" unicode="&#x2021;" horiz-adv-x="574" 
d="M369 520h194l-14 -78h-194l-53 -301h194l-13 -78h-194l-34 -189h-89l33 189h-193l13 78h194l53 301h-194l14 78h193l34 188h89z" />
    <glyph glyph-name="bullet" unicode="&#x2022;" horiz-adv-x="500" 
d="M73 354q0 37 14 69t38 56t56 38t69 14t69 -14t56 -38t38 -56t14 -69t-14 -69t-38 -56t-56 -38t-69 -14t-69 14t-56 38t-38 56t-14 69z" />
    <glyph glyph-name="ellipsis" unicode="&#x2026;" horiz-adv-x="1000" 
d="M188 61q0 -26 -19 -46t-45 -20t-45 16.5t-19 45.5t20 47.5t46 18.5t44 -16.5t18 -45.5zM522 61q0 -26 -19 -46t-45 -20t-45 16.5t-19 45.5t20 47.5t46 18.5t44 -16.5t18 -45.5zM856 61q0 -26 -19 -46t-45 -20t-45 16.5t-19 45.5t20 47.5t46 18.5t44 -16.5t18 -45.5z" />
    <glyph glyph-name="perthousand" unicode="&#x2030;" horiz-adv-x="1041" 
d="M362 590q0 -39 -13.5 -73t-37 -59t-56.5 -39.5t-72 -14.5q-31 0 -57 10t-45 27.5t-29.5 42t-10.5 53.5q0 39 13.5 72.5t37.5 58t57.5 39t72.5 14.5q63 0 101.5 -36t38.5 -95zM282 578q0 29 -18 49t-50 20q-40 0 -66 -29t-26 -72q0 -29 18 -48.5t49 -19.5q42 0 67.5 29
t25.5 71zM658 176q0 -39 -13.5 -73t-37 -59t-56.5 -39.5t-72 -14.5q-31 0 -57 10t-45 27.5t-29.5 42t-10.5 53.5q0 39 13.5 72.5t37.5 58t57.5 39t72.5 14.5q63 0 101.5 -36t38.5 -95zM578 164q0 29 -18 49t-50 20q-40 0 -66 -29t-26 -72q0 -29 18 -48.5t49 -19.5
q42 0 67.5 29t25.5 71zM1012 176q0 -39 -13.5 -73t-37 -59t-56.5 -39.5t-72 -14.5q-31 0 -57 10t-45 27.5t-29.5 42t-10.5 53.5q0 39 13.5 72.5t37.5 58t57.5 39t72.5 14.5q63 0 101.5 -36t38.5 -95zM932 164q0 29 -18 49t-50 20q-40 0 -66 -29t-26 -72q0 -29 18 -48.5
t49 -19.5q42 0 67.5 29t25.5 71zM105 -40l-57 39l526 739l55 -39z" />
    <glyph glyph-name="guilsinglleft" unicode="&#x2039;" horiz-adv-x="306" 
d="M209 69l-67 -43l-109 218l184 216l54 -43l-147 -175z" />
    <glyph glyph-name="guilsinglright" unicode="&#x203a;" horiz-adv-x="306" 
d="M77 421l66 39l110 -218l-185 -217l-54 46l148 177z" />
    <glyph glyph-name="fraction" unicode="&#x2044;" horiz-adv-x="100" 
d="M-204 -32l-54 33l564 739l53 -33z" />
    <glyph glyph-name="Euro" unicode="&#x20ac;" horiz-adv-x="595" 
d="M574 614q-23 15 -54 22t-65 7q-38 0 -72.5 -12.5t-63 -34.5t-51.5 -52.5t-39 -65.5h288l-35 -71h-279q-4 -11 -7.5 -25t-6 -29t-4 -29t-1.5 -24h253l-34 -71h-220q1 -36 14.5 -66.5t38 -52t59 -34t76.5 -12.5q36 0 67.5 9t64.5 29l21 -75q-33 -21 -74 -33t-92 -12
q-66 0 -115 20.5t-82.5 54.5t-51 78.5t-19.5 93.5h-83l36 71h47q1 17 6 46.5t14 60.5h-70l37 71h55q20 52 52.5 97.5t75.5 79t94.5 52.5t110.5 19q45 0 84 -9t64 -24l-39 -79v0z" />
    <glyph glyph-name="afii61289" unicode="&#x2113;" horiz-adv-x="500" 
d="M473 612q0 -44 -19 -88t-52 -86.5t-78.5 -84.5t-98.5 -81q-12 -50 -18.5 -80t-9.5 -47.5t-4 -25.5t-1 -13q0 -30 16 -41.5t35 -11.5q21 0 43.5 9t55.5 32h2l23 -53q-39 -29 -74.5 -42t-74.5 -13q-54 0 -85 27t-31 77q0 5 1 12t3 20t6.5 34t11.5 55l-67 -54h-2l-25 51
l110 83l54 254q19 88 65 132t108 44q47 0 76.5 -31t29.5 -78zM397 608q0 22 -11 37t-28 15q-22 0 -40.5 -20.5t-29.5 -74.5l-46 -211q25 23 52.5 53t50.5 64t37.5 69t14.5 68z" />
    <glyph glyph-name="trademark" unicode="&#x2122;" horiz-adv-x="1000" 
d="M465 636h-127v-340h-81v340h-129v72h337v-72zM1009 296h-82v307h-2l-119 -307h-55l-120 307h-2v-307h-81v412h118l113 -292l113 292h117v-412z" />
    <glyph glyph-name="Omega" unicode="&#x2126;" horiz-adv-x="752" 
d="M379 0l39 185q43 8 79.5 28t64.5 49.5t46.5 66t27.5 77.5q6 27 6 53q0 39 -13 72t-37 56.5t-58.5 37t-77.5 13.5q-50 0 -96 -18t-83.5 -49t-64 -74t-36.5 -92q-3 -16 -5 -30.5t-2 -28.5q0 -62 32 -104.5t97 -56.5l-39 -185h-263l16 77h190l13 62q-70 22 -105 76t-35 126
q0 31 8 69q14 68 52 125t91 98.5t117 64.5t130 23q58 0 106.5 -17.5t83.5 -49t54.5 -76t19.5 -98.5q0 -34 -7 -68q-10 -48 -31 -91.5t-52.5 -79.5t-73 -62.5t-91.5 -39.5l-13 -62h190l-16 -77h-264z" />
    <glyph glyph-name="estimated" unicode="&#x212e;" horiz-adv-x="800" 
d="M595 402v193q-82 79 -194 79t-191 -79v-193h385zM210 355v-240q76 -78 192 -78q83 0 144 37.5t112 121.5l46 -28q-30 -48 -61.5 -82t-67.5 -55.5t-78.5 -32t-94.5 -10.5q-78 0 -141 28.5t-108 78.5t-69 116.5t-24 143.5t24 143.5t69 116t108 77.5t141 28q76 0 139.5 -27
t108.5 -75.5t70 -115.5t25 -147h-535z" />
    <glyph glyph-name="partialdiff" unicode="&#x2202;" horiz-adv-x="523" 
d="M481 360q0 -59 -9 -124.5t-35 -120.5t-72.5 -91t-121.5 -36q-48 0 -86.5 18t-65.5 48.5t-41.5 71.5t-14.5 87q0 45 14 84.5t40.5 69t64 46t84.5 16.5q46 0 85.5 -19t70.5 -51q0 10 0.5 20t0.5 21q0 39 -8 83t-27 81.5t-51 62t-81 24.5q-35 0 -62.5 -13t-53.5 -34
q-12 14 -23.5 27.5t-23.5 27.5q37 29 74 45.5t85 16.5q75 0 124.5 -33t79 -85.5t41.5 -116.5t12 -126zM391 271q-23 42 -60 66t-82 24q-33 0 -57.5 -12.5t-41 -33.5t-24.5 -48.5t-8 -57.5q0 -29 7.5 -56.5t23.5 -49.5t40 -35.5t56 -13.5q40 0 67.5 22t44.5 54.5t25 70.5
t9 70z" />
    <glyph glyph-name="Delta" unicode="&#x2206;" horiz-adv-x="678" 
d="M-39 0l427 712h95l134 -712h-656zM413 613l-312 -530h406z" />
    <glyph glyph-name="product" unicode="&#x220f;" horiz-adv-x="726" 
d="M570 -214v917h-413v-917h-91v1000h594v-1000h-90z" />
    <glyph glyph-name="summation" unicode="&#x2211;" horiz-adv-x="626" 
d="M25 -214v72l316 433l-303 422v73h551v-83h-432l292 -412l-311 -423h463v-82h-576z" />
    <glyph glyph-name="minus" unicode="&#x2212;" horiz-adv-x="666" 
d="M596 262h-526v82h526v-82z" />
    <glyph glyph-name="uni2215" unicode="&#x2215;" horiz-adv-x="100" 
d="M-204 -32l-54 33l564 739l53 -33z" />
    <glyph glyph-name="uni2219" unicode="&#x2219;" horiz-adv-x="260" 
d="M197 306q0 -26 -18.5 -46t-45.5 -20q-26 0 -44.5 16.5t-18.5 45.5t20 47.5t46 18.5t43.5 -16.5t17.5 -45.5z" />
    <glyph glyph-name="radical" unicode="&#x221a;" horiz-adv-x="515" 
d="M315 -214h-86l-158 328l-48 -23l-33 70l124 58l144 -302l178 869h90z" />
    <glyph glyph-name="infinity" unicode="&#x221e;" horiz-adv-x="778" 
d="M681 260q0 37 -21 63t-61 26q-20 0 -40 -9t-38.5 -22.5t-35 -29.5t-29.5 -29q15 -14 31.5 -29t34.5 -27t38 -20t42 -8q38 0 58.5 24.5t20.5 60.5zM361 259q-14 13 -31 28.5t-36 29t-39.5 22.5t-40.5 9q-37 0 -57.5 -26.5t-20.5 -61.5q0 -38 22 -61.5t60 -23.5q19 0 39 8
t39 20.5t35.5 27.5t29.5 28zM754 263q0 -36 -11 -68t-31.5 -55.5t-50.5 -37t-68 -13.5q-30 0 -55.5 9t-48 23.5t-42.5 34t-39 40.5q-20 -21 -39.5 -40t-41 -34t-46.5 -23.5t-56 -8.5q-38 0 -68.5 13t-51.5 36t-32.5 54.5t-11.5 68.5q0 36 11 67t31.5 54t50 36.5t67.5 13.5
q31 0 57 -9.5t48.5 -25.5t42.5 -36.5t39 -42.5q18 22 38 42.5t42.5 36.5t48.5 26t57 10q37 0 66.5 -13.5t50.5 -36.5t32 -54t11 -67z" />
    <glyph glyph-name="integral" unicode="&#x222b;" horiz-adv-x="574" 
d="M442 723q0 -19 -12.5 -30.5t-31.5 -11.5q-18 0 -27 8.5t-14 19t-9 19t-13 8.5t-14.5 -8.5t-8 -21t-3 -28t-0.5 -28.5q0 -26 1 -49t1 -37v-568q0 -35 -4.5 -72t-18.5 -67.5t-40 -50t-69 -19.5q-13 0 -27.5 3t-27 10t-20.5 18.5t-8 28.5t12.5 29t29.5 12q18 0 26.5 -8.5
t13.5 -18.5t9 -18.5t12 -8.5q9 0 14.5 10.5t7.5 25t2.5 29.5t0.5 24q0 20 -1 37t-1 28q0 3 0.5 6t0.5 6v499q0 17 -0.5 36t-0.5 39q0 37 4 74.5t17.5 68t39.5 50t71 19.5q12 0 27 -3.5t28.5 -11t23 -19.5t9.5 -29z" />
    <glyph glyph-name="approxequal" unicode="&#x2248;" horiz-adv-x="666" 
d="M599 440q-3 -30 -12 -57.5t-25.5 -49.5t-41 -35t-58.5 -13q-31 0 -67.5 11t-72.5 25q-36 13 -68.5 24t-56.5 11q-31 0 -48.5 -23.5t-22.5 -50.5h-59q3 29 12.5 57t25.5 50t40.5 35.5t57.5 13.5q32 0 66.5 -10.5t69.5 -24.5q35 -13 69 -24t63 -11q32 0 48.5 21.5
t21.5 50.5h58zM599 240q-3 -30 -12 -57.5t-25.5 -49.5t-41 -35t-58.5 -13q-31 0 -67.5 11t-72.5 25q-36 13 -68.5 24t-56.5 11q-31 0 -48.5 -23.5t-22.5 -50.5h-59q3 29 12.5 57t25.5 50t40.5 35.5t57.5 13.5q32 0 66.5 -10.5t69.5 -24.5q35 -13 69 -24t63 -11
q32 0 48.5 21.5t21.5 50.5h58z" />
    <glyph glyph-name="notequal" unicode="&#x2260;" horiz-adv-x="666" 
d="M266 108l-77 -149l-73 38l58 111h-134v84h177l63 123h-240v84h284l77 149l74 -37l-59 -112h136v-84h-179l-64 -123h243v-84h-286z" />
    <glyph glyph-name="lessequal" unicode="&#x2264;" horiz-adv-x="666" 
d="M77 309v86l512 183v-89l-397 -137l397 -134v-88zM77 8v84h512v-84h-512z" />
    <glyph glyph-name="greaterequal" unicode="&#x2265;" horiz-adv-x="666" 
d="M77 130v88l397 134l-397 137v89l512 -183v-86zM77 8v84h512v-84h-512z" />
    <glyph glyph-name="lozenge" unicode="&#x25ca;" horiz-adv-x="593" 
d="M337 -35h-82l-173 391l173 391h82l174 -391zM296 661l-127 -305l127 -305l128 305z" />
    <glyph glyph-name="dotlessj" unicode="&#xf6be;" horiz-adv-x="259" 
d="M-99 -155q18 -5 37 -5q21 0 35 8t23 21.5t14 32t9 39.5l94 533h93l-95 -536q-6 -35 -16.5 -67.5t-30 -57t-50.5 -39t-77 -14.5q-13 0 -28.5 2t-26.5 4z" />
    <glyph glyph-name="commaaccent" unicode="&#xf6c3;" horiz-adv-x="250" 
d="M80 -235h-77l104 190h93z" />
    <glyph glyph-name="uniF8FF" unicode="&#xf8ff;" horiz-adv-x="512" 
d="M222 117v67h56v-67h-56zM225 234l-2 17q0 56 13 81q7 13 18 27.5t28 31.5q16 15 26 26.5t15 21t7 18t2 17.5q0 36 -22.5 60.5t-53.5 24.5t-53.5 -22t-28.5 -73l-50 8q7 72 44 104.5t91 32.5t89 -35.5t35 -95.5q0 -32 -12.5 -58.5t-50.5 -61.5q-37 -33 -43 -52
q-6 -20 -6 -72h-46zM462 50v617h-412v-617h412zM512 718v-718h-512v718h512z" />
    <glyph glyph-name="fi" unicode="&#xfb01;" horiz-adv-x="573" 
d="M559 647q0 -24 -17 -42.5t-42 -18.5q-24 0 -41.5 15t-17.5 42q0 26 18.5 44t42.5 18q23 0 40 -16t17 -42zM435 0h-92l83 474h93zM380 681q-10 3 -20.5 5t-23.5 2q-24 0 -41 -9.5t-28.5 -25.5t-18 -36.5t-10.5 -42.5l-18 -100h113l-14 -75h-111l-70 -399h-91l71 399h-96
l14 75h93l18 100q7 37 20.5 72t37 62t57.5 43.5t81 16.5q32 0 57 -7z" />
    <glyph glyph-name="fl" unicode="&#xfb02;" horiz-adv-x="572" 
d="M435 0h-92l133 756h92zM319 399h-111l-70 -399h-91l70 399h-95l14 75h93l18 100q7 37 20.5 72t37 62t57.5 43.5t81 16.5q33 0 57 -7l-20 -80q-10 3 -20.5 5t-23.5 2q-24 0 -41 -9.5t-28.5 -25.5t-18 -37t-10.5 -43l-18 -99h113z" />
    </font>
</defs>
</svg>
